<svg xmlns="http://www.w3.org/2000/svg" xmlns:xlink="http://www.w3.org/1999/xlink" version="1.1" id="Layer_1" x="0px" y="0px" style="enable-background:new 0 0 340 40;" xml:space="preserve" viewBox="0 0 109.8 40">
<style type="text/css">
<![CDATA[
	.st0{fill:#17288E;}
	.st1{fill:url(#SVGID_1_);}
	.st2{fill:url(#SVGID_2_);}
	.st3{fill:url(#SVGID_3_);}
	.st4{fill:#FF0000;}
	.st5{fill:#FFFFFF;}
	.st6{fill:#333333;}
	.st7{fill:#3967AD;}
	.st8{fill:none;stroke:#000000;stroke-width:0.2999;}
]]>
</style>
<path class="st7" d="M0,40h109.8v-4.3c-6.2-3.2-14-7.8-20.7-12.3c-9.6-6.4-28.9-23-28.9-23L58.9,0L47.7,0.5  c-11.3,10-14,13.7-27.7,23C13.6,27.9,6,32,0,35.1V40z"/>
<path class="st5" d="M20.9,22.9c1.9-1.3,6.5-4.6,9.7-7.1c2.4-2,5-4.3,9.2-8.1c2.1-1.9,4.7-4.3,7.9-7.1l11.2-0.4l1.3,0.5  c0.1,0.1,10.1,8.9,17.6,14.5c0.1,0.1,0.5,0.4,0.9,0.7c1.3,1.1,3.7,3,4.6,3.6c-2.8,0-4.9-0.8-5-0.8l-0.1,0l0.3,1.7l-1.7-1.5v1.9  c-2.2,0.1-4.2,1.3-4.6,1.5c-1.2-2.1-2.6-4.5-2.6-4.6l0,0h-1.5l0,0c-0.8,2.2-1.6,3.1-1.9,3.3V17l-0.1,0c-2.4-0.2-4.7-1.9-4.7-1.9  L61.3,15l0.1,0.2c0.4,1.1,2.8,5.2,3.9,6.8c-2.4-2.7-6.4-8.7-6.4-8.8l-0.1,0.1l0.5,1.9L58,14.6l2.7,5.3L56.8,16l0,0.1  c-0.3,1.9-3.3,4.5-3.8,4.9l-1.7-6.5l-0.1,0.2c0,0.1-2.7,5-6.5,7c0.3-0.4,0.9-1.1,1.8-2.4l0,0l0,0c0,0-0.3-0.5-0.7-0.5  c-0.2,0-0.3,0.1-0.5,0.2C45.1,19,45,19,44.9,19c-0.4,0-1-0.8-1.1-1.1l0,0h-2.5l0,0c0,0-0.7,1.7-3.1,3.6C38,21.6,37.3,22,37,22  c0,0-0.1,0-0.1,0c0,0,0-0.2,0.5-0.9L37.3,21c0,0-0.2,0.1-0.4,0.1c-0.1,0-0.1,0-0.1-0.1c0,0-0.1-0.2,0.1-0.5C37,20,37,19.5,37,19  c0-0.7,0-1.4,0.5-2.1c0.3-0.4,0.4-0.8,0.3-1.1c-0.1-0.3-0.3-0.5-0.4-0.6c0.1-0.1,0.1-0.1,0.1-0.2l0-0.1l-0.1,0c0,0-0.1,0-1.2,0.5  l0.8-2.3l-0.1-0.1c0,0-2.2,2.8-3.8,4.2c-0.1,0.1-0.2,0.2-0.2,0.2c0.3-0.4,1.2-1.6,1.8-2.3l-0.1-0.1l-2.2,1.6l1.2-1.7l-0.1-0.1  C33.5,15,25.3,20.6,20.9,22.9z"/>
<path class="st0" d="M58.9,0.1l1.3,0.4c0.5,0.5,10.3,9,17.6,14.5c0.1,0.1,0.4,0.4,0.9,0.7c1.7,1.4,3.5,2.8,4.4,3.5  c-2.7-0.1-4.7-0.8-4.7-0.8l-0.2-0.1l0,0.2l0.3,1.4L77,18.8l-0.2-0.2v0.3v1.6c-2.1,0.1-4,1.2-4.5,1.5c-1.2-2.1-2.5-4.5-2.5-4.5l0-0.1  h-0.1h-1.4h-0.1l0,0.1c-0.7,2-1.4,2.9-1.8,3.2v-3.6V17l-0.1,0c-2.4-0.2-4.6-1.9-4.7-1.9l-0.4-0.3l0.1,0.4c0.3,1,2.2,4.1,3.3,6  c-2.4-3-5.7-8-5.7-8l-0.3,0.1l0.5,1.7l-0.9-0.4l-0.4-0.2l0.2,0.4l2.4,4.7L57,16.1l-0.2-0.2l0,0.3c-0.3,1.8-3,4.2-3.7,4.8l-1.7-6.3  l-0.1-0.4l-0.2,0.3c0,0-2.5,4.8-6.2,6.8c0.3-0.4,0.8-1.1,1.5-2.2l0-0.1l0-0.1c0,0-0.3-0.5-0.8-0.5c-0.2,0-0.4,0.1-0.5,0.2  c-0.1,0.1-0.1,0.1-0.2,0.1c-0.4,0-0.8-0.7-1.1-1.1l0-0.1h-0.1h-2.4h-0.1l0,0.1c0,0-0.7,1.7-3.1,3.5c-0.3,0.2-0.9,0.5-1.1,0.5  c0,0,0,0,0,0l0,0c0,0,0-0.2,0.4-0.8l-0.2-0.2c-0.1,0-0.2,0.1-0.4,0.1c0,0-0.1,0-0.1,0c0,0-0.1-0.1,0.1-0.5c0.2-0.5,0.2-1,0.2-1.5  c0-0.7,0-1.4,0.4-2c0.3-0.4,0.4-0.8,0.3-1.2c-0.1-0.3-0.2-0.4-0.3-0.6c0.1-0.1,0.1-0.1,0.1-0.2l0-0.1h-0.1c0,0,0,0,0,0  c0,0-0.1,0-1.1,0.4l0.8-2.1l-0.2-0.1c0,0-1.9,2.4-3.4,3.9c0.4-0.5,0.9-1.1,1.4-1.7l-0.2-0.2l-1.8,1.3l1-1.4l-0.2-0.2  c-0.1,0.1-6.9,4.7-11.4,7.3c2.3-1.6,5.9-4.2,8.5-6.3c2.4-2,5-4.3,9.2-8.2c2.1-1.9,4.7-4.2,7.8-7.1L58.9,0.1 M58.9,0L47.7,0.5  c-9.4,8.5-13.4,12.3-17.1,15.3C26.5,19.1,20,23.5,20,23.5c4-1.9,13.7-8.5,13.7-8.5l-1.5,2.1l2.5-1.8c0,0-2.1,2.5-1.9,2.5  c0,0,0.2-0.1,0.4-0.3c1.6-1.4,3.8-4.2,3.8-4.2l-0.9,2.4c1-0.4,1.3-0.6,1.4-0.6s-0.2,0.1-0.2,0.1s1,0.5,0.2,1.7  c-0.8,1.2-0.2,2.4-0.6,3.5c-0.2,0.6-0.1,0.7,0.1,0.7c0.2,0,0.4-0.1,0.4-0.1c-0.6,0.8-0.6,1.1-0.3,1.1c0.4,0,1.2-0.5,1.2-0.5  c2.4-1.9,3.1-3.6,3.1-3.6h2.4c0,0,0.6,1.1,1.2,1.1c0.1,0,0.2,0,0.3-0.1c0.2-0.2,0.3-0.2,0.5-0.2c0.4,0,0.6,0.5,0.6,0.5  c-1.3,1.9-2,2.7-2,2.7c4.1-1.8,6.8-7.2,6.8-7.2l1.7,6.5c0,0,3.6-2.9,4-5l4.1,4.1l-2.8-5.6l1.2,0.5l-0.6-2c0,0,4.7,7.1,7,9.4  c0,0-3.8-6.1-4.3-7.5c0,0,2.3,1.8,4.7,1.9v4c0,0,1.1-0.7,2.1-3.5h1.4c0,0,1.3,2.4,2.6,4.6c0,0,2.2-1.4,4.7-1.5v-1.8l1.7,1.5  l-0.3-1.8c0,0,2.2,0.8,5.1,0.8c0,0,0.1,0,0.1,0c-1-0.4-5.3-4.1-5.8-4.5C70.2,9.3,60.2,0.5,60.2,0.5L58.9,0L58.9,0z"/>
<linearGradient id="SVGID_1_" gradientUnits="userSpaceOnUse" x1="50.2383" y1="13.2983" x2="50.2383" y2="0.1137">
	<stop offset="0" style="stop-color:#E6F5F8"/>
	<stop offset="0.3862" style="stop-color:#B8C2DD"/>
	<stop offset="1" style="stop-color:#777DBA"/>
</linearGradient>
<path class="st1" d="M50.8,0.4c0,0-2.6,4-4.7,5.7l-0.4,3.1c0,0,0.9,0.2,0.9,1.2c0.1,1,0,2.6-0.4,2.6C46,13,46,13,46,13l1.1,3.5  c0,0,1.5-1.6,1.7-3c0.2-1.3-0.1-2-0.1-2s0.4-0.6,0.5-1.1C49.3,9.8,47.7,9,48,8.5c0.3-0.5,0.8-1.1,1.4-1.1c0.6,0,1.2,1.5,0.8,2.1  c-0.4,0.6,1.7,1.8,2,3.2c0.4,1.3,0.7,1.5,0.7,1.5s-0.1-1.1,0.4-1.6c0.4-0.5,0.8-1.5,0.4-1.9c-0.4-0.4-0.4-0.7-0.5-1.4  c-0.1-0.7,0-1.6-0.3-1.8c-0.3-0.2-0.4-0.6-0.4-0.9s-0.8-0.2-0.7-0.6c0.1-0.4,0.1-0.4,0.4-1.2c0.2-0.8,0.7-0.8,0.9-1.1  c0.3-0.3,1.2-0.3,1.2-0.3l0.3-2.9L50.8,0.4z"/>
<linearGradient id="SVGID_2_" gradientUnits="userSpaceOnUse" x1="51.7676" y1="6.7671" x2="51.2426" y2="-10.5629" gradientTransform="matrix(0.912 2.900000e-002 -2.980000e-002 0.9365 23.547 9.9762)">
	<stop offset="0" style="stop-color:#E6F5F8"/>
	<stop offset="0.3862" style="stop-color:#B8C2DD"/>
	<stop offset="1" style="stop-color:#777DBA"/>
</linearGradient>
<path class="st2" d="M60,0.5c0,0,0.6,2.7-0.5,3.8l1.1-1.1c0,0-1.1,2.3-1.6,2.8l0,1l0.8-1.5l1.8,2.1l0-1.1l2.6,3.7l1.4,0l3.4,3.4  l2,0.1l3.1,2.4l2,1.3l1.7,0.4l4.4,0.9C77.9,15.1,74,12.3,70,9C66.1,5.8,62.3,2.6,60,0.5z"/>
<linearGradient id="SVGID_3_" gradientUnits="userSpaceOnUse" x1="48.1406" y1="2.7891" x2="48.1406" y2="0.4728">
	<stop offset="0" style="stop-color:#E6F5F8"/>
	<stop offset="0.3862" style="stop-color:#B8C2DD"/>
	<stop offset="1" style="stop-color:#777DBA"/>
</linearGradient>
<path class="st3" d="M48.3,0.5c0,0-0.8,2-1.6,2.7c-0.8,0.7,2.2-2.7,2.2-2.7s0,0.9-1.2,2.8c0,0,1.6-1.8,2-2.8H48.3z"/>
<g>
	<path class="st6" d="M26.5,33.5C26.5,33.5,26.5,33.5,26.5,33.5c0.2,0,0.4,0,0.6,0.1c0-0.1,0-0.1,0-0.2c0.1,0,0.2,0,0.2,0.1   c-0.1,0-0.2,0.1-0.2,0.1C26.9,33.6,26.7,33.5,26.5,33.5 M29.7,33.1c0.1-0.1,0.1-0.1,0.1-0.3c0-0.1,0-0.2,0-0.2   c-0.1-0.1-0.2-0.1-0.4-0.2c-0.2-0.1-0.4-0.1-0.7-0.2c-0.3-0.1-0.6-0.1-1-0.2c-0.4,0.3-0.9,0.5-1.3,0.8c-0.1,0-0.2-0.1-0.3-0.1   c-0.2-0.1-0.3-0.2-0.3-0.3c-0.1-0.1-0.1-0.3-0.1-0.4c0-0.2,0-0.4,0-0.6c0.4-0.2,0.8-0.5,1.2-0.7c0.1,0,0.1-0.1,0.1-0.1   c0,0-0.1-0.1-0.2-0.2c-0.1,0-0.3-0.1-0.4-0.1c-0.2-0.1-0.3-0.1-0.4-0.1c0.1,0,0.2-0.1,0.2-0.1c0.4,0.1,0.9,0.2,1.3,0.3   c0,0.1,0.1,0.1,0.1,0.2c0.1,0.3,0.2,0.5,0.2,0.7c0.2,0,0.3,0.1,0.5,0.1c0-0.2,0-0.3,0-0.5c0,0.1,0.1,0.2,0.1,0.3   c0.2,0,0.4,0.1,0.5,0.1c0-0.2,0-0.5,0-0.7c1,0.2,1.9,0.4,2.9,0.5c0,0.1,0,0.1,0,0.2c-0.2,0-0.4-0.1-0.5-0.1c-0.5-0.1-1-0.2-1.5-0.3   c-0.6,0.4-1.1,0.7-1.7,1c0.3,0.1,0.6,0.1,1,0.2c0.3,0,0.5,0.1,0.7,0.1c0.2,0,0.5,0,0.7,0c0.2,0,0.4,0,0.6-0.1   c0.2-0.1,0.4-0.1,0.5-0.2c0.1,0,0.2,0,0.3,0.1c0,0.1,0,0.1,0,0.2c-0.5,0.3-1.1,0.7-1.6,1C30.1,33.2,29.9,33.1,29.7,33.1 M34.8,31.5   c0,0,0.1,0,0.1,0C34.9,31.5,34.8,31.6,34.8,31.5C34.8,31.6,34.8,31.5,34.8,31.5"/>
	<path class="st6" d="M37.2,35.4c0.2,0,0.3,0,0.5-0.1c0.3,0,0.6-0.1,0.8-0.1c0.5,0,1,0,1.5-0.1c0.7-0.1,1.2-0.3,1.6-0.6   c0.5-0.3,1-0.7,1.5-1.1c0.3-0.2,0.4-0.3,0.5-0.4c0-0.1,0-0.2-0.1-0.2c-0.1,0-0.2-0.1-0.5-0.1c-0.3-0.1-0.4-0.1-0.6-0.1   c0.1-0.1,0.2-0.1,0.2-0.2c1.1,0.1,2.2,0.2,3.3,0.3c0,0.1,0,0.2,0,0.2c-0.2,0-0.5,0-0.7,0c-0.2,0-0.4,0.1-0.6,0.2   c-0.2,0.1-0.4,0.2-0.7,0.4c-0.5,0.4-1.1,0.8-1.6,1.2c-0.5,0.3-1.2,0.6-2.2,0.7c-0.4,0.1-0.9,0.1-1.4,0.1   C38.2,35.5,37.7,35.5,37.2,35.4 M35.4,33.7c-0.2-0.2-0.3-0.4-0.4-0.7c0.4-0.3,0.8-0.5,1.2-0.8c0.1,0,0.1-0.1,0.1-0.1   c0,0-0.1-0.1-0.2-0.1c-0.1,0-0.2-0.1-0.4-0.1c-0.2,0-0.3-0.1-0.4-0.1c0.1-0.1,0.2-0.1,0.2-0.2c1.2,0.2,2.4,0.3,3.6,0.5   c0,0,0,0.1,0,0.1c0,0,0,0.1,0,0.1c-0.1,0-0.2,0-0.2,0c-0.1,0-0.2,0.1-0.3,0.1c-0.7,0.5-1.5,1-2.2,1.5c-0.1,0.1-0.2,0.2-0.3,0.2   C35.9,34.1,35.6,33.9,35.4,33.7 M40.6,32.2C40.6,32.2,40.6,32.2,40.6,32.2C40.6,32.2,40.6,32.3,40.6,32.2   C40.6,32.2,40.6,32.2,40.6,32.2"/>
	<path class="st6" d="M44.4,37C44.3,37,44.3,37,44.4,37c0-0.1,0.1-0.2,0.2-0.2c0.4,0,0.8,0,1.2-0.1c0,0,0,0,0,0   c-0.1,0.1-0.1,0.3-0.2,0.4c-0.1,0-0.1,0-0.2,0C45.1,37,44.7,37,44.4,37 M48.9,35.5c0-0.3,0-0.6,0-0.9c0.5-0.4,1-0.8,1.5-1.2   c0.1-0.1,0.1-0.1,0.1-0.1c0,0-0.1-0.1-0.2-0.1c-0.1,0-0.3,0-0.4-0.1c-0.2,0-0.3,0-0.4,0c0.1-0.1,0.2-0.1,0.2-0.2   c0.7,0,1.5,0,2.2,0.1c0,0.4,0,0.9,0,1.3c-0.8,0.6-1.6,1.3-2.4,1.9c-0.2,0.2-0.5,0.3-0.8,0.4C48.8,36.2,48.9,35.9,48.9,35.5    M45,35.9c0-0.1,0-0.1,0-0.2c0.1,0,0.3,0.1,0.3,0.1c0.1,0.1,0.1,0.2,0,0.3c-0.1,0.1-0.2,0.1-0.4,0.2C45,36.2,45,36,45,35.9"/>
	<path class="st6" d="M51.4,36.4c0.1-0.1,0.2-0.1,0.2-0.2c0.1,0,0.3,0,0.6,0c0.1,0,0.2,0,0.3,0c1.1,0,2.2,0,3.4,0c0,0,0,0,0-0.1   c0,0,0.1,0,0.1,0c0,0,0.1,0,0.1,0c0.1,0,0.2,0,0.4,0c0.2,0,0.4,0,0.5,0c-0.1,0.1-0.2,0.1-0.2,0.2c-0.7,0-1.3,0-2,0   C53.6,36.5,52.5,36.5,51.4,36.4 M55.9,35.6c-0.2,0-0.4-0.1-0.5-0.1c-0.2-0.1-0.3-0.2-0.3-0.3c-0.1-0.1-0.1-0.2-0.1-0.4   c0,0,0-0.1,0-0.1c0.5-0.4,1-0.9,1.6-1.3c0.1-0.1,0.1-0.1,0.1-0.1c0,0-0.1-0.1-0.2-0.1c-0.1,0-0.2,0-0.4,0c-0.2,0-0.4,0-0.5,0   c0.1-0.1,0.2-0.1,0.2-0.2c0.8,0,1.6,0,2.5,0c0,0.2,0,0.5,0,0.7c0,0.2,0,0.4,0,0.5c-0.6,0.5-1.2,1.1-1.9,1.6   C56.1,35.6,56,35.6,55.9,35.6 M59.5,32.8c0.5,0,1,0,1.5-0.1c-0.1,0.1-0.2,0.1-0.2,0.2c-0.1,0-0.3,0-0.5,0c-0.2,0-0.4,0-0.6,0.1   c-0.1,0-0.1,0-0.2,0C59.5,33,59.5,32.9,59.5,32.8"/>
	<path class="st6" d="M57.6,36.2c0.2,0,0.4,0,0.7,0c0,0,0,0,0.1,0c0.8,0,1.5,0,2.3-0.1c0,0,0,0,0-0.1c0.1,0,0.3,0,0.4,0   c0.1,0,0.1,0,0.2,0c0.2,0,0.4,0,0.6,0c-0.1,0.1-0.2,0.1-0.2,0.2c-1.4,0.1-2.8,0.1-4.2,0.1C57.5,36.4,57.6,36.3,57.6,36.2    M65.6,35.9c0.2,0,0.3,0,0.5,0c0,0,0,0,0,0c0.2,0,0.4,0,0.6,0c0-0.6,0-1.2,0-1.9c0.3,0.3,0.6,0.5,0.9,0.8c0.5-0.5,1.1-1,1.6-1.5   c0.3-0.2,0.4-0.4,0.5-0.5c0-0.1,0-0.2-0.1-0.2c-0.1,0-0.2,0-0.5,0c-0.2,0-0.4,0-0.6,0c0.1-0.1,0.2-0.1,0.2-0.2c0.3,0,0.7-0.1,1-0.1   c0,0.4,0,0.8,0,1.2c-0.9,0.9-1.9,1.8-2.8,2.6c-0.4,0-0.8,0.1-1.2,0.1C65.8,36,65.7,35.9,65.6,35.9 M60.6,35.4   c-0.1,0-0.2-0.1-0.3-0.1c0,0,0,0,0,0c0.7-0.6,1.4-1.2,2-1.8c0.1-0.1,0.2-0.2,0.2-0.2c0,0,0,0,0,0c0.1,0.2,0.3,0.3,0.4,0.4   c-0.6,0.5-1.2,1-1.8,1.6c-0.1,0.1-0.2,0.2-0.2,0.2C60.8,35.5,60.7,35.4,60.6,35.4 M62,33c-0.2,0-0.4,0-0.6,0   c0.1-0.1,0.2-0.1,0.2-0.2c0.1,0,0.3,0,0.4,0c0.1,0.1,0.2,0.2,0.3,0.4C62.3,33,62.2,33,62,33 M72.8,31.6c0,0,0.1,0,0.1,0   C72.9,31.7,72.9,31.7,72.8,31.6C72.8,31.7,72.8,31.7,72.8,31.6"/>
	<path class="st6" d="M69.5,35.5c1.1-0.1,2.3-0.2,3.4-0.4c1.7-0.2,3.4-0.4,5.1-0.7c0-0.2,0-0.4,0-0.7c0.1,0,0.1-0.1,0.2-0.1   c0.5-0.3,0.8-0.4,1-0.6c0.2,0,0.3-0.1,0.5-0.1c-0.5,0.5-1,0.9-1.5,1.4c-3,0.5-5.9,1-8.9,1.3C69.4,35.6,69.4,35.5,69.5,35.5    M73.6,34.4c-0.2,0-0.3,0-0.5-0.1c-0.1-0.1-0.2-0.2-0.2-0.3c0-0.1-0.1-0.3-0.1-0.5c0.5-0.5,1-1,1.5-1.5c0.1-0.1,0.1-0.1,0.1-0.2   c0,0-0.1-0.1-0.2-0.1c-0.1,0-0.2,0-0.4,0c-0.2,0-0.3,0-0.4,0c0.1-0.1,0.2-0.2,0.2-0.2c0.4-0.1,0.8-0.1,1.2-0.2c0,0,0,0,0,0.1   c0.1,0.3,0.2,0.5,0.2,0.6c0.2,0,0.4,0,0.5-0.1c0-0.1,0-0.2,0-0.3c0,0.1,0.1,0.2,0.1,0.3c0.2,0,0.4-0.1,0.5-0.1c0-0.3,0-0.5,0-0.8   c1.8-0.3,3.6-0.6,5.4-1c0,0.1,0,0.3,0,0.4c-0.2,0.2-0.4,0.4-0.6,0.7c-0.2,0-0.3,0.1-0.5,0.1c0-0.1,0-0.3-0.2-0.4   c-0.1-0.1-0.4-0.2-0.6-0.1c-0.1,0-0.3,0-0.5,0.1c-0.2,0-0.4,0.1-0.6,0.1C78,31,77.5,31.1,77,31.2c-0.5,0.6-1.1,1.1-1.6,1.7   c0.3-0.1,0.6-0.1,1-0.2c0.1,0,0.2,0,0.2,0c0,0,0,0,0,0.1c0,0.1-0.1,0.1-0.1,0.2c-0.1,0-0.2,0-0.3,0c-0.3,0.1-0.6,0.1-1,0.2   c-0.4,0.4-0.8,0.8-1.2,1.2c0,0,0,0,0,0C73.8,34.4,73.7,34.4,73.6,34.4C73.6,34.4,73.6,34.4,73.6,34.4 M78.2,32.1   c0,0,0.1-0.1,0.2-0.1c0.2-0.1,0.4-0.3,0.5-0.4c0.2,0,0.3-0.1,0.5-0.1c-0.4,0.4-0.8,0.9-1.2,1.3C78.1,32.6,78.1,32.3,78.2,32.1"/>
	<path class="st6" d="M85.9,32.5c0.1,0,0.2,0,0.3-0.1c-0.1,0.1-0.2,0.2-0.2,0.3c0,0-0.1,0-0.1,0C85.9,32.7,85.9,32.6,85.9,32.5    M84.9,32.4c-0.2,0-0.3-0.1-0.3-0.2c-0.1-0.1-0.1-0.2-0.1-0.4c0-0.2,0-0.5,0-0.7c0.5-0.6,1.1-1.2,1.6-1.8c-0.1,0-0.2,0.1-0.3,0.1   c-0.1,0-0.3,0.1-0.5,0.1c-0.2,0.1-0.4,0.1-0.5,0.1c-0.1,0-0.2,0.1-0.3,0.1c0-0.1,0-0.2,0-0.3c2.5-0.6,5.1-1.3,7.6-2   c-0.4,0.5-0.8,0.9-1.2,1.4c-0.2,0-0.3,0.1-0.5,0.1c0-0.2,0-0.3-0.1-0.5c-0.1-0.1-0.3-0.2-0.5-0.1c-0.1,0-0.3,0.1-0.5,0.1   c-0.2,0-0.4,0.1-0.5,0.1c-0.1,0-0.2,0.1-0.3,0.1c-1.1,1.2-2.1,2.5-3.2,3.7c0,0-0.1,0.1-0.1,0.1C85,32.5,84.9,32.5,84.9,32.4"/>
	<path class="st5" d="M26.5,33.5c0-0.1,0-0.2,0-0.3c-0.2,0-0.3-0.1-0.5-0.2c-0.2-0.1-0.3-0.1-0.4-0.2c-0.2-0.1-0.3-0.2-0.3-0.3   c-0.1-0.1-0.1-0.3-0.1-0.4c0-1,0-2,0-3c0.2,0,0.4,0.1,0.6,0.1c0,0.9,0,1.9,0,2.8c0,0.2,0,0.3,0.1,0.4c0.1,0.1,0.2,0.2,0.3,0.3   c0.1,0.1,0.2,0.1,0.4,0.2c0.2,0.1,0.3,0.1,0.5,0.2c0,0.2,0,0.3,0,0.5C26.9,33.5,26.7,33.5,26.5,33.5 M22,32.2c0-0.1,0-0.1,0-0.1   c0.1,0,0.3,0,0.5,0.1c0,0,0.1,0,0.1,0c-0.1,0-0.1,0.1-0.2,0.1c0,0-0.1,0-0.1,0C22.1,32.2,22.1,32.2,22,32.2 M28.4,31.1   c0-0.1,0-0.2-0.1-0.3c0-1,0-2.1,0-3.1c0-0.1,0.1-0.2,0.1-0.3c0.2,0,0.4,0.1,0.5,0.1c0,1.3,0,2.5,0,3.8   C28.8,31.2,28.6,31.2,28.4,31.1 M26.1,28.7c-0.3-0.1-0.6-0.1-0.9-0.2c0-1.2,0-2.4,0-3.5c0.2,0,0.4,0.1,0.6,0.1c0,1.1,0,2.2,0,3.4   c0.3,0.1,0.6,0.1,0.9,0.2c0.1,0,0.3,0,0.4,0.1c-0.1,0-0.2,0.1-0.3,0.1c-0.1,0-0.1,0-0.2,0C26.5,28.7,26.3,28.7,26.1,28.7 M30,27.5   c0-0.1,0-0.1-0.1-0.2c0-0.7,0-1.4,0-2.1c-2.7-0.4-5.3-1-8-1.5c0-0.1,0-0.1,0-0.2c2.8,0.6,5.7,1.2,8.5,1.7c0,0.8,0,1.6,0,2.4   C30.3,27.5,30.2,27.5,30,27.5"/>
	<path class="st5" d="M38.9,34.8c0.7-0.5,1.1-1.3,1.1-2.3c0-1.1,0-2.2,0-3.4c0-0.6,0-1,0.1-1.2c0.1-0.3,0.2-0.4,0.4-0.5   c0.2-0.1,0.4-0.2,0.6-0.2c0.1,0,0.2,0,0.3,0c-0.1,0-0.2,0.1-0.3,0.1c-0.2,0.1-0.3,0.3-0.4,0.5c-0.1,0.3-0.1,0.7-0.1,1.2   c0,1.1,0,2.2,0,3.4c0,1-0.4,1.7-1.1,2.3c-0.5,0.4-1.1,0.6-1.9,0.6C38.1,35.2,38.6,35.1,38.9,34.8 M36.7,34.6   c-0.8-0.1-1.4-0.4-1.8-0.8c-0.4-0.5-0.6-1.1-0.6-2c0-1.5,0-3,0-4.5c0-0.1,0-0.3,0.1-0.4c0.1-0.1,0.2-0.2,0.3-0.2c0.2,0,0.3,0,0.5,0   h0c-0.1,0-0.2,0.1-0.2,0.2c-0.1,0.1-0.1,0.2-0.1,0.4c0,1.5,0,3,0,4.5c0,0.9,0.2,1.6,0.6,2c0.4,0.5,1,0.7,1.8,0.8c0.2,0,0.3,0,0.5,0   c-0.2,0.1-0.4,0.1-0.6,0.1C36.9,34.6,36.8,34.6,36.7,34.6 M41.7,26.7c-1.2-0.1-2.4-0.2-3.6-0.4c0,0,0-0.1,0-0.1   c1.4,0.2,2.8,0.3,4.2,0.4c0,0.2,0,0.3,0,0.5c-0.1,0-0.3,0-0.6,0h0C41.7,27,41.7,26.8,41.7,26.7 M35.7,26.5c-0.1,0-0.1,0-0.1,0   c0-0.1,0-0.3,0-0.4c-1.5-0.2-3-0.4-4.4-0.6c0-0.1,0-0.1,0-0.2c1.7,0.3,3.3,0.5,5,0.7c0,0.2,0,0.3,0,0.5   C36,26.5,35.9,26.5,35.7,26.5"/>
	<path class="st5" d="M46,38.2c0.4-0.1,0.8-0.3,1.2-0.5c0.3-0.2,0.6-0.5,0.8-0.9c0.2-0.4,0.3-0.8,0.3-1.2c0-2.4,0-4.8,0-7.1   c0-0.2,0-0.3,0.1-0.4s0.2-0.2,0.4-0.2c0.2,0,0.3-0.1,0.4-0.1c0.1,0,0.2,0,0.4,0c-0.1,0-0.2,0-0.2,0c-0.2,0-0.3,0.1-0.4,0.2   c-0.1,0.1-0.1,0.3-0.1,0.4c0,2.4,0,4.8,0,7.1c0,0.5-0.1,0.9-0.3,1.3c-0.2,0.4-0.5,0.7-0.8,0.9c-0.4,0.2-0.7,0.4-1.2,0.5   c-0.2,0.1-0.5,0.1-0.8,0.1C45.9,38.3,46,38.2,46,38.2 M44.1,37.7c-0.1,0-0.3,0-0.4-0.1c-0.1-0.1-0.2-0.1-0.3-0.2c0,0,0-0.1,0-0.1   c0.3-0.2,0.5-0.4,0.7-0.6c0.2-0.2,0.3-0.5,0.3-0.7c0-0.3-0.1-0.6-0.3-0.8c-0.2-0.2-0.6-0.4-0.9-0.4c0,0,0,0,0,0   c0.2-0.1,0.4-0.1,0.6-0.1c0.4,0,0.7,0.2,0.9,0.4c0.2,0.2,0.4,0.5,0.4,0.8c0,0.3-0.1,0.5-0.3,0.7c-0.2,0.2-0.4,0.4-0.7,0.6   c0,0,0,0.1,0,0.1c0,0.1,0.1,0.2,0.3,0.2c0.1,0.1,0.3,0.1,0.4,0.1c0,0,0.1,0,0.1,0c-0.2,0.1-0.3,0.1-0.5,0.1   C44.2,37.7,44.2,37.7,44.1,37.7 M49.6,27.1c-1.5-0.1-3.1-0.1-4.6-0.2c0,0,0-0.1,0-0.1c1.7,0.1,3.4,0.2,5.2,0.2c0,0.2,0,0.3,0,0.5   c-0.2,0-0.3,0-0.5,0c0,0-0.1,0-0.1,0C49.6,27.5,49.6,27.3,49.6,27.1"/>
	<path class="st5" d="M55.8,35.7c-0.2,0-0.3,0-0.6-0.1c-0.2,0-0.4-0.1-0.5-0.1c-0.2-0.1-0.3-0.2-0.4-0.3c-0.1-0.1-0.1-0.2-0.1-0.4   c0-2.1,0-4.3,0-6.4c0-0.1,0-0.3,0.1-0.4c0.1-0.1,0.2-0.2,0.4-0.3c0.1,0,0.3-0.1,0.5-0.1c0.2,0,0.3,0,0.4,0c-0.1,0-0.2,0-0.3,0.1   c-0.2,0.1-0.3,0.1-0.4,0.3c-0.1,0.1-0.1,0.2-0.1,0.4c0,2.1,0,4.3,0,6.4c0,0.2,0,0.3,0.1,0.4c0.1,0.1,0.2,0.2,0.3,0.3   c0.1,0,0.3,0.1,0.5,0.1c0.2,0,0.4,0.1,0.6,0.1c0,0.2,0,0.3,0,0.5c-0.2,0-0.4,0-0.6,0C55.8,36,55.8,35.9,55.8,35.7 M51,35.6   c0.1,0,0.3,0,0.4,0c0,0,0,0,0,0C51.4,35.6,51.2,35.7,51,35.6C51,35.6,51,35.6,51,35.6 M55.8,27.2c-1.6,0-3.2,0-4.8,0   c0,0,0-0.1,0-0.1c1.8,0,3.6,0.1,5.4,0c0,0.2,0,0.3,0,0.5c-0.1,0-0.3,0-0.5,0.1c0,0-0.1,0-0.1,0C55.8,27.5,55.8,27.4,55.8,27.2"/>
	<path class="st5" d="M60.6,35.6c-0.2,0-0.4-0.1-0.6-0.1c-0.3-0.1-0.5-0.1-0.6-0.2c-0.2-0.1-0.3-0.3-0.4-0.6   c-0.1-0.3-0.1-0.7-0.1-1.2c0-1.4,0-2.8,0-4.2c0.2,0.2,0.4,0.4,0.6,0.7c0,1.2,0,2.3,0,3.5c0,0.5,0,0.9,0.1,1.2   c0.1,0.3,0.2,0.5,0.4,0.6c0.1,0.1,0.3,0.2,0.6,0.2c0.3,0.1,0.5,0.1,0.6,0.1c0,0.2,0,0.3,0,0.5c-0.2,0-0.4,0-0.6,0   C60.6,35.9,60.6,35.8,60.6,35.6 M66.2,29.4c0-0.5,0-1,0.1-1.2c0.1-0.3,0.2-0.5,0.4-0.6c0.2-0.1,0.4-0.2,0.6-0.3   c0.2-0.1,0.4-0.1,0.5-0.1c0-0.2,0-0.3,0-0.5c-1.2,0.1-2.4,0.2-3.6,0.3c0,0,0,0,0,0c1.4-0.1,2.8-0.2,4.2-0.3c0,0.2,0,0.3,0,0.5   c-0.1,0-0.3,0.1-0.5,0.1c-0.2,0.1-0.5,0.2-0.6,0.3c-0.2,0.1-0.3,0.3-0.4,0.6c-0.1,0.3-0.1,0.7-0.1,1.2c0,2.1,0,4.3,0,6.4   c-0.2,0-0.4,0-0.6,0C66.2,33.6,66.2,31.5,66.2,29.4 M60.1,27.1c-1,0-2,0.1-3.1,0.1c0,0,0,0,0-0.1c1.2,0,2.4-0.1,3.7-0.1   c1.5,1.7,3.1,3.5,4.6,5.2c0,0.2,0,0.5,0,0.7C63.6,31,61.9,29.1,60.1,27.1"/>
	<path class="st5" d="M77.4,34.5c0.1-0.9,0.1-1.7,0.2-2.6c0-0.1,0.1-0.2,0.1-0.3c0.2,0,0.3-0.1,0.5-0.1c-0.1,0.9-0.1,1.9-0.2,2.8   c-1.7,0.3-3.4,0.5-5.1,0.7C74.4,34.9,75.9,34.7,77.4,34.5 M72.5,34.4c-0.1-0.1-0.2-0.2-0.2-0.3c0-0.1-0.1-0.4-0.1-0.6   c0-0.9,0-1.7,0-2.6c0.2,0,0.4,0,0.6-0.1c0,0.9,0,1.7,0,2.6c0,0.3,0,0.5,0.1,0.6c0,0.2,0.1,0.3,0.2,0.3c0.1,0.1,0.3,0.1,0.5,0.1   c0.1,0,0.3,0,0.4,0c-0.1,0-0.2,0-0.2,0c-0.3,0-0.6,0.1-0.8,0.1C72.8,34.5,72.7,34.4,72.5,34.4 M75.5,31.7c0-1.1,0-2.1,0-3.2   c0-0.1,0.1-0.2,0.1-0.3c0.2,0,0.4,0,0.5-0.1c0,1.3,0,2.5,0,3.8c-0.2,0-0.3,0.1-0.5,0.1C75.5,31.9,75.5,31.8,75.5,31.7 M73.2,30.7   c0,0,0.1,0,0.1,0c-0.1,0-0.2,0-0.3,0C73.1,30.7,73.1,30.7,73.2,30.7 M72.2,26.7c0.2,0,0.4,0,0.6-0.1c0,1.2,0,2.3,0,3.5   c0.1,0,0.1,0,0.2,0c-0.3,0-0.5,0.1-0.8,0.1C72.2,29,72.2,27.9,72.2,26.7 M76.9,27.7c0-0.7,0-1.4,0-2.1c0.2,0,0.4-0.1,0.6-0.1   c0,0.8,0,1.5,0,2.3c-0.2,0-0.4,0-0.5,0.1C77,27.8,76.9,27.7,76.9,27.7 M73.6,26.5c0.1,0,0.2,0,0.3,0c-0.3,0-0.6,0.1-0.8,0.1   C73.3,26.6,73.5,26.6,73.6,26.5 M69,26.5c1.3-0.1,2.6-0.3,3.9-0.4C71.6,26.2,70.3,26.4,69,26.5C69,26.5,69,26.5,69,26.5"/>
	<path class="st5" d="M80.6,33.9c1.6-0.3,3.2-0.6,4.7-0.9c0-0.2,0-0.3,0-0.5c-0.2,0-0.3,0-0.6,0c-0.2,0-0.4,0-0.5,0   c-0.2,0-0.3-0.1-0.3-0.2c-0.1-0.1-0.1-0.2-0.1-0.4c0-2.4,0-4.7,0-7.1c0.1,0,0.2,0,0.3-0.1c0.2,0,0.3-0.1,0.5-0.1   c0.2,0,0.4-0.1,0.5-0.1c0,0,0,0,0,0c-0.2,0-0.4,0.1-0.5,0.1c-0.1,0-0.2,0-0.3,0.1c0,2.4,0,4.7,0,7.1c0,0.2,0,0.3,0.1,0.4   c0.1,0.1,0.2,0.2,0.3,0.2c0.1,0,0.3,0,0.5,0c0.2,0,0.4,0,0.6,0c0,0.2,0,0.3,0,0.5C84.1,33.3,82.4,33.6,80.6,33.9   C80.6,33.9,80.6,33.9,80.6,33.9 M78.6,27.6c0.1-0.4,0.3-0.7,0.6-1.2c0.3-0.5,0.6-0.8,0.8-0.9c0.1,0,0.3-0.1,0.5-0.1   c0.2-0.1,0.4-0.1,0.5-0.1c0.1,0,0.2,0,0.3-0.1c0,0,0,0,0,0c-0.1,0-0.2,0-0.3,0.1c-0.2,0.1-0.4,0.1-0.5,0.1   c-0.3,0.1-0.5,0.4-0.8,0.9c-0.3,0.5-0.5,0.9-0.7,1.3c-0.2,0-0.4,0.1-0.5,0.1C78.6,27.8,78.6,27.7,78.6,27.6 M87.3,26   c0-0.8,0-1.6,0-2.4c0.2,0,0.4-0.1,0.6-0.1c0,0.9,0,1.7,0,2.6c-0.2,0-0.4,0.1-0.5,0.1C87.3,26.1,87.3,26.1,87.3,26"/>
	<g>
		<defs>
			<path id="SVGID_4_" d="M26.5,33.5C26.5,33.5,26.5,33.5,26.5,33.5C26.5,33.5,26.5,33.5,26.5,33.5L26.5,33.5"/>
		</defs>
		<clipPath id="SVGID_5_">
			<use xlink:href="#SVGID_4_" style="overflow:visible;"/>
		</clipPath>
		<g style="clip-path:url(#SVGID_5_);">
			
				<image style="overflow:visible;" width="3" height="4" xlink:href="8614B3B0.jpg" transform="matrix(8.669607e-002 0 0 8.669608e-002 26.4087 33.3091)">
			</image>
		</g>
	</g>
	<g>
		<defs>
			<path id="SVGID_6_" d="M26.5,33.5c0-0.1,0-0.2,0-0.3C26.5,33.3,26.5,33.4,26.5,33.5L26.5,33.5 M25.2,32c0-1,0-2,0-3     c0.2,0,0.4,0.1,0.6,0.1c-0.2,0-0.4-0.1-0.6-0.1C25.2,30,25.2,31,25.2,32L25.2,32 M28.3,30.8c0-1,0-2.1,0-3.1     C28.3,28.7,28.3,29.7,28.3,30.8L28.3,30.8 M25.2,28.5c0-1.2,0-2.4,0-3.5c0.2,0,0.4,0.1,0.6,0.1c-0.2,0-0.4-0.1-0.6-0.1     C25.2,26.1,25.2,27.3,25.2,28.5L25.2,28.5 M29.9,27.3c0-0.7,0-1.4,0-2.1C29.9,25.9,29.9,26.6,29.9,27.3L29.9,27.3"/>
		</defs>
		<clipPath id="SVGID_7_">
			<use xlink:href="#SVGID_6_" style="overflow:visible;"/>
		</clipPath>
		<g style="clip-path:url(#SVGID_7_);">
			
				<image style="overflow:visible;" width="58" height="101" xlink:href="8614B3B1.jpg" transform="matrix(8.669607e-002 0 0 8.669608e-002 25.0234 24.8228)">
			</image>
		</g>
	</g>
	<path class="st4" d="M21.4,32.6c0-0.2,0-0.3,0-0.5c0.1,0,0.3,0,0.5,0.1c0.2,0,0.4,0,0.4,0c0.2,0,0.3-0.1,0.3-0.2   c0.1-0.1,0.1-0.2,0.1-0.4c0-2.1,0-4.2,0-6.4c0-0.1,0-0.3-0.1-0.4c-0.1-0.1-0.2-0.2-0.3-0.3c-0.1-0.1-0.3-0.2-0.5-0.3   c-0.2-0.1-0.4-0.1-0.5-0.2c0-0.2,0-0.3,0-0.5c2.8,0.6,5.7,1.2,8.5,1.7c0,0.8,0,1.6,0,2.4c-0.2,0-0.3-0.1-0.5-0.1   c-0.1-0.4-0.4-0.8-0.7-1.2c-0.3-0.5-0.6-0.7-0.9-0.8c-0.1,0-0.3-0.1-0.5-0.1c-0.2-0.1-0.4-0.1-0.6-0.1c-0.5-0.1-1-0.2-1.5-0.3   c0,1.2,0,2.4,0,3.5c0.3,0.1,0.6,0.1,0.9,0.2c0.3,0.1,0.5,0.1,0.7,0c0.2,0,0.4-0.1,0.5-0.2c0.1-0.1,0.2-0.2,0.3-0.5   c0.1-0.2,0.2-0.4,0.2-0.6c0.2,0,0.3,0.1,0.5,0.1c0,1.3,0,2.5,0,3.8c-0.2,0-0.3-0.1-0.5-0.1c0-0.2-0.1-0.4-0.2-0.7   c-0.1-0.3-0.2-0.5-0.3-0.6c-0.1-0.2-0.3-0.3-0.5-0.4c-0.2-0.1-0.4-0.2-0.7-0.2c-0.3-0.1-0.6-0.1-0.9-0.2c0,1,0,2,0,3   c0,0.2,0,0.3,0.1,0.4c0.1,0.1,0.2,0.2,0.3,0.3c0.1,0.1,0.2,0.1,0.4,0.2c0.2,0.1,0.3,0.1,0.5,0.2c0,0.2,0,0.3,0,0.5   C24.8,33.3,23.1,33,21.4,32.6"/>
	<g>
		<defs>
			<path id="SVGID_8_" d="M31.8,32c0,0.1,0,0.1,0,0.2C31.9,32.1,31.9,32.1,31.8,32"/>
		</defs>
		<clipPath id="SVGID_9_">
			<use xlink:href="#SVGID_8_" style="overflow:visible;"/>
		</clipPath>
		<g transform="matrix(1 0 0 1 -1.907349e-006 0)" style="clip-path:url(#SVGID_9_);">
			
				<image style="overflow:visible;" width="4" height="4" xlink:href="8614B3B7.jpg" transform="matrix(8.669607e-002 0 0 8.669608e-002 31.6914 31.9243)">
			</image>
		</g>
	</g>
	<g>
		<defs>
			<path id="SVGID_10_" d="M37.2,35.4c0.2,0,0.3,0,0.5-0.1C37.5,35.4,37.3,35.4,37.2,35.4L37.2,35.4"/>
		</defs>
		<clipPath id="SVGID_11_">
			<use xlink:href="#SVGID_10_" style="overflow:visible;"/>
		</clipPath>
		<g style="clip-path:url(#SVGID_11_);">
			
				<image style="overflow:visible;" width="8" height="4" xlink:href="8614B3B2.jpg" transform="matrix(8.669607e-002 0 0 8.669608e-002 37.0669 35.2148)">
			</image>
		</g>
	</g>
	<path class="st4" d="M36.1,35.4c-1.4-0.2-2.4-0.6-3.2-1.3c-0.8-0.7-1.1-1.6-1.1-2.6c0-1.5,0-3.1,0-4.6c0-0.1,0-0.3-0.1-0.4   c-0.1-0.1-0.2-0.2-0.3-0.3c-0.1-0.1-0.3-0.1-0.4-0.2c-0.2-0.1-0.3-0.1-0.4-0.1c0-0.2,0-0.3,0-0.5c1.7,0.3,3.3,0.5,5,0.7   c0,0.2,0,0.3,0,0.5c-0.1,0-0.3,0-0.4,0c-0.2,0-0.3,0-0.5,0c-0.2,0-0.3,0.1-0.3,0.2c-0.1,0.1-0.1,0.2-0.1,0.4c0,1.5,0,3,0,4.5   c0,0.9,0.2,1.6,0.6,2c0.4,0.5,1,0.7,1.8,0.8c0.8,0.1,1.4-0.1,1.8-0.5c0.4-0.4,0.7-1,0.7-1.9c0-1,0-2,0-3.1c0-0.5,0-0.9-0.1-1.2   c-0.1-0.3-0.2-0.5-0.4-0.6c-0.1-0.1-0.3-0.2-0.6-0.3c-0.3-0.1-0.5-0.2-0.6-0.2c0-0.2,0-0.3,0-0.5c1.4,0.2,2.8,0.3,4.2,0.4   c0,0.2,0,0.3,0,0.5c-0.1,0-0.3,0-0.6,0c-0.2,0-0.5,0.1-0.6,0.2c-0.2,0.1-0.3,0.3-0.4,0.5C40,28.2,40,28.6,40,29.2   c0,1.1,0,2.2,0,3.4c0,1-0.4,1.7-1.1,2.3c-0.6,0.4-1.3,0.6-2.1,0.6C36.6,35.4,36.3,35.4,36.1,35.4"/>
	<path class="st4" d="M44.6,38.3c-0.8-0.1-1.5-0.3-2.1-0.7c-0.5-0.4-0.8-1-0.8-1.6c0-0.4,0.1-0.7,0.4-0.9c0.2-0.2,0.6-0.3,1-0.3   c0.4,0,0.7,0.2,0.9,0.4c0.2,0.2,0.3,0.5,0.3,0.8c0,0.3-0.1,0.5-0.3,0.7c-0.2,0.2-0.4,0.4-0.7,0.6c0,0,0,0.1,0,0.1   c0,0.1,0.1,0.2,0.3,0.2c0.1,0.1,0.3,0.1,0.4,0.1c0.5,0,1-0.1,1.3-0.5c0.3-0.3,0.5-0.9,0.5-1.6c0-2.4,0-4.8,0-7.3   c0-0.1,0-0.3-0.1-0.4c-0.1-0.1-0.2-0.2-0.4-0.3c-0.1-0.1-0.3-0.1-0.5-0.2c-0.2-0.1-0.4-0.1-0.5-0.1c0-0.2,0-0.3,0-0.5   c1.7,0.1,3.5,0.2,5.2,0.2c0,0.2,0,0.3,0,0.5c-0.2,0-0.3,0-0.5,0c-0.1,0-0.3,0-0.4,0.1c-0.2,0-0.3,0.1-0.4,0.2s-0.1,0.3-0.1,0.4   c0,2.4,0,4.8,0,7.1c0,0.5-0.1,0.9-0.3,1.2c-0.2,0.4-0.5,0.7-0.8,0.9c-0.4,0.2-0.7,0.4-1.2,0.5c-0.3,0.1-0.7,0.1-1.1,0.1   C44.9,38.4,44.8,38.3,44.6,38.3"/>
	<path class="st4" d="M50.4,36.2c0-0.2,0-0.3,0-0.5c0.1,0,0.3,0,0.5,0c0.2,0,0.4,0,0.5-0.1c0.2-0.1,0.3-0.1,0.3-0.2   c0.1-0.1,0.1-0.2,0.1-0.4c0-2.1,0-4.3,0-6.4c0-0.1,0-0.3-0.1-0.4c-0.1-0.1-0.2-0.2-0.4-0.3c-0.1,0-0.3-0.1-0.5-0.1   c-0.2,0-0.4-0.1-0.6-0.1c0-0.2,0-0.3,0-0.5c1.8,0,3.6,0.1,5.4,0c0,0.2,0,0.3,0,0.5c-0.1,0-0.3,0-0.5,0.1c-0.2,0-0.4,0.1-0.5,0.1   c-0.2,0.1-0.3,0.1-0.4,0.3c-0.1,0.1-0.1,0.3-0.1,0.4c0,2.1,0,4.3,0,6.4c0,0.2,0,0.3,0.1,0.4c0.1,0.1,0.2,0.2,0.4,0.3   c0.1,0,0.3,0.1,0.5,0.1c0.2,0,0.4,0.1,0.6,0.1c0,0.2,0,0.3,0,0.5c-0.5,0-1,0-1.5,0C53,36.2,51.7,36.2,50.4,36.2"/>
	<g>
		<defs>
			<path id="SVGID_12_" d="M58.4,36.2c0.8,0,1.5,0,2.3-0.1c0,0,0,0,0-0.1c0,0,0,0,0,0.1C59.9,36.1,59.1,36.2,58.4,36.2L58.4,36.2"/>
		</defs>
		<clipPath id="SVGID_13_">
			<use xlink:href="#SVGID_12_" style="overflow:visible;"/>
		</clipPath>
		<g style="clip-path:url(#SVGID_13_);">
			
				<image style="overflow:visible;" width="30" height="5" xlink:href="8614B3B3.jpg" transform="matrix(8.669607e-002 0 0 8.669608e-002 58.2021 35.9067)">
			</image>
		</g>
	</g>
	<g>
		<defs>
			<path id="SVGID_14_" d="M65.6,35.9c0.2,0,0.3,0,0.5,0c0,0,0,0,0,0c0,0,0,0,0,0C66,35.8,65.8,35.8,65.6,35.9L65.6,35.9 M62.5,33.2     c0.1,0.2,0.3,0.3,0.4,0.4C62.8,33.5,62.7,33.4,62.5,33.2"/>
		</defs>
		<clipPath id="SVGID_15_">
			<use xlink:href="#SVGID_14_" style="overflow:visible;"/>
		</clipPath>
		<g style="clip-path:url(#SVGID_15_);">
			
				<image style="overflow:visible;" width="45" height="33" xlink:href="8614B3BE.jpg" transform="matrix(8.669607e-002 0 0 8.669608e-002 62.3604 33.1367)">
			</image>
		</g>
	</g>
	<g>
		<defs>
			<path id="SVGID_16_" d="M58.9,33.5c0-1.4,0-2.8,0-4.2c0.2,0.2,0.4,0.4,0.6,0.7c-0.2-0.2-0.4-0.4-0.6-0.7     C58.9,30.7,58.9,32.1,58.9,33.5L58.9,33.5"/>
		</defs>
		<clipPath id="SVGID_17_">
			<use xlink:href="#SVGID_16_" style="overflow:visible;"/>
		</clipPath>
		<g transform="matrix(1 0 0 1 -3.814697e-006 -1.907349e-006)" style="clip-path:url(#SVGID_17_);">
			
				<image style="overflow:visible;" width="10" height="51" xlink:href="8614B3BF.jpg" transform="matrix(8.669607e-002 0 0 8.669608e-002 58.8071 29.1509)">
			</image>
		</g>
	</g>
	<path class="st4" d="M56.5,35.7c0.2,0,0.4,0,0.6-0.1c0.2-0.1,0.4-0.1,0.6-0.2c0.2-0.1,0.3-0.3,0.4-0.6c0.1-0.3,0.1-0.7,0.1-1.3   c0-1.4,0-2.9,0-4.3c0-0.2,0-0.4-0.1-0.6c-0.1-0.2-0.2-0.3-0.3-0.5c-0.2-0.1-0.3-0.3-0.5-0.3c-0.2-0.1-0.4-0.1-0.7-0.2   c0-0.2,0-0.3,0-0.5c1.2,0,2.4,0,3.7-0.1c1.8,2,3.5,3.9,5.2,5.8c0-1.1,0-2.3,0-3.4c0-0.5,0-0.9-0.1-1.2c-0.1-0.3-0.2-0.4-0.4-0.6   c-0.1-0.1-0.3-0.2-0.6-0.2c-0.3-0.1-0.5-0.1-0.6-0.1c0-0.2,0-0.3,0-0.5c1.4-0.1,2.8-0.2,4.2-0.3c0,0.2,0,0.3,0,0.5   c-0.1,0-0.3,0.1-0.5,0.1c-0.2,0.1-0.4,0.2-0.6,0.3c-0.2,0.1-0.3,0.3-0.4,0.6c-0.1,0.3-0.1,0.7-0.1,1.2c0,2.2,0,4.3,0,6.5   c-0.4,0-0.8,0.1-1.2,0.1c-2-2.2-4-4.4-6-6.7c0,1.4,0,2.8,0,4.2c0,0.5,0,0.9,0.1,1.2c0.1,0.3,0.2,0.5,0.4,0.6   c0.1,0.1,0.3,0.2,0.6,0.2c0.3,0.1,0.5,0.1,0.6,0.1c0,0.2,0,0.3,0,0.5c-1.4,0.1-2.8,0.1-4.2,0.1C56.5,36.1,56.5,35.9,56.5,35.7"/>
	<g>
		<defs>
			<path id="SVGID_18_" d="M69.5,35.5c1.1-0.1,2.3-0.2,3.4-0.4C71.8,35.2,70.6,35.4,69.5,35.5L69.5,35.5"/>
		</defs>
		<clipPath id="SVGID_19_">
			<use xlink:href="#SVGID_18_" style="overflow:visible;"/>
		</clipPath>
		<g style="clip-path:url(#SVGID_19_);">
			
				<image style="overflow:visible;" width="42" height="7" xlink:href="8614B3B4.jpg" transform="matrix(8.669607e-002 0 0 8.669608e-002 69.375 34.9575)">
			</image>
		</g>
	</g>
	<g>
		<defs>
			<path id="SVGID_20_" d="M75.5,31.7c0-1.1,0-2.1,0-3.2C75.5,29.6,75.5,30.6,75.5,31.7L75.5,31.7"/>
		</defs>
		<clipPath id="SVGID_21_">
			<use xlink:href="#SVGID_20_" style="overflow:visible;"/>
		</clipPath>
		<g style="clip-path:url(#SVGID_21_);">
			
				<image style="overflow:visible;" width="3" height="40" xlink:href="8614B3B5.jpg" transform="matrix(8.669607e-002 0 0 8.669608e-002 75.3525 28.3721)">
			</image>
		</g>
	</g>
	<g>
		<defs>
			<path id="SVGID_22_" d="M76.9,27.7c0-0.7,0-1.4,0-2.1C76.9,26.2,76.9,27,76.9,27.7L76.9,27.7"/>
		</defs>
		<clipPath id="SVGID_23_">
			<use xlink:href="#SVGID_22_" style="overflow:visible;"/>
		</clipPath>
		<g style="clip-path:url(#SVGID_23_);">
			
				<image style="overflow:visible;" width="3" height="27" xlink:href="60FDF8CF.jpg" transform="matrix(8.669607e-002 0 0 8.669608e-002 76.8252 25.4263)">
			</image>
		</g>
	</g>
	<path class="st4" d="M68.4,35.1c0.1,0,0.3-0.1,0.5-0.1c0.2,0,0.4-0.1,0.5-0.1c0.2-0.1,0.3-0.2,0.3-0.3c0.1-0.1,0.1-0.3,0.1-0.4   c0-2.1,0-4.2,0-6.4c0-0.2,0-0.3-0.1-0.4c-0.1-0.1-0.2-0.2-0.4-0.2c-0.1,0-0.3-0.1-0.5-0.1c-0.2,0-0.4,0-0.5,0c0-0.2,0-0.3,0-0.5   c2.8-0.3,5.7-0.6,8.5-1.1c0,0.8,0,1.5,0,2.3c-0.2,0-0.4,0-0.5,0.1c-0.1-0.3-0.4-0.6-0.7-1c-0.3-0.3-0.6-0.5-1-0.5   c-0.1,0-0.3,0-0.6,0c-0.2,0-0.4,0-0.6,0.1c-0.5,0.1-0.9,0.1-1.4,0.2c0,1.2,0,2.3,0,3.5c0.3,0,0.7-0.1,1-0.1c0.3,0,0.5-0.1,0.7-0.2   c0.2-0.1,0.4-0.2,0.6-0.4c0.1-0.1,0.2-0.3,0.3-0.6c0.1-0.3,0.2-0.5,0.2-0.7c0.2,0,0.4,0,0.5-0.1c0,1.3,0,2.5,0,3.8   c-0.2,0-0.3,0-0.5,0.1c0-0.2-0.1-0.4-0.2-0.6c-0.1-0.3-0.2-0.4-0.3-0.5c-0.1-0.1-0.3-0.2-0.5-0.2c-0.2,0-0.4,0-0.7,0   c-0.3,0-0.6,0.1-1,0.1c0,0.9,0,1.7,0,2.6c0,0.3,0,0.5,0.1,0.6c0,0.2,0.1,0.3,0.2,0.3c0.1,0.1,0.3,0.1,0.5,0.1c0.2,0,0.5,0,0.8-0.1   c0.2,0,0.3,0,0.6-0.1c0.2,0,0.4-0.1,0.6-0.1c0.2,0,0.4-0.1,0.5-0.2c0.2-0.1,0.3-0.1,0.4-0.2c0.2-0.2,0.5-0.6,0.7-1.1   c0.3-0.5,0.4-0.8,0.5-1c0.2,0,0.3-0.1,0.5-0.1c-0.1,0.9-0.1,1.9-0.2,2.8c-3,0.5-6,0.8-9,1.1C68.4,35.4,68.4,35.2,68.4,35.1"/>
	<g>
		<defs>
			<path id="SVGID_24_" d="M80.6,33.9c1.6-0.3,3.2-0.6,4.7-0.9c0-0.2,0-0.3,0-0.5c0,0.2,0,0.3,0,0.5C83.7,33.3,82.2,33.6,80.6,33.9     L80.6,33.9"/>
		</defs>
		<clipPath id="SVGID_25_">
			<use xlink:href="#SVGID_24_" style="overflow:visible;"/>
		</clipPath>
		<g style="clip-path:url(#SVGID_25_);">
			
				<image style="overflow:visible;" width="57" height="20" xlink:href="60FDF8CD.jpg" transform="matrix(8.669607e-002 0 0 8.669608e-002 80.4648 32.3564)">
			</image>
		</g>
	</g>
	<g>
		<defs>
			<path id="SVGID_26_" d="M78.6,27.6c0.1-0.4,0.3-0.7,0.6-1.2c0.3-0.5,0.6-0.8,0.8-0.9c0.1,0,0.3-0.1,0.5-0.1     c0.2-0.1,0.4-0.1,0.5-0.1c0.1,0,0.2,0,0.3-0.1c-0.1,0-0.2,0-0.3,0.1c-0.2,0-0.3,0.1-0.5,0.1c-0.2,0-0.4,0.1-0.5,0.1     c-0.3,0.1-0.5,0.4-0.8,0.9C79,26.9,78.8,27.3,78.6,27.6L78.6,27.6"/>
		</defs>
		<clipPath id="SVGID_27_">
			<use xlink:href="#SVGID_26_" style="overflow:visible;"/>
		</clipPath>
		<g transform="matrix(1 0 0 1 0 -1.907349e-006)" style="clip-path:url(#SVGID_27_);">
			
				<image style="overflow:visible;" width="36" height="30" xlink:href="60FDF8CB.jpg" transform="matrix(8.669607e-002 0 0 8.669608e-002 78.4692 25.165)">
			</image>
		</g>
	</g>
	<path class="st4" d="M80,33.5c0.1,0,0.3-0.1,0.6-0.1c0.2-0.1,0.4-0.1,0.5-0.2c0.2-0.1,0.3-0.2,0.3-0.3c0.1-0.1,0.1-0.3,0.1-0.4   c0-2.4,0-4.8,0-7.1c-0.1,0-0.2,0-0.3,0.1c-0.2,0-0.3,0.1-0.5,0.1c-0.2,0-0.4,0.1-0.5,0.1c-0.3,0.1-0.5,0.4-0.8,0.9   c-0.3,0.5-0.5,0.9-0.7,1.3c-0.2,0-0.3,0.1-0.5,0.1c0-0.9,0-1.7,0-2.6c3.1-0.5,6.2-1.1,9.2-1.8c0,0.9,0,1.7,0,2.6   c-0.2,0-0.3,0.1-0.5,0.1c-0.1-0.4-0.4-0.7-0.7-1.1c-0.3-0.4-0.6-0.5-0.8-0.5c-0.1,0-0.3,0-0.5,0.1c-0.2,0-0.4,0.1-0.5,0.1   c-0.1,0-0.2,0-0.3,0.1c0,2.4,0,4.7,0,7.1c0,0.2,0,0.3,0.1,0.4c0.1,0.1,0.2,0.2,0.3,0.2c0.1,0,0.3,0,0.5,0c0.2,0,0.4,0,0.6,0   c0,0.2,0,0.3,0,0.5c-1.8,0.4-3.5,0.7-5.3,1C80,33.9,80,33.7,80,33.5"/>
</g>
</svg>