<?xml version="1.0" standalone="no"?>
<!DOCTYPE svg PUBLIC "-//W3C//DTD SVG 20010904//EN"
 "http://www.w3.org/TR/2001/REC-SVG-20010904/DTD/svg10.dtd">
<svg version="1.0" xmlns="http://www.w3.org/2000/svg"
 width="5504.000000pt" height="6076.000000pt" viewBox="0 0 5504.000000 6076.000000"
 preserveAspectRatio="xMidYMid meet">

<g transform="translate(0.000000,6076.000000) scale(0.100000,-0.100000)"
fill="#000000" stroke="none">
<path d="M26945 56490 c410 -410 520 -517 425 -412 -89 97 -856 862 -865 862
-5 0 193 -202 440 -450z"/>
<path d="M23640 54045 c13 -14 26 -25 28 -25 3 0 -5 11 -18 25 -13 14 -26 25
-28 25 -3 0 5 -11 18 -25z"/>
<path d="M23690 53985 c13 -14 26 -25 28 -25 3 0 -5 11 -18 25 -13 14 -26 25
-28 25 -3 0 5 -11 18 -25z"/>
<path d="M24048 52113 c7 -3 16 -2 19 1 4 3 -2 6 -13 5 -11 0 -14 -3 -6 -6z"/>
<path d="M24098 52103 c6 -2 18 -2 25 0 6 3 1 5 -13 5 -14 0 -19 -2 -12 -5z"/>
<path d="M24158 52093 c6 -2 18 -2 25 0 6 3 1 5 -13 5 -14 0 -19 -2 -12 -5z"/>
<path d="M24228 52083 c7 -3 16 -2 19 1 4 3 -2 6 -13 5 -11 0 -14 -3 -6 -6z"/>
<path d="M24288 52073 c7 -3 16 -2 19 1 4 3 -2 6 -13 5 -11 0 -14 -3 -6 -6z"/>
<path d="M24348 52063 c7 -3 16 -2 19 1 4 3 -2 6 -13 5 -11 0 -14 -3 -6 -6z"/>
<path d="M24408 52053 c7 -3 16 -2 19 1 4 3 -2 6 -13 5 -11 0 -14 -3 -6 -6z"/>
<path d="M24468 52043 c7 -3 16 -2 19 1 4 3 -2 6 -13 5 -11 0 -14 -3 -6 -6z"/>
<path d="M24528 52033 c6 -2 18 -2 25 0 6 3 1 5 -13 5 -14 0 -19 -2 -12 -5z"/>
<path d="M24598 52023 c7 -3 16 -2 19 1 4 3 -2 6 -13 5 -11 0 -14 -3 -6 -6z"/>
<path d="M24658 52013 c7 -3 16 -2 19 1 4 3 -2 6 -13 5 -11 0 -14 -3 -6 -6z"/>
<path d="M24718 52003 c7 -3 16 -2 19 1 4 3 -2 6 -13 5 -11 0 -14 -3 -6 -6z"/>
<path d="M24778 51993 c7 -3 16 -2 19 1 4 3 -2 6 -13 5 -11 0 -14 -3 -6 -6z"/>
<path d="M24838 51983 c7 -3 16 -2 19 1 4 3 -2 6 -13 5 -11 0 -14 -3 -6 -6z"/>
<path d="M24898 51973 c7 -3 16 -2 19 1 4 3 -2 6 -13 5 -11 0 -14 -3 -6 -6z"/>
<path d="M25414 51695 c0 -82 2 -115 3 -72 2 43 2 110 0 150 -1 40 -3 5 -3
-78z"/>
<path d="M26439 51703 c10 -16 254 -478 541 -1028 288 -550 527 -1004 533
-1010 11 -12 -57 120 -638 1238 -236 454 -436 826 -443 827 -9 0 -7 -9 7 -27z"/>
<path d="M26728 51673 c7 -3 16 -2 19 1 4 3 -2 6 -13 5 -11 0 -14 -3 -6 -6z"/>
<path d="M26788 51663 c6 -2 18 -2 25 0 6 3 1 5 -13 5 -14 0 -19 -2 -12 -5z"/>
<path d="M26848 51653 c6 -2 18 -2 25 0 6 3 1 5 -13 5 -14 0 -19 -2 -12 -5z"/>
<path d="M26908 51643 c6 -2 18 -2 25 0 6 3 1 5 -13 5 -14 0 -19 -2 -12 -5z"/>
<path d="M26968 51633 c6 -2 18 -2 25 0 6 3 1 5 -13 5 -14 0 -19 -2 -12 -5z"/>
<path d="M27023 51623 c9 -2 23 -2 30 0 6 3 -1 5 -18 5 -16 0 -22 -2 -12 -5z"/>
<path d="M27083 51613 c9 -2 23 -2 30 0 6 3 -1 5 -18 5 -16 0 -22 -2 -12 -5z"/>
<path d="M27143 51603 c9 -2 23 -2 30 0 6 3 -1 5 -18 5 -16 0 -22 -2 -12 -5z"/>
<path d="M27200 51594 c8 -2 188 -33 400 -69 212 -36 396 -68 410 -71 17 -4
22 -2 15 5 -10 10 -790 142 -824 140 -13 -1 -13 -2 -1 -5z"/>
<path d="M21918 49753 c6 -2 18 -2 25 0 6 3 1 5 -13 5 -14 0 -19 -2 -12 -5z"/>
<path d="M21798 49743 c7 -3 16 -2 19 1 4 3 -2 6 -13 5 -11 0 -14 -3 -6 -6z"/>
<path d="M21577 49680 c3 -30 7 -57 9 -59 7 -8 2 64 -6 89 -6 16 -7 6 -3 -30z"/>
<path d="M21529 49693 c-13 -16 -12 -17 4 -4 9 7 17 15 17 17 0 8 -8 3 -21
-13z"/>
<path d="M21479 49653 c-13 -16 -12 -17 4 -4 9 7 17 15 17 17 0 8 -8 3 -21
-13z"/>
<path d="M21434 49618 l-19 -23 23 19 c12 11 22 21 22 23 0 8 -8 2 -26 -19z"/>
<path d="M27575 49540 c25 -49 47 -90 50 -90 3 0 -15 41 -40 90 -25 50 -47 90
-50 90 -3 0 15 -40 40 -90z"/>
<path d="M21593 49575 c0 -22 2 -30 4 -17 2 12 2 30 0 40 -3 9 -5 -1 -4 -23z"/>
<path d="M21389 49583 c-13 -16 -12 -17 4 -4 9 7 17 15 17 17 0 8 -8 3 -21
-13z"/>
<path d="M21339 49543 c-13 -16 -12 -17 4 -4 16 13 21 21 13 21 -2 0 -10 -8
-17 -17z"/>
<path d="M21294 49508 l-19 -23 23 19 c12 11 22 21 22 23 0 8 -8 2 -26 -19z"/>
<path d="M21603 49495 c0 -22 2 -30 4 -17 2 12 2 30 0 40 -3 9 -5 -1 -4 -23z"/>
<path d="M21249 49473 c-13 -16 -12 -17 4 -4 16 13 21 21 13 21 -2 0 -10 -8
-17 -17z"/>
<path d="M17880 48333 l-1115 -1118 1118 1115 c614 613 1117 1116 1117 1117 0
2 -1 3 -3 3 -1 0 -504 -503 -1117 -1117z"/>
<path d="M21199 49433 c-13 -16 -12 -17 4 -4 9 7 17 15 17 17 0 8 -8 3 -21
-13z"/>
<path d="M21612 49420 c0 -19 2 -27 5 -17 2 9 2 25 0 35 -3 9 -5 1 -5 -18z"/>
<path d="M21149 49393 c-13 -16 -12 -17 4 -4 16 13 21 21 13 21 -2 0 -10 -8
-17 -17z"/>
<path d="M21109 49363 c-13 -16 -12 -17 4 -4 9 7 17 15 17 17 0 8 -8 3 -21
-13z"/>
<path d="M27695 49310 c19 -38 38 -70 40 -70 3 0 -11 32 -30 70 -19 39 -38 70
-40 70 -3 0 11 -31 30 -70z"/>
<path d="M21622 49340 c0 -19 2 -27 5 -17 2 9 2 25 0 35 -3 9 -5 1 -5 -18z"/>
<path d="M21059 49323 c-13 -16 -12 -17 4 -4 9 7 17 15 17 17 0 8 -8 3 -21
-13z"/>
<path d="M21009 49283 c-13 -16 -12 -17 4 -4 16 13 21 21 13 21 -2 0 -10 -8
-17 -17z"/>
<path d="M32523 49276 c-23 -7 -56 -23 -75 -34 -18 -12 -369 -358 -780 -769
-848 -849 -803 -796 -803 -953 0 -73 4 -93 28 -141 32 -66 99 -132 165 -162
69 -32 207 -31 277 2 40 19 202 175 807 780 856 855 812 804 812 956 0 65 -4
90 -26 136 -57 124 -154 190 -287 196 -46 2 -93 -3 -118 -11z"/>
<path d="M21632 49260 c0 -14 2 -19 5 -12 2 6 2 18 0 25 -3 6 -5 1 -5 -13z"/>
<path d="M20964 49248 l-19 -23 23 19 c12 11 22 21 22 23 0 8 -8 2 -26 -19z"/>
<path d="M20919 49213 c-13 -16 -12 -17 4 -4 16 13 21 21 13 21 -2 0 -10 -8
-17 -17z"/>
<path d="M21642 49180 c0 -14 2 -19 5 -12 2 6 2 18 0 25 -3 6 -5 1 -5 -13z"/>
<path d="M20869 49173 c-13 -16 -12 -17 4 -4 9 7 17 15 17 17 0 8 -8 3 -21
-13z"/>
<path d="M20824 49138 l-19 -23 23 19 c12 11 22 21 22 23 0 8 -8 2 -26 -19z"/>
<path d="M27805 49100 c14 -27 28 -50 30 -50 3 0 -6 23 -20 50 -14 28 -28 50
-30 50 -3 0 6 -22 20 -50z"/>
<path d="M20779 49103 c-13 -16 -12 -17 4 -4 9 7 17 15 17 17 0 8 -8 3 -21
-13z"/>
<path d="M20729 49063 c-13 -16 -12 -17 4 -4 16 13 21 21 13 21 -2 0 -10 -8
-17 -17z"/>
<path d="M20679 49023 c-13 -16 -12 -17 4 -4 16 13 21 21 13 21 -2 0 -10 -8
-17 -17z"/>
<path d="M20639 48993 c-13 -16 -12 -17 4 -4 9 7 17 15 17 17 0 8 -8 3 -21
-13z"/>
<path d="M20589 48953 c-13 -16 -12 -17 4 -4 16 13 21 21 13 21 -2 0 -10 -8
-17 -17z"/>
<path d="M20539 48913 c-13 -16 -12 -17 4 -4 9 7 17 15 17 17 0 8 -8 3 -21
-13z"/>
<path d="M26066 48905 c-9 -26 -7 -32 5 -12 6 10 9 21 6 23 -2 3 -7 -2 -11
-11z"/>
<path d="M27915 48890 l15 -30 -42 5 c-64 7 -888 28 -893 23 -2 -2 209 -12
470 -21 354 -14 479 -15 492 -7 17 11 17 11 1 6 -13 -4 -22 4 -33 24 -9 17
-18 30 -21 30 -2 0 2 -13 11 -30z"/>
<path d="M26517 48903 c18 -2 50 -2 70 0 21 2 7 4 -32 4 -38 0 -55 -2 -38 -4z"/>
<path d="M20494 48878 l-19 -23 23 19 c12 11 22 21 22 23 0 8 -8 2 -26 -19z"/>
<path d="M26783 48893 c31 -2 83 -2 115 0 31 2 5 3 -58 3 -63 0 -89 -1 -57 -3z"/>
<path d="M26046 48855 c-9 -26 -7 -32 5 -12 6 10 9 21 6 23 -2 3 -7 -2 -11
-11z"/>
<path d="M20449 48843 c-13 -16 -12 -17 4 -4 9 7 17 15 17 17 0 8 -8 3 -21
-13z"/>
<path d="M20399 48803 c-13 -16 -12 -17 4 -4 9 7 17 15 17 17 0 8 -8 3 -21
-13z"/>
<path d="M26026 48805 c-9 -26 -7 -32 5 -12 6 10 9 21 6 23 -2 3 -7 -2 -11
-11z"/>
<path d="M20354 48768 l-19 -23 23 19 c12 11 22 21 22 23 0 8 -8 2 -26 -19z"/>
<path d="M26006 48755 c-9 -26 -7 -32 5 -12 6 10 9 21 6 23 -2 3 -7 -2 -11
-11z"/>
<path d="M20309 48733 c-13 -16 -12 -17 4 -4 9 7 17 15 17 17 0 8 -8 3 -21
-13z"/>
<path d="M25986 48705 c-9 -26 -7 -32 5 -12 6 10 9 21 6 23 -2 3 -7 -2 -11
-11z"/>
<path d="M20259 48693 c-13 -16 -12 -17 4 -4 9 7 17 15 17 17 0 8 -8 3 -21
-13z"/>
<path d="M20209 48653 c-13 -16 -12 -17 4 -4 16 13 21 21 13 21 -2 0 -10 -8
-17 -17z"/>
<path d="M25966 48655 c-9 -26 -7 -32 5 -12 6 10 9 21 6 23 -2 3 -7 -2 -11
-11z"/>
<path d="M20169 48623 c-13 -16 -12 -17 4 -4 9 7 17 15 17 17 0 8 -8 3 -21
-13z"/>
<path d="M25946 48605 c-9 -26 -7 -32 5 -12 6 10 9 21 6 23 -2 3 -7 -2 -11
-11z"/>
<path d="M20119 48583 c-13 -16 -12 -17 4 -4 9 7 17 15 17 17 0 8 -8 3 -21
-13z"/>
<path d="M20069 48543 c-13 -16 -12 -17 4 -4 9 7 17 15 17 17 0 8 -8 3 -21
-13z"/>
<path d="M20024 48508 l-19 -23 23 19 c12 11 22 21 22 23 0 8 -8 2 -26 -19z"/>
<path d="M19979 48473 c-13 -16 -12 -17 4 -4 9 7 17 15 17 17 0 8 -8 3 -21
-13z"/>
<path d="M19929 48433 c-13 -16 -12 -17 4 -4 9 7 17 15 17 17 0 8 -8 3 -21
-13z"/>
<path d="M19884 48398 l-19 -23 23 19 c12 11 22 21 22 23 0 8 -8 2 -26 -19z"/>
<path d="M19839 48363 c-13 -16 -12 -17 4 -4 9 7 17 15 17 17 0 8 -8 3 -21
-13z"/>
<path d="M19789 48323 c-13 -16 -12 -17 4 -4 9 7 17 15 17 17 0 8 -8 3 -21
-13z"/>
<path d="M19739 48283 c-13 -16 -12 -17 4 -4 16 13 21 21 13 21 -2 0 -10 -8
-17 -17z"/>
<path d="M19694 48248 l-19 -23 23 19 c12 11 22 21 22 23 0 8 -8 2 -26 -19z"/>
<path d="M19649 48213 c-13 -16 -12 -17 4 -4 9 7 17 15 17 17 0 8 -8 3 -21
-13z"/>
<path d="M19599 48173 c-13 -16 -12 -17 4 -4 9 7 17 15 17 17 0 8 -8 3 -21
-13z"/>
<path d="M19554 48138 l-19 -23 23 19 c21 18 27 26 19 26 -2 0 -12 -10 -23
-22z"/>
<path d="M19509 48103 c-13 -16 -12 -17 4 -4 9 7 17 15 17 17 0 8 -8 3 -21
-13z"/>
<path d="M19459 48063 c-13 -16 -12 -17 4 -4 16 13 21 21 13 21 -2 0 -10 -8
-17 -17z"/>
<path d="M19414 48028 l-19 -23 23 19 c12 11 22 21 22 23 0 8 -8 2 -26 -19z"/>
<path d="M19369 47993 c-13 -16 -12 -17 4 -4 16 13 21 21 13 21 -2 0 -10 -8
-17 -17z"/>
<path d="M19319 47953 c-13 -16 -12 -17 4 -4 16 13 21 21 13 21 -2 0 -10 -8
-17 -17z"/>
<path d="M19269 47913 c-13 -16 -12 -17 4 -4 9 7 17 15 17 17 0 8 -8 3 -21
-13z"/>
<path d="M23498 47923 c6 -2 18 -2 25 0 6 3 1 5 -13 5 -14 0 -19 -2 -12 -5z"/>
<path d="M19224 47878 l-19 -23 23 19 c12 11 22 21 22 23 0 8 -8 2 -26 -19z"/>
<path d="M19179 47843 c-13 -16 -12 -17 4 -4 9 7 17 15 17 17 0 8 -8 3 -21
-13z"/>
<path d="M19129 47803 c-13 -16 -12 -17 4 -4 9 7 17 15 17 17 0 8 -8 3 -21
-13z"/>
<path d="M19084 47768 l-19 -23 23 19 c12 11 22 21 22 23 0 8 -8 2 -26 -19z"/>
<path d="M19039 47733 c-13 -16 -12 -17 4 -4 9 7 17 15 17 17 0 8 -8 3 -21
-13z"/>
<path d="M18989 47693 c-13 -16 -12 -17 4 -4 9 7 17 15 17 17 0 8 -8 3 -21
-13z"/>
<path d="M18944 47658 l-19 -23 23 19 c12 11 22 21 22 23 0 8 -8 2 -26 -19z"/>
<path d="M18899 47623 c-13 -16 -12 -17 4 -4 9 7 17 15 17 17 0 8 -8 3 -21
-13z"/>
<path d="M18849 47583 c-13 -16 -12 -17 4 -4 9 7 17 15 17 17 0 8 -8 3 -21
-13z"/>
<path d="M18799 47543 c-13 -16 -12 -17 4 -4 9 7 17 15 17 17 0 8 -8 3 -21
-13z"/>
<path d="M18754 47508 l-19 -23 23 19 c21 18 27 26 19 26 -2 0 -12 -10 -23
-22z"/>
<path d="M18709 47473 c-13 -16 -12 -17 4 -4 9 7 17 15 17 17 0 8 -8 3 -21
-13z"/>
<path d="M18659 47433 c-13 -16 -12 -17 4 -4 9 7 17 15 17 17 0 8 -8 3 -21
-13z"/>
<path d="M18614 47398 l-19 -23 23 19 c12 11 22 21 22 23 0 8 -8 2 -26 -19z"/>
<path d="M18569 47363 c-13 -16 -12 -17 4 -4 9 7 17 15 17 17 0 8 -8 3 -21
-13z"/>
<path d="M18519 47323 c-13 -16 -12 -17 4 -4 9 7 17 15 17 17 0 8 -8 3 -21
-13z"/>
<path d="M18474 47288 l-19 -23 23 19 c12 11 22 21 22 23 0 8 -8 2 -26 -19z"/>
<path d="M18429 47253 c-13 -16 -12 -17 4 -4 9 7 17 15 17 17 0 8 -8 3 -21
-13z"/>
<path d="M18379 47213 c-13 -16 -12 -17 4 -4 9 7 17 15 17 17 0 8 -8 3 -21
-13z"/>
<path d="M18329 47173 c-13 -16 -12 -17 4 -4 16 13 21 21 13 21 -2 0 -10 -8
-17 -17z"/>
<path d="M18284 47138 l-19 -23 23 19 c21 18 27 26 19 26 -2 0 -12 -10 -23
-22z"/>
<path d="M16525 46980 c-82 -82 -147 -150 -145 -150 3 0 73 68 155 150 82 83
147 150 145 150 -3 0 -73 -67 -155 -150z"/>
<path d="M18239 47103 c-13 -16 -12 -17 4 -4 9 7 17 15 17 17 0 8 -8 3 -21
-13z"/>
<path d="M18189 47063 c-13 -16 -12 -17 4 -4 9 7 17 15 17 17 0 8 -8 3 -21
-13z"/>
<path d="M18144 47028 l-19 -23 23 19 c12 11 22 21 22 23 0 8 -8 2 -26 -19z"/>
<path d="M18099 46993 c-13 -16 -12 -17 4 -4 9 7 17 15 17 17 0 8 -8 3 -21
-13z"/>
<path d="M18049 46953 c-13 -16 -12 -17 4 -4 9 7 17 15 17 17 0 8 -8 3 -21
-13z"/>
<path d="M18004 46918 l-19 -23 23 19 c21 18 27 26 19 26 -2 0 -12 -10 -23
-22z"/>
<path d="M17959 46883 c-13 -16 -12 -17 4 -4 9 7 17 15 17 17 0 8 -8 3 -21
-13z"/>
<path d="M17909 46843 c-13 -16 -12 -17 4 -4 9 7 17 15 17 17 0 8 -8 3 -21
-13z"/>
<path d="M21128 46853 c39 -2 105 -2 145 0 39 1 7 3 -73 3 -80 0 -112 -2 -72
-3z"/>
<path d="M20763 46843 c48 -2 126 -2 175 0 48 1 8 3 -88 3 -96 0 -136 -2 -87
-3z"/>
<path d="M20382 46833 c48 -2 129 -2 180 0 51 1 12 3 -87 3 -99 0 -141 -2 -93
-3z"/>
<path d="M19275 46809 c-352 -10 -692 -19 -755 -21 l-115 -4 145 -2 146 -2
573 -735 c315 -404 575 -735 578 -735 4 0 -1 8 -9 18 -70 80 -1118 1445 -1114
1449 3 4 358 16 788 28 431 12 698 22 593 22 -104 0 -478 -8 -830 -18z"/>
<path d="M17859 46803 c-13 -16 -12 -17 4 -4 9 7 17 15 17 17 0 8 -8 3 -21
-13z"/>
<path d="M17104 46404 c-18 -14 -18 -15 4 -4 12 6 22 13 22 15 0 8 -5 6 -26
-11z"/>
<path d="M29635 46396 c-55 -24 -115 -81 -818 -783 -842 -843 -809 -804 -815
-943 -7 -138 63 -257 187 -317 48 -24 68 -28 141 -28 150 0 99 -44 945 803
845 846 817 814 817 953 1 137 -70 253 -187 308 -77 37 -191 40 -270 7z"/>
<path d="M16854 46274 c-18 -14 -18 -15 4 -4 12 6 22 13 22 15 0 8 -5 6 -26
-11z"/>
<path d="M16604 46144 c-18 -14 -18 -15 4 -4 12 6 22 13 22 15 0 8 -5 6 -26
-11z"/>
<path d="M37515 46050 c10 -11 20 -20 23 -20 3 0 -3 9 -13 20 -10 11 -20 20
-23 20 -3 0 3 -9 13 -20z"/>
<path d="M38020 45545 c201 -201 367 -365 370 -365 3 0 -159 164 -360 365
-201 201 -367 365 -370 365 -3 0 159 -164 360 -365z"/>
<path d="M15834 45744 c-18 -14 -18 -15 4 -4 12 6 22 13 22 15 0 8 -5 6 -26
-11z"/>
<path d="M24784 45732 c3 -5 -342 -82 -766 -172 -423 -90 -766 -166 -761 -167
8 -3 1395 284 1508 312 10 2 -707 -722 -1595 -1610 -888 -888 -1618 -1614
-1621 -1613 -3 2 -304 341 -669 753 -364 413 -679 766 -698 785 l-37 35 31
-35 c129 -146 817 -933 849 -970 86 -102 519 -580 524 -580 3 0 739 733 1635
1629 1225 1225 1624 1630 1612 1634 -10 4 -15 3 -12 -1z"/>
<path d="M16768 45433 c7 -3 16 -2 19 1 4 3 -2 6 -13 5 -11 0 -14 -3 -6 -6z"/>
<path d="M16818 45423 c7 -3 16 -2 19 1 4 3 -2 6 -13 5 -11 0 -14 -3 -6 -6z"/>
<path d="M16868 45413 c7 -3 16 -2 19 1 4 3 -2 6 -13 5 -11 0 -14 -3 -6 -6z"/>
<path d="M17028 45383 c7 -3 16 -2 19 1 4 3 -2 6 -13 5 -11 0 -14 -3 -6 -6z"/>
<path d="M23155 45375 c-27 -7 -41 -13 -30 -13 11 0 43 6 70 13 28 7 41 13 30
13 -11 0 -42 -6 -70 -13z"/>
<path d="M17078 45373 c7 -3 16 -2 19 1 4 3 -2 6 -13 5 -11 0 -14 -3 -6 -6z"/>
<path d="M17128 45363 c7 -3 16 -2 19 1 4 3 -2 6 -13 5 -11 0 -14 -3 -6 -6z"/>
<path d="M17178 45353 c7 -3 16 -2 19 1 4 3 -2 6 -13 5 -11 0 -14 -3 -6 -6z"/>
<path d="M23068 45353 c6 -2 18 -2 25 0 6 3 1 5 -13 5 -14 0 -19 -2 -12 -5z"/>
<path d="M17228 45343 c7 -3 16 -2 19 1 4 3 -2 6 -13 5 -11 0 -14 -3 -6 -6z"/>
<path d="M22965 45335 c-27 -7 -41 -13 -30 -13 11 0 43 6 70 13 28 7 41 13 30
13 -11 0 -42 -6 -70 -13z"/>
<path d="M17278 45333 c6 -2 18 -2 25 0 6 3 1 5 -13 5 -14 0 -19 -2 -12 -5z"/>
<path d="M17338 45323 c6 -2 12 -13 12 -24 0 -11 -47 -399 -105 -862 -58 -463
-104 -851 -103 -862 2 -11 53 374 113 855 l111 874 24 7 c14 4 18 7 9 8 -9 1
-29 3 -45 5 -16 2 -23 1 -16 -1z"/>
<path d="M22878 45313 c6 -2 18 -2 25 0 6 3 1 5 -13 5 -14 0 -19 -2 -12 -5z"/>
<path d="M17428 45303 c6 -2 18 -2 25 0 6 3 1 5 -13 5 -14 0 -19 -2 -12 -5z"/>
<path d="M22800 45300 c-20 -6 -21 -8 -5 -8 11 0 31 4 45 8 20 6 21 8 5 8 -11
0 -31 -4 -45 -8z"/>
<path d="M17488 45293 c7 -3 16 -2 19 1 4 3 -2 6 -13 5 -11 0 -14 -3 -6 -6z"/>
<path d="M19880 45260 c17 -22 34 -40 37 -40 2 0 -10 18 -27 40 -17 22 -34 40
-37 40 -2 0 10 -18 27 -40z"/>
<path d="M17538 45283 c6 -2 18 -2 25 0 6 3 1 5 -13 5 -14 0 -19 -2 -12 -5z"/>
<path d="M22738 45283 c6 -2 18 -2 25 0 6 3 1 5 -13 5 -14 0 -19 -2 -12 -5z"/>
<path d="M17588 45273 c6 -2 18 -2 25 0 6 3 1 5 -13 5 -14 0 -19 -2 -12 -5z"/>
<path d="M22688 45273 c6 -2 18 -2 25 0 6 3 1 5 -13 5 -14 0 -19 -2 -12 -5z"/>
<path d="M17638 45263 c6 -2 18 -2 25 0 6 3 1 5 -13 5 -14 0 -19 -2 -12 -5z"/>
<path d="M22648 45263 c7 -3 16 -2 19 1 4 3 -2 6 -13 5 -11 0 -14 -3 -6 -6z"/>
<path d="M17688 45253 c6 -2 18 -2 25 0 6 3 1 5 -13 5 -14 0 -19 -2 -12 -5z"/>
<path d="M22598 45253 c6 -2 18 -2 25 0 6 3 1 5 -13 5 -14 0 -19 -2 -12 -5z"/>
<path d="M17738 45243 c6 -2 18 -2 25 0 6 3 1 5 -13 5 -14 0 -19 -2 -12 -5z"/>
<path d="M22548 45243 c6 -2 18 -2 25 0 6 3 1 5 -13 5 -14 0 -19 -2 -12 -5z"/>
<path d="M17798 45233 c7 -3 16 -2 19 1 4 3 -2 6 -13 5 -11 0 -14 -3 -6 -6z"/>
<path d="M22508 45233 c7 -3 16 -2 19 1 4 3 -2 6 -13 5 -11 0 -14 -3 -6 -6z"/>
<path d="M14814 45214 c-18 -14 -18 -15 4 -4 12 6 22 13 22 15 0 8 -5 6 -26
-11z"/>
<path d="M17848 45223 c6 -2 18 -2 25 0 6 3 1 5 -13 5 -14 0 -19 -2 -12 -5z"/>
<path d="M22458 45223 c7 -3 16 -2 19 1 4 3 -2 6 -13 5 -11 0 -14 -3 -6 -6z"/>
<path d="M17898 45213 c6 -2 18 -2 25 0 6 3 1 5 -13 5 -14 0 -19 -2 -12 -5z"/>
<path d="M22408 45213 c6 -2 18 -2 25 0 6 3 1 5 -13 5 -14 0 -19 -2 -12 -5z"/>
<path d="M17948 45203 c6 -2 18 -2 25 0 6 3 1 5 -13 5 -14 0 -19 -2 -12 -5z"/>
<path d="M19935 45190 c10 -11 20 -20 23 -20 3 0 -3 9 -13 20 -10 11 -20 20
-23 20 -3 0 3 -9 13 -20z"/>
<path d="M22358 45203 c6 -2 18 -2 25 0 6 3 1 5 -13 5 -14 0 -19 -2 -12 -5z"/>
<path d="M17998 45193 c6 -2 18 -2 25 0 6 3 1 5 -13 5 -14 0 -19 -2 -12 -5z"/>
<path d="M22318 45193 c7 -3 16 -2 19 1 4 3 -2 6 -13 5 -11 0 -14 -3 -6 -6z"/>
<path d="M18048 45183 c6 -2 18 -2 25 0 6 3 1 5 -13 5 -14 0 -19 -2 -12 -5z"/>
<path d="M22268 45183 c7 -3 16 -2 19 1 4 3 -2 6 -13 5 -11 0 -14 -3 -6 -6z"/>
<path d="M18108 45173 c6 -2 18 -2 25 0 6 3 1 5 -13 5 -14 0 -19 -2 -12 -5z"/>
<path d="M22218 45173 c6 -2 18 -2 25 0 6 3 1 5 -13 5 -14 0 -19 -2 -12 -5z"/>
<path d="M18158 45163 c6 -2 18 -2 25 0 6 3 1 5 -13 5 -14 0 -19 -2 -12 -5z"/>
<path d="M22178 45163 c7 -3 16 -2 19 1 4 3 -2 6 -13 5 -11 0 -14 -3 -6 -6z"/>
<path d="M18208 45153 c6 -2 18 -2 25 0 6 3 1 5 -13 5 -14 0 -19 -2 -12 -5z"/>
<path d="M19960 45156 c0 -2 8 -10 18 -17 15 -13 16 -12 3 4 -13 16 -21 21
-21 13z"/>
<path d="M22128 45153 c7 -3 16 -2 19 1 4 3 -2 6 -13 5 -11 0 -14 -3 -6 -6z"/>
<path d="M18258 45143 c6 -2 18 -2 25 0 6 3 1 5 -13 5 -14 0 -19 -2 -12 -5z"/>
<path d="M22078 45143 c7 -3 16 -2 19 1 4 3 -2 6 -13 5 -11 0 -14 -3 -6 -6z"/>
<path d="M14659 45113 l-24 -28 28 24 c15 14 27 26 27 28 0 8 -8 1 -31 -24z"/>
<path d="M18308 45133 c6 -2 18 -2 25 0 6 3 1 5 -13 5 -14 0 -19 -2 -12 -5z"/>
<path d="M22038 45133 c7 -3 16 -2 19 1 4 3 -2 6 -13 5 -11 0 -14 -3 -6 -6z"/>
<path d="M18368 45123 c7 -3 16 -2 19 1 4 3 -2 6 -13 5 -11 0 -14 -3 -6 -6z"/>
<path d="M21988 45123 c7 -3 16 -2 19 1 4 3 -2 6 -13 5 -11 0 -14 -3 -6 -6z"/>
<path d="M18418 45113 c6 -2 18 -2 25 0 6 3 1 5 -13 5 -14 0 -19 -2 -12 -5z"/>
<path d="M20005 45100 c10 -11 20 -20 23 -20 3 0 -3 9 -13 20 -10 11 -20 20
-23 20 -3 0 3 -9 13 -20z"/>
<path d="M21938 45113 c7 -3 16 -2 19 1 4 3 -2 6 -13 5 -11 0 -14 -3 -6 -6z"/>
<path d="M18468 45103 c6 -2 18 -2 25 0 6 3 1 5 -13 5 -14 0 -19 -2 -12 -5z"/>
<path d="M18518 45093 c6 -2 18 -2 25 0 6 3 1 5 -13 5 -14 0 -19 -2 -12 -5z"/>
<path d="M21848 45093 c7 -3 16 -2 19 1 4 3 -2 6 -13 5 -11 0 -14 -3 -6 -6z"/>
<path d="M18568 45083 c6 -2 18 -2 25 0 6 3 1 5 -13 5 -14 0 -19 -2 -12 -5z"/>
<path d="M21798 45083 c7 -3 16 -2 19 1 4 3 -2 6 -13 5 -11 0 -14 -3 -6 -6z"/>
<path d="M18618 45073 c6 -2 18 -2 25 0 6 3 1 5 -13 5 -14 0 -19 -2 -12 -5z"/>
<path d="M18678 45063 c6 -2 18 -2 25 0 6 3 1 5 -13 5 -14 0 -19 -2 -12 -5z"/>
<path d="M20030 45066 c0 -2 8 -10 18 -17 15 -13 16 -12 3 4 -13 16 -21 21
-21 13z"/>
<path d="M38580 44985 c47 -47 87 -85 90 -85 2 0 -33 38 -80 85 -47 47 -87 85
-90 85 -2 0 33 -38 80 -85z"/>
<path d="M18728 45053 c6 -2 18 -2 25 0 6 3 1 5 -13 5 -14 0 -19 -2 -12 -5z"/>
<path d="M21658 45053 c7 -3 16 -2 19 1 4 3 -2 6 -13 5 -11 0 -14 -3 -6 -6z"/>
<path d="M18778 45043 c6 -2 18 -2 25 0 6 3 1 5 -13 5 -14 0 -19 -2 -12 -5z"/>
<path d="M21608 45043 c7 -3 16 -2 19 1 4 3 -2 6 -13 5 -11 0 -14 -3 -6 -6z"/>
<path d="M18828 45033 c6 -2 18 -2 25 0 6 3 1 5 -13 5 -14 0 -19 -2 -12 -5z"/>
<path d="M18878 45023 c6 -2 18 -2 25 0 6 3 1 5 -13 5 -14 0 -19 -2 -12 -5z"/>
<path d="M20060 45026 c0 -2 8 -10 18 -17 15 -13 16 -12 3 4 -13 16 -21 21
-21 13z"/>
<path d="M18938 45013 c7 -3 16 -2 19 1 4 3 -2 6 -13 5 -11 0 -14 -3 -6 -6z"/>
<path d="M21468 45013 c7 -3 16 -2 19 1 4 3 -2 6 -13 5 -11 0 -14 -3 -6 -6z"/>
<path d="M18988 45003 c6 -2 18 -2 25 0 6 3 1 5 -13 5 -14 0 -19 -2 -12 -5z"/>
<path d="M19038 44993 c6 -2 18 -2 25 0 6 3 1 5 -13 5 -14 0 -19 -2 -12 -5z"/>
<path d="M19088 44983 c6 -2 18 -2 25 0 6 3 1 5 -13 5 -14 0 -19 -2 -12 -5z"/>
<path d="M19138 44973 c6 -2 18 -2 25 0 6 3 1 5 -13 5 -14 0 -19 -2 -12 -5z"/>
<path d="M20100 44976 c0 -2 8 -10 18 -17 15 -13 16 -12 3 4 -13 16 -21 21
-21 13z"/>
<path d="M19188 44963 c6 -2 18 -2 25 0 6 3 1 5 -13 5 -14 0 -19 -2 -12 -5z"/>
<path d="M19248 44953 c7 -3 16 -2 19 1 4 3 -2 6 -13 5 -11 0 -14 -3 -6 -6z"/>
<path d="M19298 44943 c6 -2 18 -2 25 0 6 3 1 5 -13 5 -14 0 -19 -2 -12 -5z"/>
<path d="M19375 44926 c42 -16 862 -169 877 -164 7 3 -818 165 -892 175 -14 2
-8 -3 15 -11z"/>
<path d="M20130 44936 c0 -2 8 -10 18 -17 15 -13 16 -12 3 4 -13 16 -21 21
-21 13z"/>
<path d="M20170 44886 c0 -2 8 -10 18 -17 15 -13 16 -12 3 4 -13 16 -21 21
-21 13z"/>
<path d="M13064 43522 l-1131 -1127 371 -377 371 -377 945 233 c822 203 946
231 952 217 4 -9 23 -128 43 -266 20 -137 38 -251 39 -253 2 -1 140 -1 307 0
l304 3 -192 9 c-106 5 -193 12 -193 16 0 3 15 7 33 7 17 0 52 3 77 6 25 3 65
8 90 11 25 2 65 7 90 11 25 3 53 6 63 6 10 0 66 7 125 14 59 8 134 17 167 20
226 21 2564 303 2578 312 16 8 -59 72 -510 432 -498 399 -528 425 -534 459
l-5 37 -5 -31 -4 -31 -1044 238 c-574 131 -1049 240 -1055 242 -6 3 -173 294
-371 647 -198 354 -364 649 -370 656 -7 9 -294 -271 -1141 -1114z"/>
<path d="M19880 44356 c0 -2 8 -10 18 -17 15 -13 16 -12 3 4 -13 16 -21 21
-21 13z"/>
<path d="M19965 44260 c10 -11 20 -20 23 -20 3 0 -3 9 -13 20 -10 11 -20 20
-23 20 -3 0 3 -9 13 -20z"/>
<path d="M20010 44207 c0 -2 15 -16 33 -33 l32 -29 -29 33 c-28 30 -36 37 -36
29z"/>
<path d="M20110 44095 c19 -19 36 -35 39 -35 3 0 -10 16 -29 35 -19 19 -36 35
-39 35 -3 0 10 -16 29 -35z"/>
<path d="M17133 43515 c0 -22 2 -30 4 -17 2 12 2 30 0 40 -3 9 -5 -1 -4 -23z"/>
<path d="M26790 43534 c-25 -9 -63 -29 -85 -44 -22 -16 -209 -199 -416 -407
-353 -354 -378 -382 -399 -438 -32 -87 -31 -183 4 -262 24 -53 100 -133 789
-821 830 -829 793 -797 922 -809 162 -15 309 92 351 256 19 74 9 153 -28 230
-16 34 -183 207 -637 664 l-615 618 251 252 c294 296 298 303 298 447 0 83 -3
101 -27 145 -34 64 -90 120 -153 153 -65 33 -187 41 -255 16z"/>
<path d="M17123 43435 c0 -22 2 -30 4 -17 2 12 2 30 0 40 -3 9 -5 -1 -4 -23z"/>
<path d="M17113 43355 c0 -22 2 -30 4 -17 2 12 2 30 0 40 -3 9 -5 -1 -4 -23z"/>
<path d="M17103 43275 c0 -22 2 -30 4 -17 2 12 2 30 0 40 -3 9 -5 -1 -4 -23z"/>
<path d="M17093 43195 c0 -22 2 -30 4 -17 2 12 2 30 0 40 -3 9 -5 -1 -4 -23z"/>
<path d="M17083 43115 c0 -22 2 -30 4 -17 2 12 2 30 0 40 -3 9 -5 -1 -4 -23z"/>
<path d="M17073 43035 c0 -22 2 -30 4 -17 2 12 2 30 0 40 -3 9 -5 -1 -4 -23z"/>
<path d="M17062 42960 c0 -19 2 -27 5 -17 2 9 2 25 0 35 -3 9 -5 1 -5 -18z"/>
<path d="M40963 42563 c9 -2 23 -2 30 0 6 3 -1 5 -18 5 -16 0 -22 -2 -12 -5z"/>
<path d="M40835 42550 c-34 -6 -35 -7 -10 -8 17 0 50 3 75 7 40 8 41 8 10 8
-19 0 -53 -3 -75 -7z"/>
<path d="M40743 42533 c9 -2 25 -2 35 0 9 3 1 5 -18 5 -19 0 -27 -2 -17 -5z"/>
<path d="M40668 42523 c12 -2 30 -2 40 0 9 3 -1 5 -23 4 -22 0 -30 -2 -17 -4z"/>
<path d="M40593 42513 c9 -2 25 -2 35 0 9 3 1 5 -18 5 -19 0 -27 -2 -17 -5z"/>
<path d="M40523 42503 c9 -2 25 -2 35 0 9 3 1 5 -18 5 -19 0 -27 -2 -17 -5z"/>
<path d="M40443 42493 c9 -2 25 -2 35 0 9 3 1 5 -18 5 -19 0 -27 -2 -17 -5z"/>
<path d="M40373 42483 c9 -2 25 -2 35 0 9 3 1 5 -18 5 -19 0 -27 -2 -17 -5z"/>
<path d="M40303 42473 c9 -2 23 -2 30 0 6 3 -1 5 -18 5 -16 0 -22 -2 -12 -5z"/>
<path d="M40223 42463 c9 -2 25 -2 35 0 9 3 1 5 -18 5 -19 0 -27 -2 -17 -5z"/>
<path d="M40153 42453 c9 -2 23 -2 30 0 6 3 -1 5 -18 5 -16 0 -22 -2 -12 -5z"/>
<path d="M40083 42443 c9 -2 23 -2 30 0 6 3 -1 5 -18 5 -16 0 -22 -2 -12 -5z"/>
<path d="M40008 42433 c6 -2 18 -2 25 0 6 3 1 5 -13 5 -14 0 -19 -2 -12 -5z"/>
<path d="M39928 42423 c6 -2 18 -2 25 0 6 3 1 5 -13 5 -14 0 -19 -2 -12 -5z"/>
<path d="M39858 42413 c6 -2 18 -2 25 0 6 3 1 5 -13 5 -14 0 -19 -2 -12 -5z"/>
<path d="M39788 42403 c7 -3 16 -2 19 1 4 3 -2 6 -13 5 -11 0 -14 -3 -6 -6z"/>
<path d="M39718 42393 c7 -3 16 -2 19 1 4 3 -2 6 -13 5 -11 0 -14 -3 -6 -6z"/>
<path d="M37255 42130 c-313 -26 -547 -48 -520 -48 28 0 329 21 670 48 341 26
575 48 520 48 -55 0 -356 -22 -670 -48z"/>
<path d="M36598 42073 c18 -2 45 -2 60 0 15 2 0 4 -33 4 -33 0 -45 -2 -27 -4z"/>
<path d="M36468 42063 c18 -2 45 -2 60 0 15 2 0 4 -33 4 -33 0 -45 -2 -27 -4z"/>
<path d="M36343 42053 c15 -2 37 -2 50 0 12 2 0 4 -28 4 -27 0 -38 -2 -22 -4z"/>
<path d="M36213 42043 c15 -2 37 -2 50 0 12 2 0 4 -28 4 -27 0 -38 -2 -22 -4z"/>
<path d="M36083 42033 c15 -2 37 -2 50 0 12 2 0 4 -28 4 -27 0 -38 -2 -22 -4z"/>
<path d="M35958 42023 c12 -2 30 -2 40 0 9 3 -1 5 -23 4 -22 0 -30 -2 -17 -4z"/>
<path d="M35828 42013 c12 -2 30 -2 40 0 9 3 -1 5 -23 4 -22 0 -30 -2 -17 -4z"/>
<path d="M35703 42003 c9 -2 25 -2 35 0 9 3 1 5 -18 5 -19 0 -27 -2 -17 -5z"/>
<path d="M35573 41993 c9 -2 23 -2 30 0 6 3 -1 5 -18 5 -16 0 -22 -2 -12 -5z"/>
<path d="M16127 41510 c-11 -45 -138 -1041 -135 -1051 2 -5 36 228 77 519 40
292 71 536 68 543 -3 9 -7 4 -10 -11z"/>
<path d="M18561 41264 c0 -11 3 -14 6 -6 3 7 2 16 -1 19 -3 4 -6 -2 -5 -13z"/>
<path d="M18571 41214 c0 -11 3 -14 6 -6 3 7 2 16 -1 19 -3 4 -6 -2 -5 -13z"/>
<path d="M18601 41054 c0 -11 3 -14 6 -6 3 7 2 16 -1 19 -3 4 -6 -2 -5 -13z"/>
<path d="M23135 40860 c104 -104 192 -190 195 -190 3 0 -81 86 -185 190 -104
105 -192 190 -195 190 -3 0 81 -85 185 -190z"/>
<path d="M18611 41004 c0 -11 3 -14 6 -6 3 7 2 16 -1 19 -3 4 -6 -2 -5 -13z"/>
<path d="M41231 40959 c-7 -22 -11 -43 -8 -45 2 -2 9 14 16 37 7 22 11 43 8
45 -2 2 -9 -14 -16 -37z"/>
<path d="M18621 40954 c0 -11 3 -14 6 -6 3 7 2 16 -1 19 -3 4 -6 -2 -5 -13z"/>
<path d="M22535 40890 c-13 -6 -15 -9 -5 -9 8 0 22 4 30 9 18 12 2 12 -25 0z"/>
<path d="M22488 40873 c7 -3 16 -2 19 1 4 3 -2 6 -13 5 -11 0 -14 -3 -6 -6z"/>
<path d="M22448 40863 c7 -3 16 -2 19 1 4 3 -2 6 -13 5 -11 0 -14 -3 -6 -6z"/>
<path d="M18641 40844 c0 -11 3 -14 6 -6 3 7 2 16 -1 19 -3 4 -6 -2 -5 -13z"/>
<path d="M22318 40833 c7 -3 16 -2 19 1 4 3 -2 6 -13 5 -11 0 -14 -3 -6 -6z"/>
<path d="M22278 40823 c7 -3 16 -2 19 1 4 3 -2 6 -13 5 -11 0 -14 -3 -6 -6z"/>
<path d="M22238 40813 c7 -3 16 -2 19 1 4 3 -2 6 -13 5 -11 0 -14 -3 -6 -6z"/>
<path d="M18651 40794 c0 -11 3 -14 6 -6 3 7 2 16 -1 19 -3 4 -6 -2 -5 -13z"/>
<path d="M22198 40803 c7 -3 16 -2 19 1 4 3 -2 6 -13 5 -11 0 -14 -3 -6 -6z"/>
<path d="M41156 40724 c-15 -47 -26 -87 -24 -89 2 -3 17 34 32 81 15 47 26 87
24 89 -2 3 -17 -34 -32 -81z"/>
<path d="M22158 40793 c7 -3 16 -2 19 1 4 3 -2 6 -13 5 -11 0 -14 -3 -6 -6z"/>
<path d="M22118 40783 c7 -3 16 -2 19 1 4 3 -2 6 -13 5 -11 0 -14 -3 -6 -6z"/>
<path d="M22040 40770 c-20 -6 -21 -8 -5 -8 11 0 31 4 45 8 20 6 21 8 5 8 -11
0 -31 -4 -45 -8z"/>
<path d="M18661 40744 c0 -11 3 -14 6 -6 3 7 2 16 -1 19 -3 4 -6 -2 -5 -13z"/>
<path d="M21988 40753 c7 -3 16 -2 19 1 4 3 -2 6 -13 5 -11 0 -14 -3 -6 -6z"/>
<path d="M21948 40743 c7 -3 16 -2 19 1 4 3 -2 6 -13 5 -11 0 -14 -3 -6 -6z"/>
<path d="M21908 40733 c7 -3 16 -2 19 1 4 3 -2 6 -13 5 -11 0 -14 -3 -6 -6z"/>
<path d="M21868 40723 c7 -3 16 -2 19 1 4 3 -2 6 -13 5 -11 0 -14 -3 -6 -6z"/>
<path d="M21710 40690 c-58 -15 -98 -28 -90 -29 8 0 65 12 125 28 61 16 101
29 90 29 -11 0 -67 -13 -125 -28z"/>
<path d="M20858 40486 c-389 -94 -702 -174 -696 -177 6 -4 -50 -107 -137 -255
-175 -295 -157 -264 -152 -264 3 0 74 117 159 259 l153 260 315 76 c681 167
1104 273 1085 273 -11 0 -338 -77 -727 -172z"/>
<path d="M18681 40634 c0 -11 3 -14 6 -6 3 7 2 16 -1 19 -3 4 -6 -2 -5 -13z"/>
<path d="M18691 40584 c0 -11 3 -14 6 -6 3 7 2 16 -1 19 -3 4 -6 -2 -5 -13z"/>
<path d="M18701 40534 c0 -11 3 -14 6 -6 3 7 2 16 -1 19 -3 4 -6 -2 -5 -13z"/>
<path d="M18711 40484 c0 -11 3 -14 6 -6 3 7 2 16 -1 19 -3 4 -6 -2 -5 -13z"/>
<path d="M15982 40410 c0 -19 2 -27 5 -17 2 9 2 25 0 35 -3 9 -5 1 -5 -18z"/>
<path d="M18721 40424 c0 -11 3 -14 6 -6 3 7 2 16 -1 19 -3 4 -6 -2 -5 -13z"/>
<path d="M18731 40374 c0 -11 3 -14 6 -6 3 7 2 16 -1 19 -3 4 -6 -2 -5 -13z"/>
<path d="M15972 40335 c0 -16 2 -22 5 -12 2 9 2 23 0 30 -3 6 -5 -1 -5 -18z"/>
<path d="M18741 40324 c0 -11 3 -14 6 -6 3 7 2 16 -1 19 -3 4 -6 -2 -5 -13z"/>
<path d="M20118 40303 c7 -3 16 -2 19 1 4 3 -2 6 -13 5 -11 0 -14 -3 -6 -6z"/>
<path d="M15958 40260 c-3 -19 0 -30 7 -30 7 0 10 11 7 30 -2 17 -5 30 -7 30
-2 0 -5 -13 -7 -30z"/>
<path d="M18751 40274 c0 -11 3 -14 6 -6 3 7 2 16 -1 19 -3 4 -6 -2 -5 -13z"/>
<path d="M18761 40214 c0 -11 3 -14 6 -6 3 7 2 16 -1 19 -3 4 -6 -2 -5 -13z"/>
<path d="M18771 40164 c0 -11 3 -14 6 -6 3 7 2 16 -1 19 -3 4 -6 -2 -5 -13z"/>
<path d="M18781 40114 c0 -11 3 -14 6 -6 3 7 2 16 -1 19 -3 4 -6 -2 -5 -13z"/>
<path d="M18791 40064 c0 -11 3 -14 6 -6 3 7 2 16 -1 19 -3 4 -6 -2 -5 -13z"/>
<path d="M18801 40014 c0 -11 3 -14 6 -6 3 7 2 16 -1 19 -3 4 -6 -2 -5 -13z"/>
<path d="M18810 39985 c-1 -18 104 -567 108 -557 4 13 -86 522 -98 547 -5 11
-9 16 -10 10z"/>
<path d="M28970 39971 c-90 -29 -174 -104 -213 -189 -16 -36 -21 -67 -22 -132
0 -147 -41 -98 807 -953 852 -857 799 -812 953 -812 71 0 89 4 147 33 121 59
183 161 183 297 -1 151 46 96 -803 947 -551 552 -769 764 -806 784 -43 23 -65
28 -136 31 -47 1 -96 -1 -110 -6z"/>
<path d="M19850 39760 c-6 -11 -8 -20 -6 -20 3 0 10 9 16 20 6 11 8 20 6 20
-3 0 -10 -9 -16 -20z"/>
<path d="M15435 38870 c495 -495 901 -900 903 -900 2 0 -398 405 -890 900
-491 495 -897 900 -903 900 -5 0 395 -405 890 -900z"/>
<path d="M19820 39710 c-6 -11 -8 -20 -6 -20 3 0 10 9 16 20 6 11 8 20 6 20
-3 0 -10 -9 -16 -20z"/>
<path d="M17470 39710 c8 -5 20 -10 25 -10 6 0 3 5 -5 10 -8 5 -19 10 -25 10
-5 0 -3 -5 5 -10z"/>
<path d="M19790 39660 c-6 -11 -8 -20 -6 -20 3 0 10 9 16 20 6 11 8 20 6 20
-3 0 -10 -9 -16 -20z"/>
<path d="M19767 39623 c-2 -5 -17 -30 -32 -58 -16 -27 -24 -45 -18 -40 14 14
66 105 60 105 -3 0 -8 -3 -10 -7z"/>
<path d="M19697 39503 c-3 -5 -314 -530 -692 -1168 -749 -1264 -702 -1184
-688 -1170 14 13 1378 2304 1386 2328 6 17 2 24 -6 10z"/>
<path d="M19748 39473 c7 -3 16 -2 19 1 4 3 -2 6 -13 5 -11 0 -14 -3 -6 -6z"/>
<path d="M19828 39463 c7 -3 16 -2 19 1 4 3 -2 6 -13 5 -11 0 -14 -3 -6 -6z"/>
<path d="M19898 39453 c7 -3 16 -2 19 1 4 3 -2 6 -13 5 -11 0 -14 -3 -6 -6z"/>
<path d="M19968 39443 c7 -3 16 -2 19 1 4 3 -2 6 -13 5 -11 0 -14 -3 -6 -6z"/>
<path d="M20038 39433 c7 -3 16 -2 19 1 4 3 -2 6 -13 5 -11 0 -14 -3 -6 -6z"/>
<path d="M20118 39423 c7 -3 16 -2 19 1 4 3 -2 6 -13 5 -11 0 -14 -3 -6 -6z"/>
<path d="M20188 39413 c7 -3 16 -2 19 1 4 3 -2 6 -13 5 -11 0 -14 -3 -6 -6z"/>
<path d="M18922 39390 c0 -14 4 -38 8 -55 7 -27 8 -27 8 -5 0 14 -4 39 -8 55
-7 27 -8 27 -8 5z"/>
<path d="M20258 39403 c7 -3 16 -2 19 1 4 3 -2 6 -13 5 -11 0 -14 -3 -6 -6z"/>
<path d="M20328 39393 c6 -2 18 -2 25 0 6 3 1 5 -13 5 -14 0 -19 -2 -12 -5z"/>
<path d="M20398 39383 c6 -2 18 -2 25 0 6 3 1 5 -13 5 -14 0 -19 -2 -12 -5z"/>
<path d="M20478 39373 c7 -3 16 -2 19 1 4 3 -2 6 -13 5 -11 0 -14 -3 -6 -6z"/>
<path d="M20548 39363 c7 -3 16 -2 19 1 4 3 -2 6 -13 5 -11 0 -14 -3 -6 -6z"/>
<path d="M20618 39353 c6 -2 18 -2 25 0 6 3 1 5 -13 5 -14 0 -19 -2 -12 -5z"/>
<path d="M20688 39343 c6 -2 18 -2 25 0 6 3 1 5 -13 5 -14 0 -19 -2 -12 -5z"/>
<path d="M20768 39333 c7 -3 16 -2 19 1 4 3 -2 6 -13 5 -11 0 -14 -3 -6 -6z"/>
<path d="M20838 39323 c6 -2 18 -2 25 0 6 3 1 5 -13 5 -14 0 -19 -2 -12 -5z"/>
<path d="M20908 39313 c6 -2 18 -2 25 0 6 3 1 5 -13 5 -14 0 -19 -2 -12 -5z"/>
<path d="M20978 39303 c6 -2 18 -2 25 0 6 3 1 5 -13 5 -14 0 -19 -2 -12 -5z"/>
<path d="M18942 39280 c0 -14 2 -19 5 -12 2 6 2 18 0 25 -3 6 -5 1 -5 -13z"/>
<path d="M21058 39293 c7 -3 16 -2 19 1 4 3 -2 6 -13 5 -11 0 -14 -3 -6 -6z"/>
<path d="M21128 39283 c6 -2 18 -2 25 0 6 3 1 5 -13 5 -14 0 -19 -2 -12 -5z"/>
<path d="M21198 39273 c6 -2 18 -2 25 0 6 3 1 5 -13 5 -14 0 -19 -2 -12 -5z"/>
<path d="M21268 39263 c6 -2 18 -2 25 0 6 3 1 5 -13 5 -14 0 -19 -2 -12 -5z"/>
<path d="M21348 39253 c6 -2 18 -2 25 0 6 3 1 5 -13 5 -14 0 -19 -2 -12 -5z"/>
<path d="M18951 39233 c-1 -12 -7 -24 -13 -26 -10 -4 -10 -6 0 -6 15 -1 26 23
19 41 -3 7 -6 3 -6 -9z"/>
<path d="M21418 39243 c6 -2 18 -2 25 0 6 3 1 5 -13 5 -14 0 -19 -2 -12 -5z"/>
<path d="M21488 39233 c6 -2 18 -2 25 0 6 3 1 5 -13 5 -14 0 -19 -2 -12 -5z"/>
<path d="M21558 39223 c6 -2 18 -2 25 0 6 3 1 5 -13 5 -14 0 -19 -2 -12 -5z"/>
<path d="M21638 39213 c6 -2 18 -2 25 0 6 3 1 5 -13 5 -14 0 -19 -2 -12 -5z"/>
<path d="M44172 38931 c-93 -157 -503 -851 -912 -1541 -408 -690 -744 -1257
-746 -1259 -2 -2 -187 22 -411 53 -225 31 -599 83 -833 116 -234 32 -846 118
-1360 189 -514 72 -1135 158 -1380 191 -245 34 -712 99 -1039 145 l-595 85
-45 42 c-69 65 1348 -1361 2649 -2665 635 -636 1156 -1161 1158 -1165 1 -5
-1441 -1454 -3205 -3221 -1765 -1768 -3209 -3217 -3211 -3221 -2 -4 4 -10 13
-14 8 -3 748 -28 1643 -56 895 -28 1638 -54 1652 -59 14 -4 430 -264 925 -577
495 -314 909 -574 920 -578 12 -4 15 -10 9 -14 -10 -6 -648 -1812 -642 -1817
2 -1 390 -26 863 -54 473 -29 894 -55 935 -58 l75 -6 4550 4560 c2503 2507
4689 4699 4860 4871 l309 312 -369 372 c-204 205 -374 377 -380 384 -5 6
-1192 1195 -2637 2641 l-2626 2630 -170 -286z"/>
<path d="M21708 39203 c6 -2 18 -2 25 0 6 3 1 5 -13 5 -14 0 -19 -2 -12 -5z"/>
<path d="M21778 39193 c6 -2 18 -2 25 0 6 3 1 5 -13 5 -14 0 -19 -2 -12 -5z"/>
<path d="M21853 39183 c9 -2 23 -2 30 0 6 3 -1 5 -18 5 -16 0 -22 -2 -12 -5z"/>
<path d="M21923 39173 c9 -2 23 -2 30 0 6 3 -1 5 -18 5 -16 0 -22 -2 -12 -5z"/>
<path d="M21998 39163 c6 -2 18 -2 25 0 6 3 1 5 -13 5 -14 0 -19 -2 -12 -5z"/>
<path d="M22068 39153 c6 -2 18 -2 25 0 6 3 1 5 -13 5 -14 0 -19 -2 -12 -5z"/>
<path d="M22143 39143 c9 -2 23 -2 30 0 6 3 -1 5 -18 5 -16 0 -22 -2 -12 -5z"/>
<path d="M22213 39133 c9 -2 23 -2 30 0 6 3 -1 5 -18 5 -16 0 -22 -2 -12 -5z"/>
<path d="M22288 39123 c6 -2 18 -2 25 0 6 3 1 5 -13 5 -14 0 -19 -2 -12 -5z"/>
<path d="M22363 39113 c9 -2 23 -2 30 0 6 3 -1 5 -18 5 -16 0 -22 -2 -12 -5z"/>
<path d="M22433 39103 c9 -2 23 -2 30 0 6 3 -1 5 -18 5 -16 0 -22 -2 -12 -5z"/>
<path d="M22503 39093 c9 -2 23 -2 30 0 6 3 -1 5 -18 5 -16 0 -22 -2 -12 -5z"/>
<path d="M22578 39083 c6 -2 18 -2 25 0 6 3 1 5 -13 5 -14 0 -19 -2 -12 -5z"/>
<path d="M22653 39073 c9 -2 23 -2 30 0 6 3 -1 5 -18 5 -16 0 -22 -2 -12 -5z"/>
<path d="M22723 39063 c9 -2 23 -2 30 0 6 3 -1 5 -18 5 -16 0 -22 -2 -12 -5z"/>
<path d="M22793 39053 c9 -2 23 -2 30 0 6 3 -1 5 -18 5 -16 0 -22 -2 -12 -5z"/>
<path d="M22868 39043 c6 -2 18 -2 25 0 6 3 1 5 -13 5 -14 0 -19 -2 -12 -5z"/>
<path d="M22943 39033 c9 -2 23 -2 30 0 6 3 -1 5 -18 5 -16 0 -22 -2 -12 -5z"/>
<path d="M23013 39023 c9 -2 23 -2 30 0 6 3 -1 5 -18 5 -16 0 -22 -2 -12 -5z"/>
<path d="M23083 39013 c9 -2 23 -2 30 0 6 3 -1 5 -18 5 -16 0 -22 -2 -12 -5z"/>
<path d="M23163 39003 c9 -2 23 -2 30 0 6 3 -1 5 -18 5 -16 0 -22 -2 -12 -5z"/>
<path d="M25120 38867 c125 -128 141 -147 115 -142 -76 13 -1199 165 -1213
164 -10 -1 -1 -4 18 -8 38 -7 2 -18 -4475 -1449 -1282 -410 -1321 -422 -1329
-422 -4 0 -1 10 5 23 40 77 -32 -39 -191 -307 l-182 -308 1334 -1337 c1470
-1472 4972 -4991 6192 -6221 428 -432 782 -785 787 -785 4 0 1100 1091 2433
2424 l2425 2424 -1317 1326 c-1197 1206 -3667 3686 -4437 4456 -170 171 -245
244 -165 162z"/>
<path d="M23233 38993 c9 -2 23 -2 30 0 6 3 -1 5 -18 5 -16 0 -22 -2 -12 -5z"/>
<path d="M23303 38983 c9 -2 23 -2 30 0 6 3 -1 5 -18 5 -16 0 -22 -2 -12 -5z"/>
<path d="M23373 38973 c9 -2 23 -2 30 0 6 3 -1 5 -18 5 -16 0 -22 -2 -12 -5z"/>
<path d="M23443 38963 c9 -2 25 -2 35 0 9 3 1 5 -18 5 -19 0 -27 -2 -17 -5z"/>
<path d="M23523 38953 c9 -2 23 -2 30 0 6 3 -1 5 -18 5 -16 0 -22 -2 -12 -5z"/>
<path d="M23593 38943 c9 -2 23 -2 30 0 6 3 -1 5 -18 5 -16 0 -22 -2 -12 -5z"/>
<path d="M23663 38933 c9 -2 25 -2 35 0 9 3 1 5 -18 5 -19 0 -27 -2 -17 -5z"/>
<path d="M23733 38923 c9 -2 25 -2 35 0 9 3 1 5 -18 5 -19 0 -27 -2 -17 -5z"/>
<path d="M23813 38913 c9 -2 23 -2 30 0 6 3 -1 5 -18 5 -16 0 -22 -2 -12 -5z"/>
<path d="M23883 38903 c9 -2 23 -2 30 0 6 3 -1 5 -18 5 -16 0 -22 -2 -12 -5z"/>
<path d="M23953 38893 c9 -2 25 -2 35 0 9 3 1 5 -18 5 -19 0 -27 -2 -17 -5z"/>
<path d="M38270 38680 c-6 -11 -8 -20 -6 -20 3 0 10 9 16 20 6 11 8 20 6 20
-3 0 -10 -9 -16 -20z"/>
<path d="M37925 38610 l-310 -5 307 -3 c196 -1 309 2 313 8 3 6 5 9 3 8 -2 -2
-142 -5 -313 -8z"/>
<path d="M38793 38613 l58 -4 452 -331 c562 -412 525 -385 507 -366 -8 9 -225
172 -482 362 l-468 346 -62 -2 -63 -2 58 -3z"/>
<path d="M39830 37896 c0 -2 8 -10 18 -17 15 -13 16 -12 3 4 -13 16 -21 21
-21 13z"/>
<path d="M39872 37864 c4 -5 28 -25 54 -44 26 -18 45 -29 42 -24 -4 5 -28 25
-54 44 -26 18 -45 29 -42 24z"/>
<path d="M39980 37786 c0 -2 8 -10 18 -17 15 -13 16 -12 3 4 -13 16 -21 21
-21 13z"/>
<path d="M40020 37756 c0 -2 8 -10 18 -17 15 -13 16 -12 3 4 -13 16 -21 21
-21 13z"/>
<path d="M17010 37285 c250 -250 457 -455 460 -455 3 0 -200 205 -450 455
-250 250 -457 455 -460 455 -3 0 200 -205 450 -455z"/>
<path d="M40060 37726 c0 -2 8 -10 18 -17 15 -13 16 -12 3 4 -13 16 -21 21
-21 13z"/>
<path d="M6021 36564 c-611 -614 -1110 -1118 -1109 -1119 2 -1 293 -152 648
-335 1032 -533 1085 -562 1083 -585 -1 -11 -57 -438 -124 -948 -106 -797 -121
-930 -108 -939 11 -8 11 -9 -3 -4 -10 3 -18 2 -18 -2 0 -3 -41 -416 -90 -917
-50 -500 -103 -1037 -118 -1193 l-28 -282 331 -899 331 -899 584 1296 c321
713 590 1312 599 1330 14 30 12 53 -23 308 -20 152 -35 279 -32 282 3 3 6 -4
6 -16 0 -17 118 -99 578 -406 317 -212 580 -382 583 -378 3 4 30 97 58 207 47
179 109 383 96 313 -3 -16 -1 -28 3 -28 5 0 535 138 1177 306 642 168 1169
304 1171 302 2 -3 -355 -100 -793 -216 -438 -117 -798 -214 -800 -215 -2 -2
92 -354 209 -783 139 -512 218 -784 229 -794 18 -16 225 -850 216 -873 -2 -6
-594 -421 -1315 -922 -720 -500 -1308 -913 -1305 -917 2 -5 -3 -8 -11 -8 -9 0
-16 -3 -16 -8 0 -4 628 -635 1395 -1402 899 -899 1396 -1389 1399 -1380 2 8
69 449 148 980 78 530 144 958 146 950 1 -8 -61 -445 -138 -970 -77 -525 -139
-965 -138 -977 4 -33 1948 -1989 1959 -1971 7 10 9 9 9 -4 0 -10 4 -18 10 -18
5 0 9 -4 7 -8 -1 -5 1365 -1378 3036 -3053 2664 -2669 3038 -3040 3033 -3009
-4 19 -60 512 -126 1095 -66 583 -122 1074 -125 1091 -4 25 -96 109 -570 519
-311 270 -565 492 -565 495 0 3 102 40 228 83 125 43 652 227 1171 409 l943
330 382 -95 c209 -52 491 -120 626 -151 296 -68 455 -107 417 -102 -26 3 -27
2 -14 -18 8 -11 68 -113 134 -226 103 -175 646 -1080 690 -1148 13 -21 16 -22
31 -9 9 8 429 227 932 487 503 260 1089 567 1302 684 l387 211 -1472 1475
c-810 811 -1580 1589 -1712 1728 -196 206 -244 251 -260 246 -11 -3 -28 -6
-37 -7 -10 -1 -18 -4 -18 -7 0 -11 -71 -41 -81 -35 -5 4 -9 2 -9 -3 0 -10 -54
-35 -76 -35 -8 0 -14 -4 -14 -7 0 -8 -43 -27 -70 -32 -8 -2 -17 -6 -20 -9 -10
-13 -143 -69 -151 -63 -5 3 -9 1 -9 -4 0 -12 -69 -44 -81 -37 -5 4 -9 2 -9 -3
0 -11 -69 -44 -80 -37 -4 3 -10 1 -12 -4 -4 -12 -319 -152 -329 -146 -4 3 -9
1 -11 -4 -1 -6 -417 -193 -923 -417 -506 -223 -930 -411 -943 -418 -25 -13
-82 46 692 -714 300 -294 374 -372 355 -372 -14 0 -19 3 -13 8 7 4 -200 214
-532 540 -298 293 -541 539 -539 545 3 7 118 818 255 1802 138 985 253 1805
256 1823 6 31 5 32 -32 33 l-39 2 38 6 37 6 -1349 1349 -1349 1349 -24 -79
c-14 -43 -150 -492 -303 -996 -153 -505 -280 -916 -282 -914 -2 2 131 454 296
1004 l301 1001 -188 188 c-104 103 -912 918 -1796 1811 -885 892 -1613 1622
-1619 1622 -7 0 -261 249 -567 554 l-555 555 -603 319 c-332 176 -607 323
-610 327 -11 11 67 -29 618 -320 283 -150 531 -280 550 -289 22 -11 -165 183
-486 506 -286 287 -1256 1263 -2155 2168 -899 905 -1637 1646 -1640 1648 -4 1
-506 -500 -1118 -1114z m3512 -2214 c191 -100 347 -184 347 -187 0 -2 -87 41
-192 97 -106 55 -277 144 -380 198 -103 53 -188 101 -188 105 0 5 15 0 33 -11
17 -10 188 -101 380 -202z m537 -285 c0 -3 -9 -1 -21 6 -12 6 -25 7 -29 2 -5
-4 -36 -110 -71 -235 -34 -126 -64 -226 -66 -224 -4 4 109 424 124 462 3 8
-12 21 -36 34 -23 11 -41 23 -41 25 0 3 32 -11 70 -30 39 -19 70 -38 70 -40z
m170 -90 c0 -3 -31 11 -70 30 -38 19 -70 38 -70 40 0 3 32 -11 70 -30 39 -19
70 -38 70 -40z m-983 -147 c-3 -8 -6 -5 -6 6 -1 11 2 17 5 13 3 -3 4 -12 1
-19z m10 -50 c-3 -8 -6 -5 -6 6 -1 11 2 17 5 13 3 -3 4 -12 1 -19z m10 -60
c-3 -8 -6 -5 -6 6 -1 11 2 17 5 13 3 -3 4 -12 1 -19z m10 -50 c-3 -8 -6 -5 -6
6 -1 11 2 17 5 13 3 -3 4 -12 1 -19z m10 -60 c-3 -7 -5 -2 -5 12 0 14 2 19 5
13 2 -7 2 -19 0 -25z m562 -97 c-12 -45 -24 -79 -26 -77 -2 2 6 40 18 85 12
45 24 79 26 77 2 -2 -6 -40 -18 -85z m-556 39 c-4 -5 -21 -11 -38 -14 -30 -6
-30 -5 3 6 22 7 32 18 33 32 1 18 2 19 6 2 3 -10 1 -22 -4 -26z m-178 -60
c-11 -5 -27 -9 -35 -9 -9 0 -8 4 5 9 11 5 27 9 35 9 9 0 8 -4 -5 -9z m-190
-60 c-11 -5 -27 -9 -35 -9 -9 0 -8 4 5 9 11 5 27 9 35 9 9 0 8 -4 -5 -9z m874
-99 c-12 -45 -24 -79 -26 -77 -2 2 6 40 18 85 12 45 24 79 26 77 2 -2 -6 -40
-18 -85z m-1082 33 c-3 -3 -12 -4 -19 -1 -8 3 -5 6 6 6 11 1 17 -2 13 -5z
m-190 -60 c-3 -3 -12 -4 -19 -1 -8 3 -5 6 6 6 11 1 17 -2 13 -5z m1222 -153
c-12 -45 -24 -79 -26 -77 -2 2 6 40 18 85 12 45 24 79 26 77 2 -2 -6 -40 -18
-85z m-50 -180 c-12 -45 -24 -79 -26 -77 -2 2 6 40 18 85 12 45 24 79 26 77 2
-2 -6 -40 -18 -85z m-2004 69 c-11 -5 -27 -9 -35 -9 -9 0 -8 4 5 9 11 5 27 9
35 9 9 0 8 -4 -5 -9z m-190 -60 c-11 -5 -27 -9 -35 -9 -9 0 -8 4 5 9 11 5 27
9 35 9 9 0 8 -4 -5 -9z m-208 -66 c-3 -3 -12 -4 -19 -1 -8 3 -5 6 6 6 11 1 17
-2 13 -5z m2352 -123 c-12 -45 -24 -79 -26 -77 -2 2 6 40 18 85 12 45 24 79
26 77 2 -2 -6 -40 -18 -85z m-2542 63 c-3 -3 -12 -4 -19 -1 -8 3 -5 6 6 6 11
1 17 -2 13 -5z m-220 -70 c-3 -3 -12 -4 -19 -1 -8 3 -5 6 6 6 11 1 17 -2 13
-5z m-190 -60 c-3 -3 -12 -4 -19 -1 -8 3 -5 6 6 6 11 1 17 -2 13 -5z m2912
-78 c-6 -26 -13 -45 -16 -43 -2 3 1 26 8 51 6 26 13 45 16 43 2 -3 -1 -26 -8
-51z m-25 -90 c-3 -15 -8 -25 -11 -23 -2 3 -1 17 3 31 3 15 8 25 11 23 2 -3 1
-17 -3 -31z m-25 -90 c-6 -26 -13 -45 -16 -43 -2 3 1 26 8 51 6 26 13 45 16
43 2 -3 -1 -26 -8 -51z m-25 -90 c-3 -15 -8 -25 -11 -23 -2 3 -1 17 3 31 3 15
8 25 11 23 2 -3 1 -17 -3 -31z m-25 -90 c-6 -26 -13 -45 -16 -43 -2 3 1 26 8
51 6 26 13 45 16 43 2 -3 -1 -26 -8 -51z m-25 -90 c-3 -15 -8 -25 -11 -23 -2
3 -1 17 3 31 3 15 8 25 11 23 2 -3 1 -17 -3 -31z m-1627 2 c-3 -8 -6 -5 -6 6
-1 11 2 17 5 13 3 -3 4 -12 1 -19z m1602 -92 c-6 -26 -13 -45 -16 -43 -2 3 1
26 8 51 6 26 13 45 16 43 2 -3 -1 -26 -8 -51z m2856 34 c-33 -10 -86 -26 -117
-35 -32 -9 -58 -21 -58 -26 0 -5 93 -350 206 -766 113 -415 203 -757 201 -759
-4 -4 -244 862 -359 1296 -35 129 -67 237 -73 239 -5 2 44 19 110 37 129 35
189 44 90 14z m-4448 -12 c-3 -8 -6 -5 -6 6 -1 11 2 17 5 13 3 -3 4 -12 1 -19z
m4230 -44 c-3 -3 -12 -4 -19 -1 -8 3 -5 6 6 6 11 1 17 -2 13 -5z m-4220 -26
c-3 -8 -6 -5 -6 6 -1 11 2 17 5 13 3 -3 4 -12 1 -19z m4110 -4 c-3 -3 -12 -4
-19 -1 -8 3 -5 6 6 6 11 1 17 -2 13 -5z m-2553 -38 c-3 -15 -8 -25 -11 -23 -2
3 -1 17 3 31 3 15 8 25 11 23 2 -3 1 -17 -3 -31z m2513 28 c-3 -3 -12 -4 -19
-1 -8 3 -5 6 6 6 11 1 17 -2 13 -5z m-52 -13 c-11 -5 -36 -11 -55 -14 -35 -6
-34 -6 5 8 43 14 84 19 50 6z m-4008 -53 c-3 -7 -5 -2 -5 12 0 14 2 19 5 13 2
-7 2 -19 0 -25z m3910 26 c-3 -3 -12 -4 -19 -1 -8 3 -5 6 6 6 11 1 17 -2 13
-5z m-38 -8 c-7 -7 -131 -37 -136 -33 -2 3 22 11 54 20 59 15 90 20 82 13z
m-2342 -38 c-3 -8 -6 -5 -6 6 -1 11 2 17 5 13 3 -3 4 -12 1 -19z m-1520 -50
c-3 -7 -5 -2 -5 12 0 14 2 19 5 13 2 -7 2 -19 0 -25z m1507 -2 c-3 -15 -8 -25
-11 -23 -2 3 -1 17 3 31 3 15 8 25 11 23 2 -3 1 -17 -3 -31z m-1497 -68 c-3
-7 -5 -2 -5 12 0 14 2 19 5 13 2 -7 2 -19 0 -25z m1477 -2 c-3 -15 -8 -25 -11
-23 -2 3 -1 17 3 31 3 15 8 25 11 23 2 -3 1 -17 -3 -31z m-1467 -73 c-3 -10
-5 -4 -5 12 0 17 2 24 5 18 2 -7 2 -21 0 -30z m1450 15 c-3 -8 -6 -5 -6 6 -1
11 2 17 5 13 3 -3 4 -12 1 -19z m-13 -52 c-3 -15 -8 -25 -11 -23 -2 3 -1 17 3
31 3 15 8 25 11 23 2 -3 1 -17 -3 -31z m-1427 -33 c-3 -10 -5 -4 -5 12 0 17 2
24 5 18 2 -7 2 -21 0 -30z m1407 -37 c-3 -15 -8 -25 -11 -23 -2 3 -1 17 3 31
3 15 8 25 11 23 2 -3 1 -17 -3 -31z m-17 -58 c-3 -8 -6 -5 -6 6 -1 11 2 17 5
13 3 -3 4 -12 1 -19z m-13 -52 c-3 -15 -8 -25 -11 -23 -2 3 -1 17 3 31 3 15 8
25 11 23 2 -3 1 -17 -3 -31z m-20 -70 c-3 -15 -8 -25 -11 -23 -2 3 -1 17 3 31
3 15 8 25 11 23 2 -3 1 -17 -3 -31z m-17 -58 c-3 -8 -6 -5 -6 6 -1 11 2 17 5
13 3 -3 4 -12 1 -19z m3307 -948 c4 -24 3 -29 -3 -15 -4 11 -11 36 -15 55 -4
24 -3 29 3 15 4 -11 11 -36 15 -55z m25 -90 c0 -9 -4 -8 -9 5 -5 11 -9 27 -9
35 0 9 4 8 9 -5 5 -11 9 -27 9 -35z m8 -42 c-3 -8 -6 -5 -6 6 -1 11 2 17 5 13
3 -3 4 -12 1 -19z m20 -70 c-3 -8 -6 -5 -6 6 -1 11 2 17 5 13 3 -3 4 -12 1
-19z m10 -40 c-3 -8 -6 -5 -6 6 -1 11 2 17 5 13 3 -3 4 -12 1 -19z m848 -1218
l360 -8 -377 2 c-208 2 -378 1 -378 -1 0 -5 439 -650 463 -680 5 -7 7 -13 4
-13 -4 0 -455 650 -489 705 -4 7 4 10 25 7 18 -2 194 -7 392 -12z m728 -17
c-62 -2 -164 -2 -225 0 -62 1 -12 3 112 3 124 0 174 -2 113 -3z m535 -10 c-42
-2 -114 -2 -160 0 -46 1 -11 3 77 3 88 0 125 -2 83 -3z m-2038 -309 c0 -2 -9
0 -20 6 -11 6 -20 13 -20 16 0 2 9 0 20 -6 11 -6 20 -13 20 -16z m86 -51 c-7
-7 -179 -54 -183 -50 -2 3 35 15 82 28 l85 24 -22 18 c-23 18 -22 18 9 1 18
-10 31 -19 29 -21z m-266 -79 c-41 -13 -79 -23 -85 -23 -14 1 127 47 145 47 8
0 -19 -11 -60 -24z m-115 -34 c-11 -5 -27 -9 -35 -9 -9 0 -8 4 5 9 11 5 27 9
35 9 9 0 8 -4 -5 -9z m-125 -36 c-41 -13 -79 -23 -85 -23 -14 1 127 47 145 47
8 0 -19 -11 -60 -24z m-115 -34 c-11 -5 -27 -9 -35 -9 -9 0 -8 4 5 9 11 5 27
9 35 9 9 0 8 -4 -5 -9z m-85 -25 c-19 -7 -42 -13 -50 -13 -8 0 1 6 20 13 19 7
42 13 50 13 8 0 -1 -6 -20 -13z m-85 -25 c-11 -5 -27 -9 -35 -9 -9 0 -8 4 5 9
11 5 27 9 35 9 9 0 8 -4 -5 -9z m-70 -20 c-11 -5 -27 -9 -35 -9 -9 0 -8 4 5 9
11 5 27 9 35 9 9 0 8 -4 -5 -9z m-85 -25 c-19 -7 -42 -13 -50 -13 -8 0 1 6 20
13 19 7 42 13 50 13 8 0 -1 -6 -20 -13z m-85 -25 c-11 -5 -27 -9 -35 -9 -9 0
-8 4 5 9 11 5 27 9 35 9 9 0 8 -4 -5 -9z m-70 -20 c-11 -5 -27 -9 -35 -9 -9 0
-8 4 5 9 11 5 27 9 35 9 9 0 8 -4 -5 -9z m1925 -75 c28 -41 48 -75 46 -75 -3
0 -28 34 -56 75 -28 41 -48 75 -46 75 3 0 28 -34 56 -75z m-2013 49 c-3 -3
-12 -4 -19 -1 -8 3 -5 6 6 6 11 1 17 -2 13 -5z m-82 -24 c-11 -5 -27 -9 -35
-9 -9 0 -8 4 5 9 11 5 27 9 35 9 9 0 8 -4 -5 -9z m-70 -20 c-11 -5 -27 -9 -35
-9 -9 0 -8 4 5 9 11 5 27 9 35 9 9 0 8 -4 -5 -9z m-88 -26 c-3 -3 -12 -4 -19
-1 -8 3 -5 6 6 6 11 1 17 -2 13 -5z m-82 -24 c-11 -5 -27 -9 -35 -9 -9 0 -8 4
5 9 11 5 27 9 35 9 9 0 8 -4 -5 -9z m-70 -20 c-11 -5 -27 -9 -35 -9 -9 0 -8 4
5 9 11 5 27 9 35 9 9 0 8 -4 -5 -9z m-88 -26 c-3 -3 -12 -4 -19 -1 -8 3 -5 6
6 6 11 1 17 -2 13 -5z m-82 -24 c-11 -5 -27 -9 -35 -9 -9 0 -8 4 5 9 11 5 27
9 35 9 9 0 8 -4 -5 -9z m2695 -60 c22 -33 38 -60 36 -60 -3 0 -24 27 -46 60
-22 33 -38 60 -36 60 3 0 24 -27 46 -60z m-2783 34 c-3 -3 -12 -4 -19 -1 -8 3
-5 6 6 6 11 1 17 -2 13 -5z m-70 -20 c-3 -3 -12 -4 -19 -1 -8 3 -5 6 6 6 11 1
17 -2 13 -5z m-170 -50 c-3 -3 -12 -4 -19 -1 -8 3 -5 6 6 6 11 1 17 -2 13 -5z
m-70 -20 c-3 -3 -12 -4 -19 -1 -8 3 -5 6 6 6 11 1 17 -2 13 -5z m-100 -30 c-3
-3 -12 -4 -19 -1 -8 3 -5 6 6 6 11 1 17 -2 13 -5z m-82 -24 c-11 -5 -27 -9
-35 -9 -9 0 -8 4 5 9 11 5 27 9 35 9 9 0 8 -4 -5 -9z m-70 -20 c-11 -5 -27 -9
-35 -9 -9 0 -8 4 5 9 11 5 27 9 35 9 9 0 8 -4 -5 -9z m3465 -45 c17 -25 29
-45 26 -45 -3 0 -19 20 -36 45 -17 25 -29 45 -26 45 3 0 19 -20 36 -45z
m-3553 19 c-3 -3 -12 -4 -19 -1 -8 3 -5 6 6 6 11 1 17 -2 13 -5z m-82 -24
c-11 -5 -27 -9 -35 -9 -9 0 -8 4 5 9 11 5 27 9 35 9 9 0 8 -4 -5 -9z m-88 -26
c-3 -3 -12 -4 -19 -1 -8 3 -5 6 6 6 11 1 17 -2 13 -5z m-70 -20 c-3 -3 -12 -4
-19 -1 -8 3 -5 6 6 6 11 1 17 -2 13 -5z m-82 -24 c-11 -5 -27 -9 -35 -9 -9 0
-8 4 5 9 11 5 27 9 35 9 9 0 8 -4 -5 -9z m-88 -26 c-3 -3 -12 -4 -19 -1 -8 3
-5 6 6 6 11 1 17 -2 13 -5z m-70 -20 c-3 -3 -12 -4 -19 -1 -8 3 -5 6 6 6 11 1
17 -2 13 -5z m-82 -24 c-11 -5 -27 -9 -35 -9 -9 0 -8 4 5 9 11 5 27 9 35 9 9
0 8 -4 -5 -9z m4245 -45 c17 -25 29 -45 26 -45 -3 0 -19 20 -36 45 -17 25 -29
45 -26 45 3 0 19 -20 36 -45z m-4333 19 c-3 -3 -12 -4 -19 -1 -8 3 -5 6 6 6
11 1 17 -2 13 -5z m-70 -20 c-3 -3 -12 -4 -19 -1 -8 3 -5 6 6 6 11 1 17 -2 13
-5z m-100 -30 c-3 -3 -12 -4 -19 -1 -8 3 -5 6 6 6 11 1 17 -2 13 -5z m-70 -20
c-3 -3 -12 -4 -19 -1 -8 3 -5 6 6 6 11 1 17 -2 13 -5z m-100 -30 c-3 -3 -12
-4 -19 -1 -8 3 -5 6 6 6 11 1 17 -2 13 -5z m-70 -20 c-3 -3 -12 -4 -19 -1 -8
3 -5 6 6 6 11 1 17 -2 13 -5z m-70 -20 c-3 -3 -12 -4 -19 -1 -8 3 -5 6 6 6 11
1 17 -2 13 -5z m4923 -39 c17 -25 29 -45 26 -45 -3 0 -19 20 -36 45 -17 25
-29 45 -26 45 3 0 19 -20 36 -45z m-5023 9 c-3 -3 -12 -4 -19 -1 -8 3 -5 6 6
6 11 1 17 -2 13 -5z m-70 -20 c-3 -3 -12 -4 -19 -1 -8 3 -5 6 6 6 11 1 17 -2
13 -5z m-70 -20 c-3 -3 -12 -4 -19 -1 -8 3 -5 6 6 6 11 1 17 -2 13 -5z m-100
-30 c-3 -3 -12 -4 -19 -1 -8 3 -5 6 6 6 11 1 17 -2 13 -5z m-70 -20 c-3 -3
-12 -4 -19 -1 -8 3 -5 6 6 6 11 1 17 -2 13 -5z m-170 -50 c-3 -3 -12 -4 -19
-1 -8 3 -5 6 6 6 11 1 17 -2 13 -5z m-70 -20 c-3 -3 -12 -4 -19 -1 -8 3 -5 6
6 6 11 1 17 -2 13 -5z m5693 -24 c12 -16 19 -30 16 -30 -2 0 -14 14 -26 30
-12 17 -19 30 -16 30 2 0 14 -13 26 -30z m-5793 -6 c-3 -3 -12 -4 -19 -1 -8 3
-5 6 6 6 11 1 17 -2 13 -5z m3911 -1008 c441 -411 802 -749 802 -752 0 -3
-111 98 -247 225 -137 126 -560 519 -942 873 -382 353 -697 650 -699 658 -3 8
60 -46 139 -121 79 -74 505 -471 947 -883z m-3981 988 c-3 -3 -12 -4 -19 -1
-8 3 -5 6 6 6 11 1 17 -2 13 -5z m2890 -41 c-3 -10 -5 -4 -5 12 0 17 2 24 5
18 2 -7 2 -21 0 -30z m-3060 -9 c-3 -3 -12 -4 -19 -1 -8 3 -5 6 6 6 11 1 17
-2 13 -5z m-70 -20 c-3 -3 -12 -4 -19 -1 -8 3 -5 6 6 6 11 1 17 -2 13 -5z
m3120 -36 c-3 -7 -5 -2 -5 12 0 14 2 19 5 13 2 -7 2 -19 0 -25z m-10 -65 c-3
-10 -5 -4 -5 12 0 17 2 24 5 18 2 -7 2 -21 0 -30z m-10 -70 c-3 -10 -5 -4 -5
12 0 17 2 24 5 18 2 -7 2 -21 0 -30z m3014 -40 c-12 -20 -14 -14 -5 12 4 9 9
14 11 11 3 -2 0 -13 -6 -23z m-3024 -30 c-3 -10 -5 -4 -5 12 0 17 2 24 5 18 2
-7 2 -21 0 -30z m3004 -20 c-12 -20 -14 -14 -5 12 4 9 9 14 11 11 3 -2 0 -13
-6 -23z m-3014 -50 c-3 -10 -5 -2 -5 17 0 19 2 27 5 18 2 -10 2 -26 0 -35z
m2994 0 c-12 -20 -14 -14 -5 12 4 9 9 14 11 11 3 -2 0 -13 -6 -23z m-3004 -70
c-3 -10 -5 -2 -5 17 0 19 2 27 5 18 2 -10 2 -26 0 -35z m2984 20 c-12 -20 -14
-14 -5 12 4 9 9 14 11 11 3 -2 0 -13 -6 -23z m-20 -50 c-12 -20 -14 -14 -5 12
4 9 9 14 11 11 3 -2 0 -13 -6 -23z m-2974 -30 c-3 -10 -5 -4 -5 12 0 17 2 24
5 18 2 -7 2 -21 0 -30z m2954 -20 c-12 -20 -14 -14 -5 12 4 9 9 14 11 11 3 -2
0 -13 -6 -23z m-2964 -50 c-3 -10 -5 -2 -5 17 0 19 2 27 5 18 2 -10 2 -26 0
-35z m2944 0 c-12 -20 -14 -14 -5 12 4 9 9 14 11 11 3 -2 0 -13 -6 -23z
m-2954 -70 c-3 -10 -5 -2 -5 17 0 19 2 27 5 18 2 -10 2 -26 0 -35z m-17 -123
c-7 -50 -15 -88 -17 -86 -3 3 1 46 7 96 7 50 15 88 17 86 3 -3 -1 -46 -7 -96z
m4429 -29 c-7 -23 -14 -39 -16 -37 -3 2 1 23 8 45 7 23 14 39 16 37 3 -2 -1
-23 -8 -45z m-30 -100 c-7 -23 -14 -39 -16 -37 -3 2 1 23 8 45 7 23 14 39 16
37 3 -2 -1 -23 -8 -45z m-4422 -18 c-3 -10 -5 -2 -5 17 0 19 2 27 5 18 2 -10
2 -26 0 -35z m4387 -97 c-3 -15 -8 -25 -11 -23 -2 3 -1 17 3 31 3 15 8 25 11
23 2 -3 1 -17 -3 -31z m-30 -100 c-3 -15 -8 -25 -11 -23 -2 3 -1 17 3 31 3 15
8 25 11 23 2 -3 1 -17 -3 -31z m-54 -121 c-13 -13 -157 -152 -321 -307 -164
-155 -297 -283 -296 -284 1 -1 333 29 737 67 404 38 749 68 765 67 17 -2 -316
-36 -740 -76 l-770 -72 -1065 -1068 c-585 -587 -1024 -1024 -975 -972 200 213
2083 2105 2353 2365 200 192 287 282 279 288 -8 6 -4 7 11 4 12 -3 22 -1 22 4
0 5 5 9 12 9 6 0 1 -11 -12 -25z m-53 -1 c-3 -3 -12 -4 -19 -1 -8 3 -5 6 6 6
11 1 17 -2 13 -5z m-40 -10 c-3 -3 -12 -4 -19 -1 -8 3 -5 6 6 6 11 1 17 -2 13
-5z m-230 -60 c-3 -3 -12 -4 -19 -1 -8 3 -5 6 6 6 11 1 17 -2 13 -5z m-40 -10
c-3 -3 -12 -4 -19 -1 -8 3 -5 6 6 6 11 1 17 -2 13 -5z m-40 -10 c-3 -3 -12 -4
-19 -1 -8 3 -5 6 6 6 11 1 17 -2 13 -5z m-40 -10 c-3 -3 -12 -4 -19 -1 -8 3
-5 6 6 6 11 1 17 -2 13 -5z m-40 -10 c-3 -3 -12 -4 -19 -1 -8 3 -5 6 6 6 11 1
17 -2 13 -5z m-40 -10 c-3 -3 -12 -4 -19 -1 -8 3 -5 6 6 6 11 1 17 -2 13 -5z
m-40 -10 c-3 -3 -12 -4 -19 -1 -8 3 -5 6 6 6 11 1 17 -2 13 -5z m-40 -10 c-3
-3 -12 -4 -19 -1 -8 3 -5 6 6 6 11 1 17 -2 13 -5z m-52 -14 c-11 -5 -27 -9
-35 -9 -9 0 -8 4 5 9 11 5 27 9 35 9 9 0 8 -4 -5 -9z m-58 -16 c-3 -3 -12 -4
-19 -1 -8 3 -5 6 6 6 11 1 17 -2 13 -5z m-40 -10 c-3 -3 -12 -4 -19 -1 -8 3
-5 6 6 6 11 1 17 -2 13 -5z m-40 -10 c-3 -3 -12 -4 -19 -1 -8 3 -5 6 6 6 11 1
17 -2 13 -5z m-40 -10 c-3 -3 -12 -4 -19 -1 -8 3 -5 6 6 6 11 1 17 -2 13 -5z
m-40 -10 c-3 -3 -12 -4 -19 -1 -8 3 -5 6 6 6 11 1 17 -2 13 -5z m-40 -10 c-3
-3 -12 -4 -19 -1 -8 3 -5 6 6 6 11 1 17 -2 13 -5z m-40 -10 c-3 -3 -12 -4 -19
-1 -8 3 -5 6 6 6 11 1 17 -2 13 -5z m4301 -1 c-10 -2 -28 -2 -40 0 -13 2 -5 4
17 4 22 1 32 -1 23 -4z m-4341 -9 c-3 -3 -12 -4 -19 -1 -8 3 -5 6 6 6 11 1 17
-2 13 -5z m4231 -1 c-10 -2 -26 -2 -35 0 -10 3 -2 5 17 5 19 0 27 -2 18 -5z
m-4269 -7 c-7 -7 -171 -47 -176 -43 -2 3 31 14 74 25 78 20 110 26 102 18z
m4154 -3 c-7 -2 -21 -2 -30 0 -10 3 -4 5 12 5 17 0 24 -2 18 -5z m-110 -10
c-7 -2 -21 -2 -30 0 -10 3 -4 5 12 5 17 0 24 -2 18 -5z m-116 -9 c-3 -3 -12
-4 -19 -1 -8 3 -5 6 6 6 11 1 17 -2 13 -5z m-4120 -30 c-3 -3 -12 -4 -19 -1
-8 3 -5 6 6 6 11 1 17 -2 13 -5z m-40 -10 c-3 -3 -12 -4 -19 -1 -8 3 -5 6 6 6
11 1 17 -2 13 -5z m-40 -10 c-3 -3 -12 -4 -19 -1 -8 3 -5 6 6 6 11 1 17 -2 13
-5z m-40 -10 c-3 -3 -12 -4 -19 -1 -8 3 -5 6 6 6 11 1 17 -2 13 -5z m-38 -8
c-7 -8 -331 -87 -336 -83 -2 3 67 23 154 45 153 39 191 47 182 38z m3122 -83
c-10 -27 -112 -301 -226 -610 -115 -310 -210 -561 -212 -559 -2 1 96 272 217
600 121 329 220 599 220 601 0 2 -17 6 -37 8 -35 3 -34 4 9 5 l48 2 -19 -47z
m-108 30 c-13 -2 -35 -2 -50 0 -16 2 -5 4 22 4 28 0 40 -2 28 -4z m-110 -10
c-13 -2 -33 -2 -45 0 -13 2 -3 4 22 4 25 0 35 -2 23 -4z m-100 -10 c-13 -2
-35 -2 -50 0 -16 2 -5 4 22 4 28 0 40 -2 28 -4z m-3167 -36 c-7 -12 -37 -79
-66 -150 -29 -70 -54 -126 -56 -124 -8 7 119 307 127 301 5 -3 3 -15 -5 -27z
m3057 26 c-13 -2 -35 -2 -50 0 -16 2 -5 4 22 4 28 0 40 -2 28 -4z m-105 -10
c-16 -2 -40 -2 -55 0 -16 2 -3 4 27 4 30 0 43 -2 28 -4z m-143 -13 c-33 -4
-80 -8 -105 -7 -44 0 -44 0 10 7 30 4 78 7 105 7 l50 0 -60 -7z m-3265 -125
c35 -36 62 -65 59 -65 -2 0 -34 29 -69 65 -35 36 -62 65 -59 65 2 0 34 -29 69
-65z m145 -135 c27 -27 47 -50 44 -50 -3 0 -27 23 -54 50 -27 28 -47 50 -44
50 3 0 27 -22 54 -50z m176 -57 c-12 -20 -14 -14 -5 12 4 9 9 14 11 11 3 -2 0
-13 -6 -23z m-20 -50 c-12 -20 -14 -14 -5 12 4 9 9 14 11 11 3 -2 0 -13 -6
-23z m-31 -8 c13 -14 21 -25 18 -25 -2 0 -15 11 -28 25 -13 14 -21 25 -18 25
2 0 15 -11 28 -25z m3219 -824 c-6 -18 -13 -30 -15 -28 -2 2 1 18 7 36 6 18
13 30 15 28 2 -2 -1 -18 -7 -36z m-35 -95 c-9 -26 -18 -45 -20 -43 -2 2 3 25
12 51 9 26 18 45 20 43 2 -2 -3 -25 -12 -51z m-35 -95 c-6 -18 -13 -30 -15
-28 -2 2 1 18 7 36 6 18 13 30 15 28 2 -2 -1 -18 -7 -36z m-30 -80 c-6 -18
-13 -30 -15 -28 -2 2 1 18 7 36 6 18 13 30 15 28 2 -2 -1 -18 -7 -36z m-40
-110 c-6 -18 -13 -30 -15 -28 -2 2 1 18 7 36 6 18 13 30 15 28 2 -2 -1 -18 -7
-36z m-30 -80 c-6 -18 -13 -30 -15 -28 -2 2 1 18 7 36 6 18 13 30 15 28 2 -2
-1 -18 -7 -36z m-38 -98 c-12 -20 -14 -14 -5 12 4 9 9 14 11 11 3 -2 0 -13 -6
-23z m-30 -80 c-12 -20 -14 -14 -5 12 4 9 9 14 11 11 3 -2 0 -13 -6 -23z m-33
-95 c-3 -8 172 -150 429 -348 239 -184 438 -339 441 -345 3 -5 -12 4 -33 21
-290 227 -837 644 -845 644 -5 0 -10 2 -10 4 0 10 13 36 17 36 3 0 3 -6 1 -12z
m-3761 -420 c-3 -7 -5 -2 -5 12 0 14 2 19 5 13 2 -7 2 -19 0 -25z m10 -75 c-3
-10 -5 -4 -5 12 0 17 2 24 5 18 2 -7 2 -21 0 -30z m10 -70 c-3 -10 -5 -4 -5
12 0 17 2 24 5 18 2 -7 2 -21 0 -30z m10 -70 c-3 -10 -5 -4 -5 12 0 17 2 24 5
18 2 -7 2 -21 0 -30z m3470 -29 c-3 -3 -12 -4 -19 -1 -8 3 -5 6 6 6 11 1 17
-2 13 -5z m-54 -11 c-7 -2 -19 -2 -25 0 -7 3 -2 5 12 5 14 0 19 -2 13 -5z
m-3406 -40 c-3 -10 -5 -4 -5 12 0 17 2 24 5 18 2 -7 2 -21 0 -30z m3356 30
c-7 -2 -19 -2 -25 0 -7 3 -2 5 12 5 14 0 19 -2 13 -5z m-60 -10 c-7 -2 -19 -2
-25 0 -7 3 -2 5 12 5 14 0 19 -2 13 -5z m-50 -10 c-7 -2 -19 -2 -25 0 -7 3 -2
5 12 5 14 0 19 -2 13 -5z m1564 -157 c4 -5 -40 26 -96 69 -56 44 -105 83 -108
89 -4 5 40 -26 96 -69 56 -44 105 -83 108 -89z m-1620 148 c-3 -3 -12 -4 -19
-1 -8 3 -5 6 6 6 11 1 17 -2 13 -5z m-54 -11 c-7 -2 -19 -2 -25 0 -7 3 -2 5
12 5 14 0 19 -2 13 -5z m-56 -9 c-3 -3 -12 -4 -19 -1 -8 3 -5 6 6 6 11 1 17
-2 13 -5z m-54 -11 c-7 -2 -19 -2 -25 0 -7 3 -2 5 12 5 14 0 19 -2 13 -5z
m-3016 -40 c-3 -10 -5 -4 -5 12 0 17 2 24 5 18 2 -7 2 -21 0 -30z m2960 31
c-3 -3 -12 -4 -19 -1 -8 3 -5 6 6 6 11 1 17 -2 13 -5z m-54 -11 c-7 -2 -19 -2
-25 0 -7 3 -2 5 12 5 14 0 19 -2 13 -5z m-50 -10 c-7 -2 -19 -2 -25 0 -7 3 -2
5 12 5 14 0 19 -2 13 -5z m-60 -10 c-7 -2 -19 -2 -25 0 -7 3 -2 5 12 5 14 0
19 -2 13 -5z m-50 -10 c-7 -2 -19 -2 -25 0 -7 3 -2 5 12 5 14 0 19 -2 13 -5z
m-56 -9 c-3 -3 -12 -4 -19 -1 -8 3 -5 6 6 6 11 1 17 -2 13 -5z m-54 -11 c-7
-2 -19 -2 -25 0 -7 3 -2 5 12 5 14 0 19 -2 13 -5z m-2626 -40 c-3 -10 -5 -4
-5 12 0 17 2 24 5 18 2 -7 2 -21 0 -30z m2570 31 c-3 -3 -12 -4 -19 -1 -8 3
-5 6 6 6 11 1 17 -2 13 -5z m-54 -11 c-7 -2 -19 -2 -25 0 -7 3 -2 5 12 5 14 0
19 -2 13 -5z m-50 -10 c-7 -2 -19 -2 -25 0 -7 3 -2 5 12 5 14 0 19 -2 13 -5z
m-60 -10 c-7 -2 -19 -2 -25 0 -7 3 -2 5 12 5 14 0 19 -2 13 -5z m-50 -10 c-7
-2 -19 -2 -25 0 -7 3 -2 5 12 5 14 0 19 -2 13 -5z m-60 -10 c-7 -2 -19 -2 -25
0 -7 3 -2 5 12 5 14 0 19 -2 13 -5z m2627 -89 c0 -3 -27 16 -60 41 -33 25 -60
48 -60 51 0 3 27 -16 60 -41 33 -25 60 -48 60 -51z m-2677 79 c-7 -2 -19 -2
-25 0 -7 3 -2 5 12 5 14 0 19 -2 13 -5z m-2236 -50 c-3 -10 -5 -2 -5 17 0 19
2 27 5 18 2 -10 2 -26 0 -35z m2180 41 c-3 -3 -12 -4 -19 -1 -8 3 -5 6 6 6 11
1 17 -2 13 -5z m-54 -11 c-7 -2 -19 -2 -25 0 -7 3 -2 5 12 5 14 0 19 -2 13 -5z
m-56 -9 c-3 -3 -12 -4 -19 -1 -8 3 -5 6 6 6 11 1 17 -2 13 -5z m-54 -11 c-7
-2 -19 -2 -25 0 -7 3 -2 5 12 5 14 0 19 -2 13 -5z m7064 -15 c-3 -8 -6 -5 -6
6 -1 11 2 17 5 13 3 -3 4 -12 1 -19z m-7114 5 c-7 -2 -19 -2 -25 0 -7 3 -2 5
12 5 14 0 19 -2 13 -5z m-60 -10 c-7 -2 -19 -2 -25 0 -7 3 -2 5 12 5 14 0 19
-2 13 -5z m-50 -10 c-7 -2 -19 -2 -25 0 -7 3 -2 5 12 5 14 0 19 -2 13 -5z
m-1846 -50 c-3 -10 -5 -2 -5 17 0 19 2 27 5 18 2 -10 2 -26 0 -35z m1790 41
c-3 -3 -12 -4 -19 -1 -8 3 -5 6 6 6 11 1 17 -2 13 -5z m-54 -11 c-7 -2 -19 -2
-25 0 -7 3 -2 5 12 5 14 0 19 -2 13 -5z m3384 -157 c4 -5 -40 26 -96 69 -56
44 -105 83 -108 89 -4 5 40 -26 96 -69 56 -44 105 -83 108 -89z m-3440 148
c-3 -3 -12 -4 -19 -1 -8 3 -5 6 6 6 11 1 17 -2 13 -5z m-54 -11 c-7 -2 -19 -2
-25 0 -7 3 -2 5 12 5 14 0 19 -2 13 -5z m-56 -9 c-3 -3 -12 -4 -19 -1 -8 3 -5
6 6 6 11 1 17 -2 13 -5z m-54 -11 c-7 -2 -19 -2 -25 0 -7 3 -2 5 12 5 14 0 19
-2 13 -5z m-50 -10 c-7 -2 -19 -2 -25 0 -7 3 -2 5 12 5 14 0 19 -2 13 -5z
m-1456 -50 c-3 -10 -5 -2 -5 17 0 19 2 27 5 18 2 -10 2 -26 0 -35z m1396 40
c-7 -2 -19 -2 -25 0 -7 3 -2 5 12 5 14 0 19 -2 13 -5z m-50 -10 c-7 -2 -19 -2
-25 0 -7 3 -2 5 12 5 14 0 19 -2 13 -5z m-56 -9 c-3 -3 -12 -4 -19 -1 -8 3 -5
6 6 6 11 1 17 -2 13 -5z m-54 -11 c-7 -2 -19 -2 -25 0 -7 3 -2 5 12 5 14 0 19
-2 13 -5z m-56 -9 c-3 -3 -12 -4 -19 -1 -8 3 -5 6 6 6 11 1 17 -2 13 -5z m-54
-11 c-7 -2 -19 -2 -25 0 -7 3 -2 5 12 5 14 0 19 -2 13 -5z m-50 -10 c-7 -2
-19 -2 -25 0 -7 3 -2 5 12 5 14 0 19 -2 13 -5z m-60 -10 c-7 -2 -19 -2 -25 0
-7 3 -2 5 12 5 14 0 19 -2 13 -5z m-1006 -50 c-3 -10 -5 -2 -5 17 0 19 2 27 5
18 2 -10 2 -26 0 -35z m956 40 c-7 -2 -19 -2 -25 0 -7 3 -2 5 12 5 14 0 19 -2
13 -5z m-60 -10 c-7 -2 -19 -2 -25 0 -7 3 -2 5 12 5 14 0 19 -2 13 -5z m8184
-15 c-3 -8 -6 -5 -6 6 -1 11 2 17 5 13 3 -3 4 -12 1 -19z m-8234 5 c-7 -2 -19
-2 -25 0 -7 3 -2 5 12 5 14 0 19 -2 13 -5z m-56 -9 c-3 -3 -12 -4 -19 -1 -8 3
-5 6 6 6 11 1 17 -2 13 -5z m4443 -90 c0 -3 -27 16 -60 41 -33 25 -60 48 -60
51 0 3 27 -16 60 -41 33 -25 60 -48 60 -51z m-4497 79 c-7 -2 -19 -2 -25 0 -7
3 -2 5 12 5 14 0 19 -2 13 -5z m-56 -9 c-3 -3 -12 -4 -19 -1 -8 3 -5 6 6 6 11
1 17 -2 13 -5z m-54 -11 c-7 -2 -19 -2 -25 0 -7 3 -2 5 12 5 14 0 19 -2 13 -5z
m-616 -50 c-3 -10 -5 -2 -5 17 0 19 2 27 5 18 2 -10 2 -26 0 -35z m566 40 c-7
-2 -19 -2 -25 0 -7 3 -2 5 12 5 14 0 19 -2 13 -5z m-60 -10 c-7 -2 -19 -2 -25
0 -7 3 -2 5 12 5 14 0 19 -2 13 -5z m8574 -15 c-3 -8 -6 -5 -6 6 -1 11 2 17 5
13 3 -3 4 -12 1 -19z m-8624 5 c-7 -2 -19 -2 -25 0 -7 3 -2 5 12 5 14 0 19 -2
13 -5z m-56 -9 c-3 -3 -12 -4 -19 -1 -8 3 -5 6 6 6 11 1 17 -2 13 -5z m-54
-11 c-7 -2 -19 -2 -25 0 -7 3 -2 5 12 5 14 0 19 -2 13 -5z m-56 -9 c-3 -3 -12
-4 -19 -1 -8 3 -5 6 6 6 11 1 17 -2 13 -5z m-54 -11 c-7 -2 -19 -2 -25 0 -7 3
-2 5 12 5 14 0 19 -2 13 -5z m5077 -60 c0 -2 -18 10 -40 27 -22 17 -40 34 -40
37 0 2 18 -10 40 -27 22 -17 40 -34 40 -37z m-5133 51 c-3 -3 -12 -4 -19 -1
-8 3 -5 6 6 6 11 1 17 -2 13 -5z m-54 -11 c-7 -2 -19 -2 -25 0 -7 3 -2 5 12 5
14 0 19 -2 13 -5z m8964 -15 c-3 -8 -6 -5 -6 6 -1 11 2 17 5 13 3 -3 4 -12 1
-19z m-9014 5 c-7 -2 -19 -2 -25 0 -7 3 -2 5 12 5 14 0 19 -2 13 -5z m4 -19
c-3 -3 -12 -4 -19 -1 -8 3 -5 6 6 6 11 1 17 -2 13 -5z m50 -10 c-3 -3 -12 -4
-19 -1 -8 3 -5 6 6 6 11 1 17 -2 13 -5z m50 -10 c-3 -3 -12 -4 -19 -1 -8 3 -5
6 6 6 11 1 17 -2 13 -5z m5164 -11 c13 -16 12 -17 -3 -4 -17 13 -22 21 -14 21
2 0 10 -8 17 -17z m-5114 1 c-3 -3 -12 -4 -19 -1 -8 3 -5 6 6 6 11 1 17 -2 13
-5z m8870 -26 c-3 -7 -5 -2 -5 12 0 14 2 19 5 13 2 -7 2 -19 0 -25z m-8820 16
c-3 -3 -12 -4 -19 -1 -8 3 -5 6 6 6 11 1 17 -2 13 -5z m50 -10 c-3 -3 -12 -4
-19 -1 -8 3 -5 6 6 6 11 1 17 -2 13 -5z m5113 -61 c0 -2 -18 10 -40 27 -22 17
-40 34 -40 37 0 2 18 -10 40 -27 22 -17 40 -34 40 -37z m-5063 51 c-3 -3 -12
-4 -19 -1 -8 3 -5 6 6 6 11 1 17 -2 13 -5z m50 -10 c-3 -3 -12 -4 -19 -1 -8 3
-5 6 6 6 11 1 17 -2 13 -5z m50 -10 c-3 -3 -12 -4 -19 -1 -8 3 -5 6 6 6 11 1
17 -2 13 -5z m56 -11 c-7 -2 -19 -2 -25 0 -7 3 -2 5 12 5 14 0 19 -2 13 -5z
m50 -10 c-7 -2 -19 -2 -25 0 -7 3 -2 5 12 5 14 0 19 -2 13 -5z m8524 -15 c-3
-8 -6 -5 -6 6 -1 11 2 17 5 13 3 -3 4 -12 1 -19z m-8474 5 c-7 -2 -19 -2 -25
0 -7 3 -2 5 12 5 14 0 19 -2 13 -5z m54 -9 c-3 -3 -12 -4 -19 -1 -8 3 -5 6 6
6 11 1 17 -2 13 -5z m4883 -90 c0 -3 -27 16 -60 41 -33 25 -60 48 -60 51 0 3
27 -16 60 -41 33 -25 60 -48 60 -51z m-4833 80 c-3 -3 -12 -4 -19 -1 -8 3 -5
6 6 6 11 1 17 -2 13 -5z m50 -10 c-3 -3 -12 -4 -19 -1 -8 3 -5 6 6 6 11 1 17
-2 13 -5z m50 -10 c-3 -3 -12 -4 -19 -1 -8 3 -5 6 6 6 11 1 17 -2 13 -5z m50
-10 c-3 -3 -12 -4 -19 -1 -8 3 -5 6 6 6 11 1 17 -2 13 -5z m8230 -26 c-3 -7
-5 -2 -5 12 0 14 2 19 5 13 2 -7 2 -19 0 -25z m-8180 16 c-3 -3 -12 -4 -19 -1
-8 3 -5 6 6 6 11 1 17 -2 13 -5z m50 -10 c-3 -3 -12 -4 -19 -1 -8 3 -5 6 6 6
11 1 17 -2 13 -5z m50 -10 c-3 -3 -12 -4 -19 -1 -8 3 -5 6 6 6 11 1 17 -2 13
-5z m50 -10 c-3 -3 -12 -4 -19 -1 -8 3 -5 6 6 6 11 1 17 -2 13 -5z m56 -11
c-7 -2 -19 -2 -25 0 -7 3 -2 5 12 5 14 0 19 -2 13 -5z m50 -10 c-7 -2 -19 -2
-25 0 -7 3 -2 5 12 5 14 0 19 -2 13 -5z m50 -10 c-7 -2 -19 -2 -25 0 -7 3 -2
5 12 5 14 0 19 -2 13 -5z m7884 -25 c-3 -7 -5 -2 -5 12 0 14 2 19 5 13 2 -7 2
-19 0 -25z m-7830 16 c-3 -3 -12 -4 -19 -1 -8 3 -5 6 6 6 11 1 17 -2 13 -5z
m50 -10 c-3 -3 -12 -4 -19 -1 -8 3 -5 6 6 6 11 1 17 -2 13 -5z m50 -10 c-3 -3
-12 -4 -19 -1 -8 3 -5 6 6 6 11 1 17 -2 13 -5z m50 -10 c-3 -3 -12 -4 -19 -1
-8 3 -5 6 6 6 11 1 17 -2 13 -5z m50 -10 c-3 -3 -12 -4 -19 -1 -8 3 -5 6 6 6
11 1 17 -2 13 -5z m50 -10 c-3 -3 -12 -4 -19 -1 -8 3 -5 6 6 6 11 1 17 -2 13
-5z m50 -10 c-3 -3 -12 -4 -19 -1 -8 3 -5 6 6 6 11 1 17 -2 13 -5z m7540 -26
c-3 -7 -5 -2 -5 12 0 14 2 19 5 13 2 -7 2 -19 0 -25z m-7490 16 c-3 -3 -12 -4
-19 -1 -8 3 -5 6 6 6 11 1 17 -2 13 -5z m50 -10 c-3 -3 -12 -4 -19 -1 -8 3 -5
6 6 6 11 1 17 -2 13 -5z m56 -11 c-7 -2 -19 -2 -25 0 -7 3 -2 5 12 5 14 0 19
-2 13 -5z m50 -10 c-7 -2 -19 -2 -25 0 -7 3 -2 5 12 5 14 0 19 -2 13 -5z m50
-10 c-7 -2 -19 -2 -25 0 -7 3 -2 5 12 5 14 0 19 -2 13 -5z m54 -9 c-3 -3 -12
-4 -19 -1 -8 3 -5 6 6 6 11 1 17 -2 13 -5z m7240 -31 c-3 -10 -5 -4 -5 12 0
17 2 24 5 18 2 -7 2 -21 0 -30z m-7190 21 c-3 -3 -12 -4 -19 -1 -8 3 -5 6 6 6
11 1 17 -2 13 -5z m50 -10 c-3 -3 -12 -4 -19 -1 -8 3 -5 6 6 6 11 1 17 -2 13
-5z m50 -10 c-3 -3 -12 -4 -19 -1 -8 3 -5 6 6 6 11 1 17 -2 13 -5z m50 -10
c-3 -3 -12 -4 -19 -1 -8 3 -5 6 6 6 11 1 17 -2 13 -5z m50 -10 c-3 -3 -12 -4
-19 -1 -8 3 -5 6 6 6 11 1 17 -2 13 -5z m50 -10 c-3 -3 -12 -4 -19 -1 -8 3 -5
6 6 6 11 1 17 -2 13 -5z m50 -10 c-3 -3 -12 -4 -19 -1 -8 3 -5 6 6 6 11 1 17
-2 13 -5z m6900 -31 c-3 -10 -5 -4 -5 12 0 17 2 24 5 18 2 -7 2 -21 0 -30z
m-6850 21 c-3 -3 -12 -4 -19 -1 -8 3 -5 6 6 6 11 1 17 -2 13 -5z m56 -11 c-7
-2 -19 -2 -25 0 -7 3 -2 5 12 5 14 0 19 -2 13 -5z m50 -10 c-7 -2 -19 -2 -25
0 -7 3 -2 5 12 5 14 0 19 -2 13 -5z m50 -10 c-7 -2 -19 -2 -25 0 -7 3 -2 5 12
5 14 0 19 -2 13 -5z m54 -9 c-3 -3 -12 -4 -19 -1 -8 3 -5 6 6 6 11 1 17 -2 13
-5z m50 -10 c-3 -3 -12 -4 -19 -1 -8 3 -5 6 6 6 11 1 17 -2 13 -5z m50 -10
c-3 -3 -12 -4 -19 -1 -8 3 -5 6 6 6 11 1 17 -2 13 -5z m6550 -26 c-3 -7 -5 -2
-5 12 0 14 2 19 5 13 2 -7 2 -19 0 -25z m-6500 16 c-3 -3 -12 -4 -19 -1 -8 3
-5 6 6 6 11 1 17 -2 13 -5z m50 -10 c-3 -3 -12 -4 -19 -1 -8 3 -5 6 6 6 11 1
17 -2 13 -5z m50 -10 c-3 -3 -12 -4 -19 -1 -8 3 -5 6 6 6 11 1 17 -2 13 -5z
m50 -10 c-3 -3 -12 -4 -19 -1 -8 3 -5 6 6 6 11 1 17 -2 13 -5z m50 -10 c-3 -3
-12 -4 -19 -1 -8 3 -5 6 6 6 11 1 17 -2 13 -5z m50 -10 c-3 -3 -12 -4 -19 -1
-8 3 -5 6 6 6 11 1 17 -2 13 -5z m6260 -31 c-3 -10 -5 -4 -5 12 0 17 2 24 5
18 2 -7 2 -21 0 -30z m-6204 20 c-7 -2 -19 -2 -25 0 -7 3 -2 5 12 5 14 0 19
-2 13 -5z m50 -10 c-7 -2 -19 -2 -25 0 -7 3 -2 5 12 5 14 0 19 -2 13 -5z m50
-10 c-7 -2 -19 -2 -25 0 -7 3 -2 5 12 5 14 0 19 -2 13 -5z m54 -9 c-3 -3 -12
-4 -19 -1 -8 3 -5 6 6 6 11 1 17 -2 13 -5z m50 -10 c-3 -3 -12 -4 -19 -1 -8 3
-5 6 6 6 11 1 17 -2 13 -5z m50 -10 c-3 -3 -12 -4 -19 -1 -8 3 -5 6 6 6 11 1
17 -2 13 -5z m50 -10 c-3 -3 -12 -4 -19 -1 -8 3 -5 6 6 6 11 1 17 -2 13 -5z
m5910 -31 c-3 -10 -5 -4 -5 12 0 17 2 24 5 18 2 -7 2 -21 0 -30z m-5860 21
c-3 -3 -12 -4 -19 -1 -8 3 -5 6 6 6 11 1 17 -2 13 -5z m50 -10 c-3 -3 -12 -4
-19 -1 -8 3 -5 6 6 6 11 1 17 -2 13 -5z m50 -10 c-3 -3 -12 -4 -19 -1 -8 3 -5
6 6 6 11 1 17 -2 13 -5z m50 -10 c-3 -3 -12 -4 -19 -1 -8 3 -5 6 6 6 11 1 17
-2 13 -5z m56 -11 c-7 -2 -19 -2 -25 0 -7 3 -2 5 12 5 14 0 19 -2 13 -5z m50
-10 c-7 -2 -19 -2 -25 0 -7 3 -2 5 12 5 14 0 19 -2 13 -5z m50 -10 c-7 -2 -19
-2 -25 0 -7 3 -2 5 12 5 14 0 19 -2 13 -5z m5564 -30 c-3 -10 -5 -4 -5 12 0
17 2 24 5 18 2 -7 2 -21 0 -30z m-5514 20 c-7 -2 -19 -2 -25 0 -7 3 -2 5 12 5
14 0 19 -2 13 -5z m54 -9 c-3 -3 -12 -4 -19 -1 -8 3 -5 6 6 6 11 1 17 -2 13
-5z m50 -10 c-3 -3 -12 -4 -19 -1 -8 3 -5 6 6 6 11 1 17 -2 13 -5z m50 -10
c-3 -3 -12 -4 -19 -1 -8 3 -5 6 6 6 11 1 17 -2 13 -5z m5370 -61 c-3 -10 -5
-2 -5 17 0 19 2 27 5 18 2 -10 2 -26 0 -35z m-5010 -9 c-3 -3 -12 -4 -19 -1
-8 3 -5 6 6 6 11 1 17 -2 13 -5z m50 -10 c-3 -3 -12 -4 -19 -1 -8 3 -5 6 6 6
11 1 17 -2 13 -5z m50 -10 c-3 -3 -12 -4 -19 -1 -8 3 -5 6 6 6 11 1 17 -2 13
-5z m4920 -41 c-3 -10 -5 -2 -5 17 0 19 2 27 5 18 2 -10 2 -26 0 -35z m-4870
31 c-3 -3 -12 -4 -19 -1 -8 3 -5 6 6 6 11 1 17 -2 13 -5z m50 -10 c-3 -3 -12
-4 -19 -1 -8 3 -5 6 6 6 11 1 17 -2 13 -5z m50 -10 c-3 -3 -12 -4 -19 -1 -8 3
-5 6 6 6 11 1 17 -2 13 -5z m50 -10 c-3 -3 -12 -4 -19 -1 -8 3 -5 6 6 6 11 1
17 -2 13 -5z m4730 -61 c-3 -10 -5 -4 -5 12 0 17 2 24 5 18 2 -7 2 -21 0 -30z
m-4470 11 c-3 -3 -12 -4 -19 -1 -8 3 -5 6 6 6 11 1 17 -2 13 -5z m50 -10 c-3
-3 -12 -4 -19 -1 -8 3 -5 6 6 6 11 1 17 -2 13 -5z m50 -10 c-3 -3 -12 -4 -19
-1 -8 3 -5 6 6 6 11 1 17 -2 13 -5z m50 -10 c-3 -3 -12 -4 -19 -1 -8 3 -5 6 6
6 11 1 17 -2 13 -5z m50 -10 c-3 -3 -12 -4 -19 -1 -8 3 -5 6 6 6 11 1 17 -2
13 -5z m4280 -41 c-3 -10 -5 -2 -5 17 0 19 2 27 5 18 2 -10 2 -26 0 -35z
m-4230 31 c-3 -3 -12 -4 -19 -1 -8 3 -5 6 6 6 11 1 17 -2 13 -5z m50 -10 c-3
-3 -12 -4 -19 -1 -8 3 -5 6 6 6 11 1 17 -2 13 -5z m50 -10 c-3 -3 -12 -4 -19
-1 -8 3 -5 6 6 6 11 1 17 -2 13 -5z m50 -10 c-3 -3 -12 -4 -19 -1 -8 3 -5 6 6
6 11 1 17 -2 13 -5z m50 -10 c-3 -3 -12 -4 -19 -1 -8 3 -5 6 6 6 11 1 17 -2
13 -5z m50 -10 c-3 -3 -12 -4 -19 -1 -8 3 -5 6 6 6 11 1 17 -2 13 -5z m56 -11
c-7 -2 -19 -2 -25 0 -7 3 -2 5 12 5 14 0 19 -2 13 -5z m50 -10 c-7 -2 -19 -2
-25 0 -7 3 -2 5 12 5 14 0 19 -2 13 -5z m3874 -30 c-3 -10 -5 -4 -5 12 0 17 2
24 5 18 2 -7 2 -21 0 -30z m-3820 21 c-3 -3 -12 -4 -19 -1 -8 3 -5 6 6 6 11 1
17 -2 13 -5z m50 -10 c-3 -3 -12 -4 -19 -1 -8 3 -5 6 6 6 11 1 17 -2 13 -5z
m50 -10 c-3 -3 -12 -4 -19 -1 -8 3 -5 6 6 6 11 1 17 -2 13 -5z m50 -10 c-3 -3
-12 -4 -19 -1 -8 3 -5 6 6 6 11 1 17 -2 13 -5z m50 -10 c-3 -3 -12 -4 -19 -1
-8 3 -5 6 6 6 11 1 17 -2 13 -5z m50 -10 c-3 -3 -12 -4 -19 -1 -8 3 -5 6 6 6
11 1 17 -2 13 -5z m50 -10 c-3 -3 -12 -4 -19 -1 -8 3 -5 6 6 6 11 1 17 -2 13
-5z m3510 -26 c-3 -7 -5 -2 -5 12 0 14 2 19 5 13 2 -7 2 -19 0 -25z m-3460 16
c-3 -3 -12 -4 -19 -1 -8 3 -5 6 6 6 11 1 17 -2 13 -5z m50 -10 c-3 -3 -12 -4
-19 -1 -8 3 -5 6 6 6 11 1 17 -2 13 -5z m50 -10 c-3 -3 -12 -4 -19 -1 -8 3 -5
6 6 6 11 1 17 -2 13 -5z m56 -11 c-7 -2 -19 -2 -25 0 -7 3 -2 5 12 5 14 0 19
-2 13 -5z m50 -10 c-7 -2 -19 -2 -25 0 -7 3 -2 5 12 5 14 0 19 -2 13 -5z m50
-10 c-7 -2 -19 -2 -25 0 -7 3 -2 5 12 5 14 0 19 -2 13 -5z m50 -10 c-7 -2 -19
-2 -25 0 -7 3 -2 5 12 5 14 0 19 -2 13 -5z m50 -10 c-7 -2 -19 -2 -25 0 -7 3
-2 5 12 5 14 0 19 -2 13 -5z m50 -10 c-7 -2 -19 -2 -25 0 -7 3 -2 5 12 5 14 0
19 -2 13 -5z m54 -9 c-3 -3 -12 -4 -19 -1 -8 3 -5 6 6 6 11 1 17 -2 13 -5z
m50 -10 c-3 -3 -12 -4 -19 -1 -8 3 -5 6 6 6 11 1 17 -2 13 -5z m50 -10 c-3 -3
-12 -4 -19 -1 -8 3 -5 6 6 6 11 1 17 -2 13 -5z m50 -10 c-3 -3 -12 -4 -19 -1
-8 3 -5 6 6 6 11 1 17 -2 13 -5z m50 -10 c-3 -3 -12 -4 -19 -1 -8 3 -5 6 6 6
11 1 17 -2 13 -5z m56 -11 c-7 -2 -19 -2 -25 0 -7 3 -2 5 12 5 14 0 19 -2 13
-5z m50 -10 c-7 -2 -19 -2 -25 0 -7 3 -2 5 12 5 14 0 19 -2 13 -5z m50 -10
c-7 -2 -19 -2 -25 0 -7 3 -2 5 12 5 14 0 19 -2 13 -5z m50 -10 c-7 -2 -19 -2
-25 0 -7 3 -2 5 12 5 14 0 19 -2 13 -5z m94 -19 c-3 -3 -12 -4 -19 -1 -8 3 -5
6 6 6 11 1 17 -2 13 -5z m40 -10 c-3 -3 -12 -4 -19 -1 -8 3 -5 6 6 6 11 1 17
-2 13 -5z m40 -10 c-3 -3 -12 -4 -19 -1 -8 3 -5 6 6 6 11 1 17 -2 13 -5z m40
-10 c-3 -3 -12 -4 -19 -1 -8 3 -5 6 6 6 11 1 17 -2 13 -5z m-2237 -1548 c0 -6
-93 -37 -97 -32 -2 2 15 11 39 19 47 17 58 19 58 13z m-320 -110 c0 -6 -93
-37 -97 -32 -2 2 15 11 39 19 47 17 58 19 58 13z m-292 -101 c-8 -8 -181 -65
-185 -61 -2 2 35 18 84 34 88 30 111 36 101 27z m-290 -100 c-8 -9 -241 -85
-245 -81 -4 4 222 84 241 85 5 1 7 -1 4 -4z m-298 -104 c-8 -5 -26 -11 -40
-15 -21 -5 -20 -3 5 9 32 15 60 20 35 6z"/>
<path d="M40210 37616 c0 -2 8 -10 18 -17 15 -13 16 -12 3 4 -13 16 -21 21
-21 13z"/>
<path d="M12090 37581 c-95 -31 -187 -117 -215 -200 -19 -57 -21 -150 -6 -208
6 -21 24 -59 40 -84 17 -24 353 -367 748 -761 809 -808 766 -772 913 -772 186
0 320 137 320 327 0 137 34 97 -783 915 -549 550 -745 740 -782 759 -39 21
-67 27 -130 29 -44 2 -91 0 -105 -5z"/>
<path d="M40426 37504 c-21 -7 -43 -11 -50 -7 -8 4 -8 3 0 -6 7 -8 24 -6 65 8
29 11 47 20 39 20 -8 0 -32 -7 -54 -15z"/>
<path d="M36645 37150 c33 -33 62 -60 64 -60 3 0 -21 27 -54 60 -33 33 -62 60
-64 60 -3 0 21 -27 54 -60z"/>
<path d="M18290 37130 c-6 -11 -8 -20 -6 -20 3 0 10 9 16 20 6 11 8 20 6 20
-3 0 -10 -9 -16 -20z"/>
<path d="M31819 37097 c-91 -34 -155 -95 -197 -186 -20 -44 -26 -71 -25 -131
0 -147 -46 -93 807 -948 855 -857 807 -816 951 -816 65 0 90 4 136 26 76 35
133 88 166 156 24 50 28 69 28 148 0 81 -3 96 -30 147 -24 46 -176 204 -782
811 -571 572 -764 760 -800 778 -58 28 -196 36 -254 15z"/>
<path d="M18260 37080 c-6 -11 -8 -20 -6 -20 3 0 10 9 16 20 6 11 8 20 6 20
-3 0 -10 -9 -16 -20z"/>
<path d="M14844 34790 c-68 -27 -132 -85 -169 -151 -27 -49 -30 -62 -30 -149
0 -80 4 -103 24 -145 19 -40 173 -199 755 -782 823 -824 778 -786 926 -787
133 -1 241 69 298 192 31 69 34 163 8 242 -17 52 -55 92 -760 798 -557 559
-753 750 -791 769 -69 36 -188 42 -261 13z"/>
<path d="M34720 34236 c-113 -24 -210 -110 -245 -217 -24 -70 -17 -186 15
-254 18 -39 112 -139 441 -470 l418 -420 -618 -620 c-683 -685 -660 -658 -669
-795 -3 -61 0 -86 18 -134 28 -72 95 -147 165 -184 44 -24 62 -27 145 -27 79
0 103 4 145 24 40 19 200 173 802 775 855 853 818 810 817 961 -1 149 24 118
-602 747 -369 369 -571 565 -601 581 -37 21 -146 50 -170 46 -3 0 -31 -6 -61
-13z"/>
<path d="M32865 30327 c-22 -8 -53 -21 -70 -30 -50 -26 -1540 -1526 -1564
-1574 -26 -53 -38 -134 -30 -200 14 -106 85 -205 184 -253 71 -35 207 -36 281
-2 41 19 181 154 816 790 736 738 767 769 788 827 30 83 25 198 -12 270 -34
65 -100 128 -163 156 -61 27 -173 35 -230 16z"/>
<path d="M19803 29866 c-96 -31 -178 -110 -214 -205 -17 -44 -20 -71 -17 -131
8 -141 -31 -95 806 -933 569 -570 769 -765 807 -784 72 -38 188 -43 267 -13
169 63 254 254 194 430 -18 51 -56 92 -572 615 -829 840 -960 968 -1024 1001
-66 33 -179 42 -247 20z"/>
<path d="M29990 27454 c-25 -9 -63 -29 -85 -44 -22 -16 -371 -360 -776 -767
-831 -834 -794 -790 -794 -938 0 -71 4 -88 33 -147 36 -73 87 -124 161 -160
37 -19 63 -23 136 -23 154 0 101 -45 952 807 853 854 808 801 808 958 0 73 -4
93 -28 141 -32 67 -100 132 -165 162 -63 28 -181 33 -242 11z"/>
<path d="M22662 26996 c-191 -62 -282 -277 -198 -463 24 -51 112 -143 779
-811 836 -837 798 -804 937 -810 138 -7 257 63 317 187 24 48 28 68 28 141 -1
156 49 97 -804 953 -841 843 -801 808 -940 814 -46 2 -93 -3 -119 -11z"/>
<path d="M34205 26670 c4 -6 11 -8 16 -5 14 9 11 15 -7 15 -8 0 -12 -5 -9 -10z"/>
<path d="M35020 25190 c6 -11 13 -20 16 -20 2 0 0 9 -6 20 -6 11 -13 20 -16
20 -2 0 0 -9 6 -20z"/>
<path d="M35120 25000 c6 -11 13 -20 16 -20 2 0 0 9 -6 20 -6 11 -13 20 -16
20 -2 0 0 -9 6 -20z"/>
<path d="M35220 24810 c11 -22 23 -40 25 -40 3 0 -4 18 -15 40 -11 22 -23 40
-25 40 -3 0 4 -18 15 -40z"/>
<path d="M35320 24620 c11 -22 23 -40 25 -40 3 0 -4 18 -15 40 -11 22 -23 40
-25 40 -3 0 4 -18 15 -40z"/>
<path d="M27110 24578 c-50 -19 -94 -59 -482 -446 l-428 -426 -197 196 c-177
174 -204 198 -256 217 -198 72 -408 -46 -446 -252 -14 -71 -4 -140 29 -209 15
-31 316 -340 1078 -1104 858 -862 1066 -1066 1107 -1085 42 -20 66 -24 145
-24 84 0 101 3 147 28 67 34 116 84 150 150 24 45 28 64 28 142 0 162 45 107
-674 828 l-636 637 85 87 c47 49 239 243 426 433 383 387 379 381 378 526 0
229 -235 385 -454 302z"/>
<path d="M35420 24430 c17 -33 33 -60 35 -60 3 0 -8 27 -25 60 -17 33 -33 60
-35 60 -3 0 8 -27 25 -60z"/>
<path d="M35525 24230 c19 -38 38 -70 40 -70 3 0 -11 32 -30 70 -19 39 -38 70
-40 70 -3 0 11 -31 30 -70z"/>
<path d="M35625 24040 c25 -49 47 -90 50 -90 3 0 -15 41 -40 90 -25 50 -47 90
-50 90 -3 0 15 -40 40 -90z"/>
<path d="M34195 24041 c11 -5 45 -11 75 -14 42 -5 46 -4 20 2 -58 14 -118 22
-95 12z"/>
<path d="M34343 24013 c9 -2 23 -2 30 0 6 3 -1 5 -18 5 -16 0 -22 -2 -12 -5z"/>
<path d="M34403 24003 c9 -2 23 -2 30 0 6 3 -1 5 -18 5 -16 0 -22 -2 -12 -5z"/>
<path d="M34463 23993 c9 -2 23 -2 30 0 6 3 -1 5 -18 5 -16 0 -22 -2 -12 -5z"/>
<path d="M34523 23983 c9 -2 23 -2 30 0 6 3 -1 5 -18 5 -16 0 -22 -2 -12 -5z"/>
<path d="M34583 23973 c9 -2 23 -2 30 0 6 3 -1 5 -18 5 -16 0 -22 -2 -12 -5z"/>
<path d="M34638 23963 c6 -2 18 -2 25 0 6 3 1 5 -13 5 -14 0 -19 -2 -12 -5z"/>
<path d="M34708 23953 c7 -3 16 -2 19 1 4 3 -2 6 -13 5 -11 0 -14 -3 -6 -6z"/>
<path d="M34758 23943 c6 -2 18 -2 25 0 6 3 1 5 -13 5 -14 0 -19 -2 -12 -5z"/>
<path d="M35720 23860 c22 -44 42 -80 45 -80 3 0 -13 36 -35 80 -22 44 -42 80
-45 80 -3 0 13 -36 35 -80z"/>
<path d="M31620 22616 l715 -716 110 -34 c61 -19 394 -123 741 -230 347 -108
638 -196 648 -196 9 0 317 203 684 452 898 608 962 651 962 658 0 3 -539 95
-1197 204 -978 162 -3254 551 -3353 573 -17 3 215 -235 690 -711z"/>
<path d="M37285 21179 c-610 -231 -1155 -435 -1210 -453 -100 -33 -1856 -686
-1865 -693 -8 -7 1505 -1513 1519 -1511 7 2 658 653 1446 1448 1107 1116 1431
1448 1424 1460 -5 8 -39 48 -76 88 -48 51 -77 74 -98 77 -23 3 -306 -100
-1140 -416z"/>
<path d="M28993 20656 c-96 -31 -177 -108 -213 -202 -18 -48 -21 -74 -18 -135
8 -140 -27 -100 820 -945 734 -732 765 -763 823 -784 48 -18 75 -21 135 -18
185 11 313 148 312 335 0 140 35 100 -810 948 -838 842 -798 807 -937 812 -39
2 -88 -3 -112 -11z"/>
<path d="M31853 17786 c-58 -19 -105 -50 -148 -97 -58 -64 -78 -120 -79 -219
-2 -154 -25 -125 617 -768 642 -643 622 -627 772 -627 71 0 89 4 147 33 120
59 182 160 182 297 0 150 23 123 -627 772 -472 472 -581 576 -622 594 -62 28
-181 35 -242 15z"/>
<path d="M26240 16353 c-205 -533 -379 -982 -386 -998 l-12 -30 126 -59 c70
-32 759 -353 1532 -714 772 -361 1412 -655 1421 -655 9 1 26 -8 37 -20 l21
-22 -527 -200 c-543 -205 -582 -220 -912 -349 l-195 -76 -654 -1860 -653
-1859 73 -244 74 -244 1971 1976 c1827 1831 1970 1976 1945 1982 l-26 7 25 1
c19 1 128 102 430 396 223 218 406 400 408 405 4 11 -2026 2056 -2739 2759
l-476 470 -404 111 c-222 61 -411 113 -419 115 -212 60 -267 75 -275 75 -6 0
-179 -435 -385 -967z m2437 -1285 c-3 -8 -6 -5 -6 6 -1 11 2 17 5 13 3 -3 4
-12 1 -19z m40 -190 c-3 -8 -6 -5 -6 6 -1 11 2 17 5 13 3 -3 4 -12 1 -19z m10
-50 c-3 -8 -6 -5 -6 6 -1 11 2 17 5 13 3 -3 4 -12 1 -19z m30 -140 c-3 -8 -6
-5 -6 6 -1 11 2 17 5 13 3 -3 4 -12 1 -19z m10 -50 c-3 -8 -6 -5 -6 6 -1 11 2
17 5 13 3 -3 4 -12 1 -19z m30 -140 c-3 -8 -6 -5 -6 6 -1 11 2 17 5 13 3 -3 4
-12 1 -19z m10 -50 c-3 -8 -6 -5 -6 6 -1 11 2 17 5 13 3 -3 4 -12 1 -19z m10
-50 c-3 -8 -6 -5 -6 6 -1 11 2 17 5 13 3 -3 4 -12 1 -19z m10 -50 c-3 -8 -6
-5 -6 6 -1 11 2 17 5 13 3 -3 4 -12 1 -19z m10 -40 c-3 -8 -6 -5 -6 6 -1 11 2
17 5 13 3 -3 4 -12 1 -19z m10 -50 c-3 -8 -6 -5 -6 6 -1 11 2 17 5 13 3 -3 4
-12 1 -19z m10 -50 c-3 -8 -6 -5 -6 6 -1 11 2 17 5 13 3 -3 4 -12 1 -19z m10
-50 c-3 -7 -5 -2 -5 12 0 14 2 19 5 13 2 -7 2 -19 0 -25z m10 -40 c-3 -8 -6
-5 -6 6 -1 11 2 17 5 13 3 -3 4 -12 1 -19z m10 -50 c-3 -8 -6 -5 -6 6 -1 11 2
17 5 13 3 -3 4 -12 1 -19z m10 -50 c-3 -8 -6 -5 -6 6 -1 11 2 17 5 13 3 -3 4
-12 1 -19z m10 -50 c-3 -7 -5 -2 -5 12 0 14 2 19 5 13 2 -7 2 -19 0 -25z m10
-50 c-3 -7 -5 -2 -5 12 0 14 2 19 5 13 2 -7 2 -19 0 -25z m-1114 -545 c-7 -2
-19 -2 -25 0 -7 3 -2 5 12 5 14 0 19 -2 13 -5z m54 -9 c-3 -3 -12 -4 -19 -1
-8 3 -5 6 6 6 11 1 17 -2 13 -5z m60 -10 c-3 -3 -12 -4 -19 -1 -8 3 -5 6 6 6
11 1 17 -2 13 -5z m60 -10 c-3 -3 -12 -4 -19 -1 -8 3 -5 6 6 6 11 1 17 -2 13
-5z m60 -10 c-3 -3 -12 -4 -19 -1 -8 3 -5 6 6 6 11 1 17 -2 13 -5z m60 -10
c-3 -3 -12 -4 -19 -1 -8 3 -5 6 6 6 11 1 17 -2 13 -5z m60 -10 c-3 -3 -12 -4
-19 -1 -8 3 -5 6 6 6 11 1 17 -2 13 -5z m60 -10 c-3 -3 -12 -4 -19 -1 -8 3 -5
6 6 6 11 1 17 -2 13 -5z m60 -10 c-3 -3 -12 -4 -19 -1 -8 3 -5 6 6 6 11 1 17
-2 13 -5z m60 -10 c-3 -3 -12 -4 -19 -1 -8 3 -5 6 6 6 11 1 17 -2 13 -5z m60
-10 c-3 -3 -12 -4 -19 -1 -8 3 -5 6 6 6 11 1 17 -2 13 -5z m56 -11 c-7 -2 -19
-2 -25 0 -7 3 -2 5 12 5 14 0 19 -2 13 -5z m60 -10 c-7 -2 -19 -2 -25 0 -7 3
-2 5 12 5 14 0 19 -2 13 -5z m60 -10 c-7 -2 -19 -2 -25 0 -7 3 -2 5 12 5 14 0
19 -2 13 -5z m60 -10 c-7 -2 -19 -2 -25 0 -7 3 -2 5 12 5 14 0 19 -2 13 -5z
m60 -10 c-7 -2 -19 -2 -25 0 -7 3 -2 5 12 5 14 0 19 -2 13 -5z m60 -10 c-7 -2
-19 -2 -25 0 -7 3 -2 5 12 5 14 0 19 -2 13 -5z m60 -10 c-7 -2 -19 -2 -25 0
-7 3 -2 5 12 5 14 0 19 -2 13 -5z m60 -10 c-7 -2 -19 -2 -25 0 -7 3 -2 5 12 5
14 0 19 -2 13 -5z m60 -10 c-7 -2 -19 -2 -25 0 -7 3 -2 5 12 5 14 0 19 -2 13
-5z m54 -9 c-3 -3 -12 -4 -19 -1 -8 3 -5 6 6 6 11 1 17 -2 13 -5z m60 -10 c-3
-3 -12 -4 -19 -1 -8 3 -5 6 6 6 11 1 17 -2 13 -5z m60 -10 c-3 -3 -12 -4 -19
-1 -8 3 -5 6 6 6 11 1 17 -2 13 -5z m60 -10 c-3 -3 -12 -4 -19 -1 -8 3 -5 6 6
6 11 1 17 -2 13 -5z m56 -11 c-7 -2 -19 -2 -25 0 -7 3 -2 5 12 5 14 0 19 -2
13 -5z m60 -10 c-7 -2 -19 -2 -25 0 -7 3 -2 5 12 5 14 0 19 -2 13 -5z m60 -10
c-7 -2 -19 -2 -25 0 -7 3 -2 5 12 5 14 0 19 -2 13 -5z m60 -10 c-7 -2 -19 -2
-25 0 -7 3 -2 5 12 5 14 0 19 -2 13 -5z m60 -10 c-7 -2 -19 -2 -25 0 -7 3 -2
5 12 5 14 0 19 -2 13 -5z m60 -10 c-7 -2 -19 -2 -25 0 -7 3 -2 5 12 5 14 0 19
-2 13 -5z m60 -10 c-7 -2 -19 -2 -25 0 -7 3 -2 5 12 5 14 0 19 -2 13 -5z m60
-10 c-7 -2 -19 -2 -25 0 -7 3 -2 5 12 5 14 0 19 -2 13 -5z m60 -10 c-7 -2 -19
-2 -25 0 -7 3 -2 5 12 5 14 0 19 -2 13 -5z m60 -10 c-7 -2 -19 -2 -25 0 -7 3
-2 5 12 5 14 0 19 -2 13 -5z m60 -10 c-7 -2 -19 -2 -25 0 -7 3 -2 5 12 5 14 0
19 -2 13 -5z m60 -10 c-7 -2 -19 -2 -25 0 -7 3 -2 5 12 5 14 0 19 -2 13 -5z
m60 -10 c-7 -2 -19 -2 -25 0 -7 3 -2 5 12 5 14 0 19 -2 13 -5z m60 -10 c-7 -2
-21 -2 -30 0 -10 3 -4 5 12 5 17 0 24 -2 18 -5z m60 -10 c-7 -2 -21 -2 -30 0
-10 3 -4 5 12 5 17 0 24 -2 18 -5z"/>
<path d="M10080 9080 l0 -120 751 0 c413 0 749 4 747 9 -1 4 -39 58 -83 119
l-80 111 -667 1 -668 0 0 -120z"/>
<path d="M13721 9178 c-8 -13 -47 -67 -87 -120 l-73 -98 754 0 755 0 0 120 0
120 -668 0 -667 0 -14 -22z"/>
<path d="M36830 9055 l0 -145 695 0 695 0 0 145 0 145 -695 0 -695 0 0 -145z"/>
<path d="M38720 9055 l0 -145 2100 0 2100 0 1 73 c1 39 3 105 4 145 l3 72
-2104 0 -2104 0 0 -145z"/>
<path d="M10080 8930 c0 -20 7 -20 770 -20 768 0 771 0 760 20 -11 20 -21 20
-770 20 -753 0 -760 0 -760 -20z"/>
<path d="M13540 8930 c-11 -20 -8 -20 760 -20 763 0 770 0 770 20 0 20 -7 20
-760 20 -749 0 -759 0 -770 -20z"/>
<path d="M10080 8880 c0 -20 7 -20 792 -20 790 0 791 0 773 20 -18 20 -31 20
-792 20 -766 0 -773 0 -773 -20z"/>
<path d="M13502 8880 c-12 -20 -10 -20 778 -20 783 0 790 0 790 20 0 20 -7 20
-778 20 -766 0 -777 0 -790 -20z"/>
<path d="M36830 8880 c0 -20 7 -20 695 -20 688 0 695 0 695 20 0 20 -7 20
-695 20 -688 0 -695 0 -695 -20z"/>
<path d="M38720 8880 c0 -20 7 -20 2100 -20 2093 0 2100 0 2100 20 0 20 -7 20
-2100 20 -2093 0 -2100 0 -2100 -20z"/>
<path d="M10080 8830 c0 -20 7 -20 805 -20 803 0 806 0 795 20 -11 20 -21 20
-805 20 -788 0 -795 0 -795 -20z"/>
<path d="M13465 8830 c-18 -20 -17 -20 793 -20 805 0 812 0 812 20 0 20 -7 20
-793 20 -781 0 -794 0 -812 -20z"/>
<path d="M36830 8830 c0 -20 7 -20 695 -20 688 0 695 0 695 20 0 20 -7 20
-695 20 -688 0 -695 0 -695 -20z"/>
<path d="M38720 8830 c0 -20 7 -20 2100 -20 2093 0 2100 0 2100 20 0 20 -7 20
-2100 20 -2093 0 -2100 0 -2100 -20z"/>
<path d="M10080 8780 c0 -20 7 -20 825 -20 823 0 825 0 813 20 -13 20 -24 20
-825 20 -806 0 -813 0 -813 -20z"/>
<path d="M13432 8788 c-7 -7 -12 -16 -12 -20 0 -4 371 -8 825 -8 818 0 825 0
825 20 0 20 -7 20 -813 20 -619 0 -816 -3 -825 -12z"/>
<path d="M36830 8780 c0 -20 7 -20 695 -20 688 0 695 0 695 20 0 20 -7 20
-695 20 -688 0 -695 0 -695 -20z"/>
<path d="M38720 8780 c0 -20 7 -20 2100 -20 2093 0 2100 0 2100 20 0 20 -7 20
-2100 20 -2093 0 -2100 0 -2100 -20z"/>
<path d="M10080 8730 c0 -20 7 -20 840 -20 462 0 840 4 840 8 0 31 -24 32
-852 32 -821 0 -828 0 -828 -20z"/>
<path d="M13390 8730 c-11 -20 -8 -20 835 -20 838 0 845 0 845 20 0 20 -7 20
-835 20 -824 0 -834 0 -845 -20z"/>
<path d="M36830 8730 c0 -20 7 -20 695 -20 688 0 695 0 695 20 0 20 -7 20
-695 20 -688 0 -695 0 -695 -20z"/>
<path d="M38720 8730 c0 -20 7 -20 2100 -20 2093 0 2100 0 2100 20 0 20 -7 20
-2100 20 -2093 0 -2100 0 -2100 -20z"/>
<path d="M10080 8680 c0 -20 7 -20 860 -20 858 0 861 0 850 20 -11 20 -21 20
-860 20 -843 0 -850 0 -850 -20z"/>
<path d="M13355 8680 c-18 -20 -17 -20 848 -20 860 0 867 0 867 20 0 20 -7 20
-848 20 -836 0 -849 0 -867 -20z"/>
<path d="M36830 8680 c0 -20 7 -20 695 -20 688 0 695 0 695 20 0 20 -7 20
-695 20 -688 0 -695 0 -695 -20z"/>
<path d="M38720 8680 c0 -20 7 -20 2100 -20 2093 0 2100 0 2100 20 0 20 -7 20
-2100 20 -2093 0 -2100 0 -2100 -20z"/>
<path d="M10080 8630 c0 -20 7 -20 880 -20 878 0 880 0 868 20 -13 20 -24 20
-880 20 -861 0 -868 0 -868 -20z"/>
<path d="M13322 8638 c-7 -7 -12 -16 -12 -20 0 -4 396 -8 880 -8 873 0 880 0
880 20 0 20 -7 20 -868 20 -662 0 -871 -3 -880 -12z"/>
<path d="M36830 8630 c0 -20 7 -20 695 -20 688 0 695 0 695 20 0 20 -7 20
-695 20 -688 0 -695 0 -695 -20z"/>
<path d="M38720 8630 c0 -20 7 -20 2100 -20 2093 0 2100 0 2100 20 0 20 -7 20
-2100 20 -2093 0 -2100 0 -2100 -20z"/>
<path d="M10080 8580 c0 -20 7 -20 895 -20 492 0 895 4 895 8 0 31 -24 32
-907 32 -876 0 -883 0 -883 -20z"/>
<path d="M13280 8580 c-11 -20 -8 -20 890 -20 893 0 900 0 900 20 0 20 -7 20
-890 20 -879 0 -889 0 -900 -20z"/>
<path d="M36830 8580 c0 -20 7 -20 695 -20 688 0 695 0 695 20 0 20 -7 20
-695 20 -688 0 -695 0 -695 -20z"/>
<path d="M38720 8580 c0 -20 7 -20 2100 -20 2093 0 2100 0 2100 20 0 20 -7 20
-2100 20 -2093 0 -2100 0 -2100 -20z"/>
<path d="M10080 8530 c0 -20 7 -20 915 -20 913 0 915 0 903 20 -13 20 -24 20
-915 20 -896 0 -903 0 -903 -20z"/>
<path d="M13242 8530 c-12 -20 -10 -20 908 -20 913 0 920 0 920 20 0 20 -7 20
-908 20 -896 0 -907 0 -920 -20z"/>
<path d="M36830 8530 c0 -20 7 -20 695 -20 688 0 695 0 695 20 0 20 -7 20
-695 20 -688 0 -695 0 -695 -20z"/>
<path d="M38720 8530 c0 -20 7 -20 2100 -20 2093 0 2100 0 2100 20 0 20 -7 20
-2100 20 -2093 0 -2100 0 -2100 -20z"/>
<path d="M10080 8480 c0 -20 7 -20 937 -20 935 0 936 0 918 20 -18 20 -31 20
-937 20 -911 0 -918 0 -918 -20z"/>
<path d="M13212 8488 c-7 -7 -12 -16 -12 -20 0 -4 421 -8 935 -8 928 0 935 0
935 20 0 20 -7 20 -923 20 -705 0 -926 -3 -935 -12z"/>
<path d="M36830 8480 c0 -20 7 -20 695 -20 688 0 695 0 695 20 0 20 -7 20
-695 20 -688 0 -695 0 -695 -20z"/>
<path d="M38720 8480 c0 -20 7 -20 2100 -20 2093 0 2100 0 2100 20 0 20 -7 20
-2100 20 -2093 0 -2100 0 -2100 -20z"/>
<path d="M10080 8430 c0 -20 7 -20 950 -20 948 0 951 0 940 20 -11 20 -21 20
-950 20 -933 0 -940 0 -940 -20z"/>
<path d="M13170 8430 c-11 -20 -8 -20 945 -20 948 0 955 0 955 20 0 20 -7 20
-945 20 -934 0 -944 0 -955 -20z"/>
<path d="M36830 8430 c0 -20 7 -20 695 -20 688 0 695 0 695 20 0 20 -7 20
-695 20 -688 0 -695 0 -695 -20z"/>
<path d="M38720 8430 c0 -20 7 -20 2100 -20 2093 0 2100 0 2100 20 0 20 -7 20
-2100 20 -2093 0 -2100 0 -2100 -20z"/>
<path d="M10080 8380 c0 -20 7 -20 970 -20 968 0 970 0 958 20 -13 20 -24 20
-970 20 -951 0 -958 0 -958 -20z"/>
<path d="M13132 8380 c-12 -20 -10 -20 963 -20 968 0 975 0 975 20 0 20 -7 20
-963 20 -951 0 -962 0 -975 -20z"/>
<path d="M36830 8380 c0 -20 7 -20 695 -20 688 0 695 0 695 20 0 20 -7 20
-695 20 -688 0 -695 0 -695 -20z"/>
<path d="M38720 8380 c0 -20 7 -20 2100 -20 2093 0 2100 0 2100 20 0 20 -7 20
-2100 20 -2093 0 -2100 0 -2100 -20z"/>
<path d="M10080 8330 c0 -20 7 -20 985 -20 542 0 985 4 985 8 0 31 -23 32
-997 32 -966 0 -973 0 -973 -20z"/>
<path d="M13095 8330 c-18 -20 -17 -20 978 -20 990 0 997 0 997 20 0 20 -7 20
-978 20 -966 0 -979 0 -997 -20z"/>
<path d="M36830 8330 c0 -20 7 -20 695 -20 688 0 695 0 695 20 0 20 -7 20
-695 20 -688 0 -695 0 -695 -20z"/>
<path d="M38720 8330 c0 -20 7 -20 2100 -20 2093 0 2100 0 2100 20 0 20 -7 20
-2100 20 -2093 0 -2100 0 -2100 -20z"/>
<path d="M10080 8280 c0 -20 7 -20 1005 -20 1003 0 1006 0 995 20 -11 20 -21
20 -1005 20 -988 0 -995 0 -995 -20z"/>
<path d="M13060 8280 c-11 -20 -8 -20 1000 -20 1003 0 1010 0 1010 20 0 20 -7
20 -1000 20 -989 0 -999 0 -1010 -20z"/>
<path d="M36830 8280 c0 -20 7 -20 695 -20 688 0 695 0 695 20 0 20 -7 20
-695 20 -688 0 -695 0 -695 -20z"/>
<path d="M38720 8280 c0 -20 7 -20 2100 -20 2093 0 2100 0 2100 20 0 20 -7 20
-2100 20 -2093 0 -2100 0 -2100 -20z"/>
<path d="M10080 8230 c0 -20 7 -20 1027 -20 1025 0 1026 0 1008 20 -18 20 -31
20 -1027 20 -1001 0 -1008 0 -1008 -20z"/>
<path d="M13022 8230 c-12 -20 -10 -20 1018 -20 1023 0 1030 0 1030 20 0 20
-7 20 -1018 20 -1006 0 -1017 0 -1030 -20z"/>
<path d="M36830 8230 c0 -20 7 -20 695 -20 688 0 695 0 695 20 0 20 -7 20
-695 20 -688 0 -695 0 -695 -20z"/>
<path d="M38720 8230 c0 -20 7 -20 2100 -20 2093 0 2100 0 2100 20 0 20 -7 20
-2100 20 -2093 0 -2100 0 -2100 -20z"/>
<path d="M10080 8180 c0 -20 7 -20 1040 -20 572 0 1040 4 1040 8 0 31 -22 32
-1052 32 -1021 0 -1028 0 -1028 -20z"/>
<path d="M12985 8180 c-18 -20 -17 -20 1033 -20 1045 0 1052 0 1052 20 0 20
-7 20 -1033 20 -1021 0 -1034 0 -1052 -20z"/>
<path d="M36830 8180 c0 -20 7 -20 695 -20 688 0 695 0 695 20 0 20 -7 20
-695 20 -688 0 -695 0 -695 -20z"/>
<path d="M38720 8180 c0 -20 7 -20 2100 -20 2093 0 2100 0 2100 20 0 20 -7 20
-2100 20 -2093 0 -2100 0 -2100 -20z"/>
<path d="M10080 8130 c0 -20 7 -20 1060 -20 1058 0 1060 0 1048 20 -13 20 -24
20 -1060 20 -1041 0 -1048 0 -1048 -20z"/>
<path d="M12952 8138 c-7 -7 -12 -16 -12 -20 0 -4 479 -8 1065 -8 1058 0 1065
0 1065 20 0 20 -7 20 -1053 20 -806 0 -1056 -3 -1065 -12z"/>
<path d="M36830 8130 c0 -20 7 -20 695 -20 688 0 695 0 695 20 0 20 -7 20
-695 20 -688 0 -695 0 -695 -20z"/>
<path d="M38720 8130 c0 -20 7 -20 2100 -20 2093 0 2100 0 2100 20 0 20 -7 20
-2100 20 -2093 0 -2100 0 -2100 -20z"/>
<path d="M10080 8080 c0 -20 7 -20 1075 -20 591 0 1075 4 1075 8 0 31 -22 32
-1087 32 -1056 0 -1063 0 -1063 -20z"/>
<path d="M12912 8080 c-12 -20 -10 -20 1073 -20 1078 0 1085 0 1085 20 0 20
-7 20 -1073 20 -1061 0 -1072 0 -1085 -20z"/>
<path d="M36830 8080 c0 -20 7 -20 695 -20 688 0 695 0 695 20 0 20 -7 20
-695 20 -688 0 -695 0 -695 -20z"/>
<path d="M38720 8080 c0 -20 7 -20 2100 -20 2093 0 2100 0 2100 20 0 20 -7 20
-2100 20 -2093 0 -2100 0 -2100 -20z"/>
<path d="M10080 8030 c0 -20 7 -20 1095 -20 1093 0 1096 0 1085 20 -11 20 -21
20 -1095 20 -1078 0 -1085 0 -1085 -20z"/>
<path d="M12875 8030 c-18 -20 -17 -20 1088 -20 1100 0 1107 0 1107 20 0 20
-7 20 -1088 20 -1076 0 -1089 0 -1107 -20z"/>
<path d="M36830 8030 c0 -20 7 -20 695 -20 688 0 695 0 695 20 0 20 -7 20
-695 20 -688 0 -695 0 -695 -20z"/>
<path d="M38720 8030 c0 -20 7 -20 2100 -20 2093 0 2100 0 2100 20 0 20 -7 20
-2100 20 -2093 0 -2100 0 -2100 -20z"/>
<path d="M10080 7980 c0 -20 7 -20 1115 -20 1113 0 1115 0 1103 20 -13 20 -24
20 -1115 20 -1096 0 -1103 0 -1103 -20z"/>
<path d="M12842 7988 c-7 -7 -12 -16 -12 -20 0 -4 504 -8 1120 -8 1113 0 1120
0 1120 20 0 20 -7 20 -1108 20 -848 0 -1111 -3 -1120 -12z"/>
<path d="M36830 7980 c0 -20 7 -20 695 -20 688 0 695 0 695 20 0 20 -7 20
-695 20 -688 0 -695 0 -695 -20z"/>
<path d="M38720 7980 c0 -20 7 -20 2100 -20 2093 0 2100 0 2100 20 0 20 -7 20
-2100 20 -2093 0 -2100 0 -2100 -20z"/>
<path d="M10080 7930 c0 -20 7 -20 1130 -20 622 0 1130 4 1130 8 0 31 -21 32
-1142 32 -1111 0 -1118 0 -1118 -20z"/>
<path d="M12800 7930 c-11 -20 -8 -20 1130 -20 1133 0 1140 0 1140 20 0 20 -7
20 -1130 20 -1119 0 -1129 0 -1140 -20z"/>
<path d="M36830 7930 c0 -20 7 -20 695 -20 688 0 695 0 695 20 0 20 -7 20
-695 20 -688 0 -695 0 -695 -20z"/>
<path d="M38720 7930 c0 -20 7 -20 2100 -20 2093 0 2100 0 2100 20 0 20 -7 20
-2100 20 -2093 0 -2100 0 -2100 -20z"/>
<path d="M10080 7880 c0 -20 7 -20 1150 -20 1148 0 1150 0 1138 20 -13 20 -24
20 -1150 20 -1131 0 -1138 0 -1138 -20z"/>
<path d="M12765 7880 c-18 -20 -17 -20 1143 -20 1155 0 1162 0 1162 20 0 20
-7 20 -1143 20 -1131 0 -1144 0 -1162 -20z"/>
<path d="M36830 7880 c0 -20 7 -20 695 -20 688 0 695 0 695 20 0 20 -7 20
-695 20 -688 0 -695 0 -695 -20z"/>
<path d="M38720 7880 c0 -20 7 -20 2100 -20 2093 0 2100 0 2100 20 0 20 -7 20
-2100 20 -2093 0 -2100 0 -2100 -20z"/>
<path d="M10080 7830 c0 -20 7 -20 1172 -20 1170 0 1171 0 1153 20 -18 20 -31
20 -1172 20 -1146 0 -1153 0 -1153 -20z"/>
<path d="M12732 7838 c-7 -7 -12 -16 -12 -20 0 -4 529 -8 1175 -8 1168 0 1175
0 1175 20 0 20 -7 20 -1163 20 -891 0 -1166 -3 -1175 -12z"/>
<path d="M36830 7830 c0 -20 7 -20 695 -20 688 0 695 0 695 20 0 20 -7 20
-695 20 -688 0 -695 0 -695 -20z"/>
<path d="M40130 7830 c0 -20 7 -20 690 -20 683 0 690 0 690 20 0 20 -7 20
-690 20 -683 0 -690 0 -690 -20z"/>
<path d="M10080 7780 c0 -20 7 -20 1185 -20 1183 0 1186 0 1175 20 -11 20 -21
20 -1185 20 -1168 0 -1175 0 -1175 -20z"/>
<path d="M12690 7780 c-11 -20 -8 -20 1185 -20 1188 0 1195 0 1195 20 0 20 -7
20 -1185 20 -1174 0 -1184 0 -1195 -20z"/>
<path d="M36830 7780 c0 -20 7 -20 695 -20 688 0 695 0 695 20 0 20 -7 20
-695 20 -688 0 -695 0 -695 -20z"/>
<path d="M40130 7780 c0 -20 7 -20 690 -20 683 0 690 0 690 20 0 20 -7 20
-690 20 -683 0 -690 0 -690 -20z"/>
</g>
</svg>
